Klei-Bold.ufo
<glyph name="exclam" format="1">
  <advance width="273"/>
  <unicode hex="0021"/>
  <outline>
    <contour>
      <point x="136" y="196" type="curve" smooth="yes"/>
      <point x="160" y="196"/>
      <point x="184" y="217"/>
      <point x="185" y="234" type="curve"/>
      <point x="212" y="690" type="line"/>
      <point x="212" y="691"/>
      <point x="212" y="691"/>
      <point x="212" y="692" type="curve" smooth="yes"/>
      <point x="212" y="725"/>
      <point x="171" y="752"/>
      <point x="136" y="752" type="curve" smooth="yes"/>
      <point x="101" y="752"/>
      <point x="60" y="725"/>
      <point x="60" y="692" type="curve" smooth="yes"/>
      <point x="60" y="691"/>
      <point x="60" y="691"/>
      <point x="60" y="690" type="curve"/>
      <point x="87" y="234" type="line"/>
      <point x="88" y="217"/>
      <point x="112" y="196"/>
    </contour>
    <component base="period" xOffset="25"/>
  </outline>
</glyph>
<glyph name="quotedbl" format="1">
  <advance width="316"/>
  <unicode hex="0022"/>
  <outline>
    <contour>
      <point x="92" y="499" type="curve" smooth="yes"/>
      <point x="108" y="499" type="line" smooth="yes"/>
      <point x="115" y="499"/>
      <point x="125" y="506"/>
      <point x="126" y="516" type="curve" smooth="yes"/>
      <point x="140" y="638" type="line" smooth="yes"/>
      <point x="140" y="640"/>
      <point x="140" y="643"/>
      <point x="140" y="645" type="curve" smooth="yes"/>
      <point x="140" y="673"/>
      <point x="124" y="687"/>
      <point x="100" y="687" type="curve" smooth="yes"/>
      <point x="76" y="687"/>
      <point x="60" y="669"/>
      <point x="60" y="645" type="curve" smooth="yes"/>
      <point x="60" y="643"/>
      <point x="60" y="640"/>
      <point x="60" y="638" type="curve" smooth="yes"/>
      <point x="74" y="519" type="line" smooth="yes"/>
      <point x="76" y="506"/>
      <point x="81" y="499"/>
    </contour>
    <contour>
      <point x="208" y="499" type="curve" smooth="yes"/>
      <point x="224" y="499" type="line" smooth="yes"/>
      <point x="231" y="499"/>
      <point x="241" y="506"/>
      <point x="242" y="516" type="curve" smooth="yes"/>
      <point x="256" y="638" type="line" smooth="yes"/>
      <point x="256" y="640"/>
      <point x="256" y="643"/>
      <point x="256" y="645" type="curve" smooth="yes"/>
      <point x="256" y="673"/>
      <point x="240" y="687"/>
      <point x="216" y="687" type="curve" smooth="yes"/>
      <point x="192" y="687"/>
      <point x="176" y="669"/>
      <point x="176" y="645" type="curve" smooth="yes"/>
      <point x="176" y="643"/>
      <point x="176" y="640"/>
      <point x="176" y="638" type="curve" smooth="yes"/>
      <point x="190" y="519" type="line" smooth="yes"/>
      <point x="192" y="506"/>
      <point x="197" y="499"/>
    </contour>
  </outline>
</glyph>
<glyph name="numbersign" format="1">
  <advance width="735"/>
  <unicode hex="0023"/>
  <outline>
    <contour>
      <point x="341" y="3" type="curve" smooth="yes"/>
      <point x="405" y="3" type="line" smooth="yes"/>
      <point x="414" y="3"/>
      <point x="421" y="12"/>
      <point x="423" y="22" type="curve"/>
      <point x="590" y="717" type="line"/>
      <point x="590" y="721" type="line" smooth="yes"/>
      <point x="590" y="733"/>
      <point x="578" y="737"/>
      <point x="573" y="737" type="curve" smooth="yes"/>
      <point x="511" y="737" type="line" smooth="yes"/>
      <point x="505" y="737"/>
      <point x="494" y="727"/>
      <point x="492" y="720" type="curve"/>
      <point x="325" y="25" type="line"/>
      <point x="325" y="22" type="line" smooth="yes"/>
      <point x="325" y="12"/>
      <point x="331" y="3"/>
    </contour>
    <contour>
      <point x="67" y="217" type="curve" smooth="yes"/>
      <point x="202" y="217" type="line"/>
      <point x="221" y="296" type="line"/>
      <point x="84" y="296" type="line" smooth="yes"/>
      <point x="75" y="296"/>
      <point x="67" y="290"/>
      <point x="64" y="281" type="curve"/>
      <point x="52" y="240" type="line"/>
      <point x="50" y="237"/>
      <point x="50" y="233"/>
      <point x="50" y="232" type="curve" smooth="yes"/>
      <point x="50" y="221"/>
      <point x="60" y="217"/>
    </contour>
    <contour>
      <point x="269" y="217" type="line"/>
      <point x="387" y="217" type="line"/>
      <point x="406" y="296" type="line"/>
      <point x="288" y="296" type="line"/>
    </contour>
    <contour>
      <point x="156" y="3" type="curve" smooth="yes"/>
      <point x="220" y="3" type="line" smooth="yes"/>
      <point x="229" y="3"/>
      <point x="236" y="12"/>
      <point x="238" y="22" type="curve"/>
      <point x="405" y="717" type="line"/>
      <point x="405" y="721" type="line" smooth="yes"/>
      <point x="405" y="733"/>
      <point x="393" y="737"/>
      <point x="388" y="737" type="curve" smooth="yes"/>
      <point x="326" y="737" type="line" smooth="yes"/>
      <point x="320" y="737"/>
      <point x="309" y="727"/>
      <point x="307" y="720" type="curve"/>
      <point x="140" y="24" type="line"/>
      <point x="140" y="22" type="line" smooth="yes"/>
      <point x="140" y="12"/>
      <point x="146" y="3"/>
    </contour>
    <contour>
      <point x="118" y="476" type="curve" smooth="yes"/>
      <point x="264" y="476" type="line"/>
      <point x="283" y="555" type="line"/>
      <point x="135" y="555" type="line" smooth="yes"/>
      <point x="126" y="555"/>
      <point x="118" y="549"/>
      <point x="115" y="540" type="curve"/>
      <point x="103" y="500" type="line"/>
      <point x="101" y="495"/>
      <point x="101" y="492"/>
      <point x="101" y="491" type="curve" smooth="yes"/>
      <point x="101" y="480"/>
      <point x="111" y="476"/>
    </contour>
    <contour>
      <point x="454" y="217" type="line"/>
      <point x="606" y="217" type="line" smooth="yes"/>
      <point x="615" y="217"/>
      <point x="622" y="223"/>
      <point x="626" y="232" type="curve" smooth="yes"/>
      <point x="632" y="245"/>
      <point x="641" y="265"/>
      <point x="641" y="282" type="curve" smooth="yes"/>
      <point x="641" y="293"/>
      <point x="630" y="296"/>
      <point x="624" y="296" type="curve" smooth="yes"/>
      <point x="473" y="296" type="line"/>
    </contour>
    <contour>
      <point x="331" y="476" type="line"/>
      <point x="449" y="476" type="line"/>
      <point x="468" y="555" type="line"/>
      <point x="350" y="555" type="line"/>
    </contour>
    <contour>
      <point x="516" y="476" type="line"/>
      <point x="657" y="476" type="line" smooth="yes"/>
      <point x="668" y="476"/>
      <point x="674" y="486"/>
      <point x="677" y="493" type="curve" smooth="yes"/>
      <point x="682" y="504"/>
      <point x="692" y="526"/>
      <point x="692" y="541" type="curve" smooth="yes"/>
      <point x="692" y="552"/>
      <point x="681" y="555"/>
      <point x="675" y="555" type="curve" smooth="yes"/>
      <point x="535" y="555" type="line"/>
    </contour>
  </outline>
</glyph>
<glyph name="dollar" format="1">
  <advance width="613"/>
  <unicode hex="0024"/>
  <outline>
    <contour>
      <point x="355" y="261" type="curve"/>
      <point x="350" y="220"/>
      <point x="345" y="185"/>
      <point x="340" y="153" type="curve" smooth="yes"/>
      <point x="335" y="124"/>
      <point x="331" y="97"/>
      <point x="328" y="71" type="curve"/>
      <point x="379" y="76"/>
      <point x="410" y="120"/>
      <point x="410" y="173" type="curve" smooth="yes"/>
      <point x="410" y="222"/>
      <point x="387" y="244"/>
    </contour>
    <contour>
      <point x="393" y="649" type="curve"/>
      <point x="392" y="635"/>
      <point x="390" y="620"/>
      <point x="387" y="606" type="curve"/>
      <point x="440" y="599"/>
      <point x="497" y="581"/>
      <point x="497" y="560" type="curve" smooth="yes"/>
      <point x="497" y="550"/>
      <point x="480" y="496"/>
      <point x="462" y="496" type="curve" smooth="yes"/>
      <point x="454" y="496"/>
      <point x="446" y="505"/>
      <point x="438" y="516" type="curve" smooth="yes"/>
      <point x="427" y="531"/>
      <point x="411" y="549"/>
      <point x="386" y="559" type="curve"/>
      <point x="378" y="498"/>
      <point x="372" y="447"/>
      <point x="365" y="382" type="curve"/>
      <point x="446" y="335"/>
      <point x="529" y="284"/>
      <point x="529" y="212" type="curve" smooth="yes"/>
      <point x="529" y="113"/>
      <point x="478" y="79"/>
      <point x="436" y="55" type="curve" smooth="yes"/>
      <point x="405" y="37"/>
      <point x="360" y="29"/>
      <point x="319" y="26" type="curve"/>
      <point x="316" y="-9"/>
      <point x="314" y="-22"/>
      <point x="313" y="-27" type="curve"/>
      <point x="303" y="-43"/>
      <point x="288" y="-47"/>
      <point x="273" y="-47" type="curve" smooth="yes"/>
      <point x="264" y="-47"/>
      <point x="253" y="-45"/>
      <point x="241" y="-36" type="curve"/>
      <point x="241" y="-23"/>
      <point x="246" y="9"/>
      <point x="251" y="33" type="curve"/>
      <point x="172" y="49"/>
      <point x="115" y="98"/>
      <point x="115" y="129" type="curve" smooth="yes"/>
      <point x="115" y="149"/>
      <point x="143" y="188"/>
      <point x="162" y="188" type="curve" smooth="yes"/>
      <point x="168" y="188"/>
      <point x="175" y="177"/>
      <point x="183" y="163" type="curve" smooth="yes"/>
      <point x="196" y="139"/>
      <point x="217" y="104"/>
      <point x="255" y="87" type="curve"/>
      <point x="266" y="165"/>
      <point x="274" y="226"/>
      <point x="282" y="297" type="curve"/>
      <point x="211" y="336"/>
      <point x="120" y="398"/>
      <point x="120" y="462" type="curve" smooth="yes"/>
      <point x="120" y="535"/>
      <point x="200" y="611"/>
      <point x="319" y="619" type="curve"/>
      <point x="320" y="638"/>
      <point x="321" y="653"/>
      <point x="323" y="670" type="curve" smooth="yes"/>
      <point x="325" y="674"/>
      <point x="346" y="675"/>
      <point x="354" y="675" type="curve" smooth="yes"/>
      <point x="373" y="675"/>
      <point x="389" y="668"/>
    </contour>
    <contour>
      <point x="296" y="419" type="curve"/>
      <point x="302" y="477"/>
      <point x="306" y="519"/>
      <point x="311" y="576" type="curve"/>
      <point x="263" y="573"/>
      <point x="245" y="529"/>
      <point x="245" y="497" type="curve" smooth="yes"/>
      <point x="245" y="460"/>
      <point x="264" y="433"/>
    </contour>
  </outline>
</glyph>
<glyph name="percent" format="1">
  <advance width="944"/>
  <unicode hex="0025"/>
  <outline>
    <contour>
      <point x="275" y="-71" type="curve" smooth="yes"/>
      <point x="279" y="-71"/>
      <point x="284" y="-70"/>
      <point x="288" y="-65" type="curve"/>
      <point x="732" y="671" type="line"/>
      <point x="734" y="674"/>
      <point x="735" y="677"/>
      <point x="735" y="680" type="curve" smooth="yes"/>
      <point x="735" y="687"/>
      <point x="730" y="691"/>
      <point x="726" y="694" type="curve" smooth="yes"/>
      <point x="694" y="717" type="line"/>
      <point x="692" y="718"/>
      <point x="689" y="719"/>
      <point x="686" y="719" type="curve" smooth="yes"/>
      <point x="680" y="719"/>
      <point x="675" y="715"/>
      <point x="672" y="711" type="curve"/>
      <point x="228" y="-25" type="line" smooth="yes"/>
      <point x="226" y="-28"/>
      <point x="225" y="-31"/>
      <point x="225" y="-34" type="curve" smooth="yes"/>
      <point x="225" y="-40"/>
      <point x="228" y="-44"/>
      <point x="233" y="-48" type="curve" smooth="yes"/>
      <point x="238" y="-52"/>
      <point x="266" y="-71"/>
    </contour>
    <contour>
      <point x="245" y="249" type="curve" smooth="yes"/>
      <point x="350" y="249"/>
      <point x="430" y="322"/>
      <point x="430" y="449" type="curve" smooth="yes"/>
      <point x="430" y="576"/>
      <point x="350" y="649"/>
      <point x="245" y="649" type="curve" smooth="yes"/>
      <point x="142" y="649"/>
      <point x="62" y="576"/>
      <point x="62" y="449" type="curve" smooth="yes"/>
      <point x="62" y="322"/>
      <point x="142" y="249"/>
    </contour>
    <contour>
      <point x="245" y="291" type="curve" smooth="yes"/>
      <point x="208" y="291"/>
      <point x="179" y="356"/>
      <point x="179" y="449" type="curve" smooth="yes"/>
      <point x="179" y="542"/>
      <point x="208" y="607"/>
      <point x="245" y="607" type="curve" smooth="yes"/>
      <point x="281" y="607"/>
      <point x="312" y="542"/>
      <point x="312" y="449" type="curve" smooth="yes"/>
      <point x="312" y="356"/>
      <point x="281" y="291"/>
    </contour>
    <contour>
      <point x="708" y="-16" type="curve" smooth="yes"/>
      <point x="811" y="-16"/>
      <point x="891" y="57"/>
      <point x="891" y="184" type="curve" smooth="yes"/>
      <point x="891" y="311"/>
      <point x="811" y="384"/>
      <point x="708" y="384" type="curve" smooth="yes"/>
      <point x="603" y="384"/>
      <point x="522" y="311"/>
      <point x="522" y="184" type="curve" smooth="yes"/>
      <point x="522" y="57"/>
      <point x="603" y="-16"/>
    </contour>
    <contour>
      <point x="708" y="26" type="curve" smooth="yes"/>
      <point x="672" y="26"/>
      <point x="641" y="91"/>
      <point x="641" y="184" type="curve" smooth="yes"/>
      <point x="641" y="277"/>
      <point x="672" y="342"/>
      <point x="708" y="342" type="curve" smooth="yes"/>
      <point x="744" y="342"/>
      <point x="774" y="277"/>
      <point x="774" y="184" type="curve" smooth="yes"/>
      <point x="774" y="91"/>
      <point x="744" y="26"/>
    </contour>
  </outline>
</glyph>
<glyph name="ampersand" format="1">
  <advance width="882"/>
  <unicode hex="0026"/>
  <outline>
    <contour>
      <point x="711" y="-23" type="curve" smooth="yes"/>
      <point x="772" y="-23"/>
      <point x="815" y="14"/>
      <point x="830" y="60" type="curve"/>
      <point x="814" y="76" type="line"/>
      <point x="808" y="69"/>
      <point x="773" y="29"/>
      <point x="719" y="29" type="curve" smooth="yes"/>
      <point x="662" y="29"/>
      <point x="613" y="112"/>
      <point x="577" y="174" type="curve" smooth="yes"/>
      <point x="573" y="181"/>
      <point x="568" y="189"/>
      <point x="563" y="196" type="curve"/>
      <point x="579" y="218"/>
      <point x="612" y="248"/>
      <point x="634" y="267" type="curve" smooth="yes"/>
      <point x="646" y="277"/>
      <point x="693" y="315"/>
      <point x="707" y="324" type="curve" smooth="yes"/>
      <point x="715" y="329"/>
      <point x="723" y="334"/>
      <point x="735" y="335" type="curve" smooth="yes"/>
      <point x="742" y="335" type="line"/>
      <point x="742" y="364" type="line"/>
      <point x="552" y="364" type="line"/>
      <point x="552" y="335" type="line"/>
      <point x="559" y="335" type="line" smooth="yes"/>
      <point x="573" y="334"/>
      <point x="587" y="329"/>
      <point x="587" y="323" type="curve" smooth="yes"/>
      <point x="587" y="314"/>
      <point x="570" y="298"/>
      <point x="557" y="286" type="curve" smooth="yes"/>
      <point x="534" y="265"/>
      <point x="529" y="260"/>
      <point x="523" y="253" type="curve"/>
      <point x="500" y="283"/>
      <point x="490" y="294"/>
      <point x="436" y="348" type="curve" smooth="yes"/>
      <point x="418" y="366"/>
      <point x="417" y="367"/>
      <point x="386" y="396" type="curve"/>
      <point x="445" y="460"/>
      <point x="488" y="522"/>
      <point x="488" y="595" type="curve" smooth="yes"/>
      <point x="488" y="663"/>
      <point x="450" y="742"/>
      <point x="305" y="742" type="curve" smooth="yes"/>
      <point x="199" y="742"/>
      <point x="121" y="658"/>
      <point x="121" y="567" type="curve" smooth="yes"/>
      <point x="121" y="493"/>
      <point x="173" y="443"/>
      <point x="224" y="394" type="curve"/>
      <point x="159" y="350"/>
      <point x="52" y="277"/>
      <point x="52" y="175" type="curve" smooth="yes"/>
      <point x="52" y="71"/>
      <point x="162" y="-17"/>
      <point x="303" y="-17" type="curve" smooth="yes"/>
      <point x="410" y="-17"/>
      <point x="444" y="35"/>
      <point x="491" y="109" type="curve"/>
      <point x="496" y="99"/>
      <point x="520" y="69"/>
      <point x="526" y="62" type="curve" smooth="yes"/>
      <point x="569" y="12"/>
      <point x="633" y="-23"/>
    </contour>
    <contour>
      <point x="297" y="47" type="curve" smooth="yes"/>
      <point x="212" y="47"/>
      <point x="183" y="115"/>
      <point x="183" y="166" type="curve" smooth="yes"/>
      <point x="183" y="242"/>
      <point x="247" y="294"/>
      <point x="298" y="326" type="curve"/>
      <point x="357" y="271"/>
      <point x="404" y="223"/>
      <point x="444" y="157" type="curve"/>
      <point x="409" y="96"/>
      <point x="369" y="47"/>
    </contour>
    <contour>
      <point x="298" y="460" type="curve"/>
      <point x="258" y="511"/>
      <point x="242" y="562"/>
      <point x="242" y="604" type="curve" smooth="yes"/>
      <point x="242" y="644"/>
      <point x="256" y="702"/>
      <point x="309" y="702" type="curve" smooth="yes"/>
      <point x="351" y="702"/>
      <point x="377" y="667"/>
      <point x="377" y="619" type="curve" smooth="yes"/>
      <point x="377" y="581"/>
      <point x="361" y="523"/>
    </contour>
  </outline>
</glyph>
<glyph name="quotesingle" format="1">
  <advance width="200"/>
  <unicode hex="0027"/>
  <outline>
    <contour>
      <point x="92" y="499" type="curve" smooth="yes"/>
      <point x="108" y="499" type="line" smooth="yes"/>
      <point x="115" y="499"/>
      <point x="125" y="506"/>
      <point x="126" y="516" type="curve" smooth="yes"/>
      <point x="140" y="638" type="line" smooth="yes"/>
      <point x="140" y="640"/>
      <point x="140" y="643"/>
      <point x="140" y="645" type="curve" smooth="yes"/>
      <point x="140" y="673"/>
      <point x="124" y="687"/>
      <point x="100" y="687" type="curve" smooth="yes"/>
      <point x="76" y="687"/>
      <point x="60" y="669"/>
      <point x="60" y="645" type="curve" smooth="yes"/>
      <point x="60" y="643"/>
      <point x="60" y="640"/>
      <point x="60" y="638" type="curve" smooth="yes"/>
      <point x="74" y="519" type="line" smooth="yes"/>
      <point x="76" y="506"/>
      <point x="81" y="499"/>
    </contour>
  </outline>
</glyph>
<glyph name="parenleft" format="1">
  <advance width="335"/>
  <unicode hex="0028"/>
  <outline>
    <contour>
      <point x="285" y="-115" type="curve"/>
      <point x="285" y="-58" type="line"/>
      <point x="259" y="-34"/>
      <point x="172" y="47"/>
      <point x="172" y="342" type="curve" smooth="yes"/>
      <point x="172" y="658"/>
      <point x="259" y="736"/>
      <point x="285" y="759" type="curve"/>
      <point x="285" y="806" type="line"/>
      <point x="273" y="799"/>
      <point x="50" y="654"/>
      <point x="50" y="343" type="curve" smooth="yes"/>
      <point x="50" y="62"/>
      <point x="273" y="-106"/>
    </contour>
  </outline>
</glyph>
<glyph name="parenright" format="1">
  <advance width="335"/>
  <unicode hex="0029"/>
  <outline>
    <contour>
      <point x="50" y="-115" type="line"/>
      <point x="62" y="-106"/>
      <point x="285" y="62"/>
      <point x="285" y="343" type="curve" smooth="yes"/>
      <point x="285" y="654"/>
      <point x="62" y="799"/>
      <point x="50" y="806" type="curve"/>
      <point x="50" y="759" type="line"/>
      <point x="76" y="736"/>
      <point x="163" y="658"/>
      <point x="163" y="342" type="curve" smooth="yes"/>
      <point x="163" y="47"/>
      <point x="76" y="-34"/>
      <point x="50" y="-58" type="curve"/>
    </contour>
  </outline>
</glyph>
<glyph name="asterisk" format="1">
  <advance width="476"/>
  <unicode hex="002A"/>
  <outline>
    <contour>
      <point x="230" y="270" type="curve" smooth="yes"/>
      <point x="248" y="270" type="line" smooth="yes"/>
      <point x="260" y="270"/>
      <point x="272" y="280"/>
      <point x="273" y="294" type="curve"/>
      <point x="279" y="428" type="line"/>
      <point x="400" y="366" type="line" smooth="yes"/>
      <point x="403" y="365"/>
      <point x="406" y="364"/>
      <point x="410" y="364" type="curve" smooth="yes"/>
      <point x="420" y="364"/>
      <point x="426" y="371"/>
      <point x="431" y="377" type="curve"/>
      <point x="433" y="381" type="line"/>
      <point x="434" y="383"/>
      <point x="438" y="392"/>
      <point x="438" y="399" type="curve" smooth="yes"/>
      <point x="438" y="409"/>
      <point x="432" y="415"/>
      <point x="426" y="419" type="curve" smooth="yes"/>
      <point x="313" y="494" type="line"/>
      <point x="426" y="569" type="line" smooth="yes"/>
      <point x="433" y="573"/>
      <point x="438" y="580"/>
      <point x="438" y="589" type="curve" smooth="yes"/>
      <point x="438" y="594"/>
      <point x="435" y="605"/>
      <point x="430" y="611" type="curve" smooth="yes"/>
      <point x="425" y="618"/>
      <point x="417" y="621"/>
      <point x="409" y="621" type="curve" smooth="yes"/>
      <point x="406" y="621"/>
      <point x="402" y="620"/>
      <point x="398" y="619" type="curve" smooth="yes"/>
      <point x="276" y="557" type="line"/>
      <point x="270" y="693" type="line"/>
      <point x="269" y="706"/>
      <point x="260" y="716"/>
      <point x="247" y="716" type="curve" smooth="yes"/>
      <point x="228" y="716" type="line" smooth="yes"/>
      <point x="214" y="716"/>
      <point x="205" y="704"/>
      <point x="205" y="693" type="curve"/>
      <point x="199" y="557" type="line"/>
      <point x="77" y="619" type="line"/>
      <point x="72" y="621"/>
      <point x="67" y="621"/>
      <point x="64" y="621" type="curve" smooth="yes"/>
      <point x="52" y="621"/>
      <point x="36" y="604"/>
      <point x="36" y="589" type="curve" smooth="yes"/>
      <point x="36" y="582"/>
      <point x="39" y="572"/>
      <point x="47" y="567" type="curve"/>
      <point x="163" y="491" type="line"/>
      <point x="47" y="416" type="line"/>
      <point x="44" y="413"/>
      <point x="38" y="404"/>
      <point x="38" y="396" type="curve" smooth="yes"/>
      <point x="38" y="390"/>
      <point x="43" y="380"/>
      <point x="46" y="376" type="curve" smooth="yes"/>
      <point x="48" y="372"/>
      <point x="54" y="364"/>
      <point x="64" y="364" type="curve" smooth="yes"/>
      <point x="67" y="364"/>
      <point x="72" y="364"/>
      <point x="77" y="366" type="curve" smooth="yes"/>
      <point x="199" y="430" type="line"/>
      <point x="205" y="294" type="line"/>
      <point x="206" y="280"/>
      <point x="218" y="270"/>
    </contour>
  </outline>
</glyph>
<glyph name="plus" format="1">
  <advance width="446"/>
  <unicode hex="002B"/>
  <outline>
    <contour>
      <point x="272" y="145" type="line"/>
      <point x="268" y="134"/>
      <point x="233" y="128"/>
      <point x="224" y="128" type="curve" smooth="yes"/>
      <point x="215" y="128"/>
      <point x="179" y="134"/>
      <point x="174" y="145" type="curve"/>
      <point x="174" y="249" type="line"/>
      <point x="79" y="249" type="line"/>
      <point x="67" y="249"/>
      <point x="62" y="289"/>
      <point x="62" y="300" type="curve" smooth="yes"/>
      <point x="62" y="310"/>
      <point x="67" y="347"/>
      <point x="81" y="347" type="curve"/>
      <point x="172" y="347" type="line"/>
      <point x="174" y="347"/>
      <point x="174" y="347"/>
      <point x="174" y="349" type="curve"/>
      <point x="174" y="444" type="line"/>
      <point x="179" y="446" type="line" smooth="yes"/>
      <point x="188" y="449"/>
      <point x="217" y="454"/>
      <point x="226" y="454" type="curve" smooth="yes"/>
      <point x="235" y="454"/>
      <point x="263" y="449"/>
      <point x="269" y="445" type="curve" smooth="yes"/>
      <point x="273" y="443" type="line"/>
      <point x="273" y="393"/>
      <point x="273" y="359"/>
      <point x="273" y="347" type="curve"/>
      <point x="368" y="347" type="line"/>
      <point x="383" y="347"/>
      <point x="384" y="303"/>
      <point x="384" y="295" type="curve" smooth="yes"/>
      <point x="384" y="288"/>
      <point x="382" y="249"/>
      <point x="368" y="249" type="curve"/>
      <point x="272" y="249" type="line"/>
    </contour>
  </outline>
</glyph>
<glyph name="comma" format="1">
  <advance width="273"/>
  <unicode hex="002C"/>
  <outline>
    <contour>
      <point x="63" y="-109" type="line"/>
      <point x="162" y="-109"/>
      <point x="219" y="-69"/>
      <point x="219" y="46" type="curve" smooth="yes"/>
      <point x="219" y="83"/>
      <point x="186" y="118"/>
      <point x="145" y="118" type="curve" smooth="yes"/>
      <point x="104" y="118"/>
      <point x="66" y="84"/>
      <point x="66" y="46" type="curve" smooth="yes"/>
      <point x="66" y="12"/>
      <point x="80" y="-1"/>
      <point x="97" y="-13" type="curve" smooth="yes"/>
      <point x="110" y="-22"/>
      <point x="117" y="-28"/>
      <point x="117" y="-38" type="curve" smooth="yes"/>
      <point x="117" y="-69"/>
      <point x="72" y="-79"/>
      <point x="45" y="-79" type="curve"/>
    </contour>
  </outline>
</glyph>
<glyph name="hyphen" format="1">
  <advance width="432"/>
  <unicode hex="002D"/>
  <outline>
    <contour>
      <point x="81" y="255" type="line"/>
      <point x="66" y="255"/>
      <point x="65" y="276"/>
      <point x="65" y="298" type="curve" smooth="yes"/>
      <point x="65" y="320"/>
      <point x="66" y="341"/>
      <point x="81" y="341" type="curve" smooth="yes"/>
      <point x="353" y="341" type="line" smooth="yes"/>
      <point x="368" y="341"/>
      <point x="369" y="317"/>
      <point x="369" y="298" type="curve" smooth="yes"/>
      <point x="369" y="279"/>
      <point x="368" y="255"/>
      <point x="353" y="255" type="curve" smooth="yes"/>
    </contour>
  </outline>
</glyph>
<glyph name="period" format="1">
  <advance width="228"/>
  <unicode hex="002E"/>
  <outline>
    <contour>
      <point x="112" y="-18" type="curve" smooth="yes"/>
      <point x="154" y="-18"/>
      <point x="188" y="15"/>
      <point x="188" y="56" type="curve" smooth="yes"/>
      <point x="188" y="97"/>
      <point x="154" y="130"/>
      <point x="112" y="130" type="curve" smooth="yes"/>
      <point x="70" y="130"/>
      <point x="36" y="97"/>
      <point x="36" y="56" type="curve" smooth="yes"/>
      <point x="36" y="15"/>
      <point x="70" y="-18"/>
    </contour>
    <contour>
      <point x="111" y="167" type="move" name="_bottom"/>
    </contour>
  </outline>
</glyph>
<glyph name="slash" format="1">
  <advance width="427"/>
  <unicode hex="002F"/>
  <outline>
    <contour>
      <point x="40" y="-108" type="line"/>
      <point x="53" y="-103" type="line" smooth="yes"/>
      <point x="62" y="-99"/>
      <point x="76" y="-98"/>
      <point x="90" y="-97" type="curve" smooth="yes"/>
      <point x="123" y="-95"/>
      <point x="156" y="-92"/>
      <point x="167" y="-54" type="curve"/>
      <point x="171" y="-39"/>
      <point x="313" y="423"/>
      <point x="401" y="670" type="curve" smooth="yes"/>
      <point x="401" y="672" type="line" smooth="yes"/>
      <point x="401" y="689"/>
      <point x="366" y="703"/>
      <point x="350" y="703" type="curve" smooth="yes"/>
      <point x="336" y="703"/>
      <point x="312" y="692"/>
      <point x="294" y="678" type="curve" smooth="yes"/>
      <point x="291" y="674" type="line" smooth="yes"/>
      <point x="219" y="417"/>
      <point x="147" y="185"/>
      <point x="45" y="-94" type="curve" smooth="yes"/>
    </contour>
  </outline>
</glyph>
<glyph name="zero" format="1">
  <advance width="520"/>
  <unicode hex="0030"/>
  <outline>
    <contour>
      <point x="261" y="-7" type="curve" smooth="yes"/>
      <point x="402" y="-7"/>
      <point x="497" y="140"/>
      <point x="497" y="317" type="curve" smooth="yes"/>
      <point x="497" y="494"/>
      <point x="402" y="640"/>
      <point x="261" y="640" type="curve" smooth="yes"/>
      <point x="121" y="640"/>
      <point x="25" y="494"/>
      <point x="25" y="317" type="curve" smooth="yes"/>
      <point x="25" y="140"/>
      <point x="120" y="-7"/>
    </contour>
    <contour>
      <point x="261" y="47" type="curve" smooth="yes"/>
      <point x="207" y="47"/>
      <point x="155" y="148"/>
      <point x="155" y="317" type="curve" smooth="yes"/>
      <point x="155" y="486"/>
      <point x="207" y="587"/>
      <point x="261" y="587" type="curve" smooth="yes"/>
      <point x="315" y="587"/>
      <point x="367" y="486"/>
      <point x="367" y="317" type="curve" smooth="yes"/>
      <point x="367" y="148"/>
      <point x="315" y="47"/>
    </contour>
  </outline>
</glyph>
<glyph name="one" format="1">
  <advance width="520"/>
  <unicode hex="0031"/>
  <outline>
    <contour>
      <point x="355" y="30" type="curve"/>
      <point x="362" y="30" type="line"/>
      <point x="362" y="0" type="line"/>
      <point x="164" y="0" type="line"/>
      <point x="164" y="30" type="line"/>
      <point x="171" y="30" type="line"/>
      <point x="191" y="30"/>
      <point x="200" y="43"/>
      <point x="200" y="54" type="curve"/>
      <point x="200" y="501" type="line"/>
      <point x="200" y="519"/>
      <point x="199" y="541"/>
      <point x="188" y="541" type="curve" smooth="yes"/>
      <point x="177" y="541"/>
      <point x="164" y="536"/>
      <point x="159" y="533" type="curve"/>
      <point x="159" y="572" type="line"/>
      <point x="196" y="586"/>
      <point x="258" y="613"/>
      <point x="290" y="637" type="curve" smooth="yes"/>
      <point x="294" y="640"/>
      <point x="301" y="644"/>
      <point x="308" y="644" type="curve" smooth="yes"/>
      <point x="318" y="644"/>
      <point x="326" y="638"/>
      <point x="326" y="627" type="curve"/>
      <point x="326" y="54" type="line"/>
      <point x="326" y="42"/>
      <point x="336" y="30"/>
    </contour>
  </outline>
</glyph>
<glyph name="two" format="1">
  <advance width="520"/>
  <unicode hex="0032"/>
  <outline>
    <contour>
      <point x="114" y="508" type="curve"/>
      <point x="96" y="532" type="line"/>
      <point x="99" y="542"/>
      <point x="132" y="642"/>
      <point x="275" y="642" type="curve" smooth="yes"/>
      <point x="401" y="642"/>
      <point x="472" y="593"/>
      <point x="472" y="510" type="curve" smooth="yes"/>
      <point x="472" y="450"/>
      <point x="432" y="386"/>
      <point x="352" y="280" type="curve" smooth="yes"/>
      <point x="287" y="194"/>
      <point x="228" y="107"/>
      <point x="202" y="68" type="curve"/>
      <point x="359" y="68" type="line" smooth="yes"/>
      <point x="407" y="68"/>
      <point x="432" y="86"/>
      <point x="441" y="115" type="curve" smooth="yes"/>
      <point x="443" y="121" type="line"/>
      <point x="469" y="116" type="line"/>
      <point x="426" y="0" type="line"/>
      <point x="51" y="0" type="line"/>
      <point x="51" y="43" type="line"/>
      <point x="154" y="162"/>
      <point x="223" y="262"/>
      <point x="279" y="344" type="curve" smooth="yes"/>
      <point x="313" y="394"/>
      <point x="346" y="451"/>
      <point x="346" y="491" type="curve" smooth="yes"/>
      <point x="346" y="546"/>
      <point x="314" y="587"/>
      <point x="251" y="587" type="curve" smooth="yes"/>
      <point x="197" y="587"/>
      <point x="146" y="549"/>
    </contour>
  </outline>
</glyph>
<glyph name="three" format="1">
  <advance width="520"/>
  <unicode hex="0033"/>
  <outline>
    <contour>
      <point x="210" y="-7" type="curve" smooth="yes"/>
      <point x="365" y="-7"/>
      <point x="482" y="72"/>
      <point x="482" y="198" type="curve" smooth="yes"/>
      <point x="482" y="297"/>
      <point x="370" y="371"/>
      <point x="274" y="380" type="curve"/>
      <point x="285" y="388"/>
      <point x="296" y="396"/>
      <point x="309" y="405" type="curve" smooth="yes"/>
      <point x="366" y="444"/>
      <point x="430" y="489"/>
      <point x="430" y="537" type="curve" smooth="yes"/>
      <point x="430" y="600"/>
      <point x="355" y="640"/>
      <point x="254" y="640" type="curve" smooth="yes"/>
      <point x="137" y="640"/>
      <point x="53" y="533"/>
      <point x="51" y="529" type="curve"/>
      <point x="81" y="506" type="line"/>
      <point x="115" y="550"/>
      <point x="168" y="584"/>
      <point x="222" y="584" type="curve" smooth="yes"/>
      <point x="270" y="584"/>
      <point x="296" y="562"/>
      <point x="296" y="516" type="curve" smooth="yes"/>
      <point x="296" y="443"/>
      <point x="117" y="316"/>
      <point x="109" y="311" type="curve" smooth="yes"/>
      <point x="105" y="308"/>
      <point x="101" y="302"/>
      <point x="101" y="297" type="curve" smooth="yes"/>
      <point x="101" y="287"/>
      <point x="109" y="282"/>
      <point x="118" y="282" type="curve" smooth="yes"/>
      <point x="123" y="282"/>
      <point x="133" y="286"/>
      <point x="145" y="291" type="curve" smooth="yes"/>
      <point x="166" y="300"/>
      <point x="194" y="311"/>
      <point x="218" y="311" type="curve" smooth="yes"/>
      <point x="282" y="311"/>
      <point x="358" y="270"/>
      <point x="358" y="173" type="curve" smooth="yes"/>
      <point x="358" y="92"/>
      <point x="297" y="29"/>
      <point x="218" y="29" type="curve" smooth="yes"/>
      <point x="175" y="29"/>
      <point x="127" y="59"/>
      <point x="108" y="74" type="curve" smooth="yes"/>
      <point x="99" y="81"/>
      <point x="83" y="92"/>
      <point x="70" y="92" type="curve" smooth="yes"/>
      <point x="53" y="92"/>
      <point x="43" y="76"/>
      <point x="43" y="62" type="curve" smooth="yes"/>
      <point x="43" y="12"/>
      <point x="143" y="-7"/>
    </contour>
  </outline>
</glyph>
<glyph name="four" format="1">
  <advance width="520"/>
  <unicode hex="0034"/>
  <outline>
    <contour>
      <point x="287" y="0" type="curve"/>
      <point x="386" y="0" type="line"/>
      <point x="396" y="0"/>
      <point x="399" y="9"/>
      <point x="399" y="15" type="curve"/>
      <point x="399" y="286" type="line"/>
      <point x="401" y="293" type="line"/>
      <point x="401" y="617" type="line" smooth="yes"/>
      <point x="401" y="635"/>
      <point x="385" y="642"/>
      <point x="372" y="642" type="curve" smooth="yes"/>
      <point x="359" y="642"/>
      <point x="319" y="641"/>
      <point x="306" y="638" type="curve" smooth="yes"/>
      <point x="302" y="637"/>
      <point x="246" y="566"/>
      <point x="183" y="484" type="curve" smooth="yes"/>
      <point x="133" y="419"/>
      <point x="78" y="350"/>
      <point x="38" y="301" type="curve"/>
      <point x="34" y="297"/>
      <point x="32" y="291"/>
      <point x="32" y="285" type="curve" smooth="yes"/>
      <point x="32" y="276"/>
      <point x="40" y="271"/>
      <point x="47" y="271" type="curve"/>
      <point x="288" y="271" type="line"/>
      <point x="288" y="329" type="line"/>
      <point x="149" y="329" type="line"/>
      <point x="202" y="389"/>
      <point x="236" y="437"/>
      <point x="294" y="519" type="curve"/>
      <point x="273" y="534" type="line"/>
      <point x="273" y="305" type="line"/>
      <point x="272" y="298" type="line"/>
      <point x="272" y="13" type="line"/>
      <point x="272" y="7"/>
      <point x="277" y="0"/>
    </contour>
    <contour>
      <point x="384" y="271" type="line"/>
      <point x="473" y="271" type="line"/>
      <point x="472" y="279"/>
      <point x="471" y="288"/>
      <point x="471" y="299" type="curve" smooth="yes"/>
      <point x="471" y="308"/>
      <point x="472" y="327"/>
      <point x="475" y="338" type="curve"/>
      <point x="446" y="331"/>
      <point x="437" y="329"/>
      <point x="375" y="329" type="curve"/>
    </contour>
  </outline>
</glyph>
<glyph name="five" format="1">
  <advance width="520"/>
  <unicode hex="0035"/>
  <outline>
    <contour>
      <point x="242" y="-5" type="curve" smooth="yes"/>
      <point x="376" y="-5"/>
      <point x="495" y="90"/>
      <point x="495" y="210" type="curve" smooth="yes"/>
      <point x="495" y="346"/>
      <point x="399" y="420"/>
      <point x="279" y="420" type="curve" smooth="yes"/>
      <point x="223" y="420"/>
      <point x="185" y="409"/>
      <point x="123" y="375" type="curve"/>
      <point x="145" y="348" type="line"/>
      <point x="206" y="588" type="line"/>
      <point x="150" y="544" type="line"/>
      <point x="446" y="544" type="line"/>
      <point x="452" y="559"/>
      <point x="466" y="595"/>
      <point x="466" y="604" type="curve" smooth="yes"/>
      <point x="466" y="616"/>
      <point x="454" y="618"/>
      <point x="447" y="618" type="curve" smooth="yes"/>
      <point x="439" y="618"/>
      <point x="427" y="616"/>
      <point x="421" y="615" type="curve" smooth="yes"/>
      <point x="409" y="613"/>
      <point x="397" y="611"/>
      <point x="385" y="611" type="curve" smooth="yes"/>
      <point x="132" y="611" type="line"/>
      <point x="48" y="254" type="line"/>
      <point x="105" y="290"/>
      <point x="193" y="312"/>
      <point x="243" y="312" type="curve" smooth="yes"/>
      <point x="328" y="312"/>
      <point x="373" y="249"/>
      <point x="373" y="190" type="curve" smooth="yes"/>
      <point x="373" y="134"/>
      <point x="323" y="43"/>
      <point x="234" y="43" type="curve" smooth="yes"/>
      <point x="193" y="43"/>
      <point x="129" y="52"/>
      <point x="100" y="82" type="curve" smooth="yes"/>
      <point x="96" y="86"/>
      <point x="91" y="88"/>
      <point x="86" y="88" type="curve" smooth="yes"/>
      <point x="78" y="88"/>
      <point x="69" y="82"/>
      <point x="69" y="71" type="curve" smooth="yes"/>
      <point x="69" y="67"/>
      <point x="73" y="59"/>
      <point x="76" y="55" type="curve"/>
      <point x="127" y="3"/>
      <point x="194" y="-5"/>
    </contour>
  </outline>
</glyph>
<glyph name="six" format="1">
  <advance width="520"/>
  <unicode hex="0036"/>
  <outline>
    <contour>
      <point x="268" y="-8" type="curve" smooth="yes"/>
      <point x="402" y="-8"/>
      <point x="507" y="85"/>
      <point x="507" y="207" type="curve" smooth="yes"/>
      <point x="507" y="364"/>
      <point x="395" y="399"/>
      <point x="307" y="399" type="curve" smooth="yes"/>
      <point x="249" y="399"/>
      <point x="204" y="358"/>
      <point x="184" y="331" type="curve"/>
      <point x="181" y="327"/>
      <point x="180" y="323"/>
      <point x="180" y="318" type="curve" smooth="yes"/>
      <point x="180" y="313"/>
      <point x="182" y="303"/>
      <point x="192" y="303" type="curve" smooth="yes"/>
      <point x="196" y="303"/>
      <point x="201" y="305"/>
      <point x="206" y="310" type="curve"/>
      <point x="226" y="330"/>
      <point x="254" y="339"/>
      <point x="284" y="339" type="curve" smooth="yes"/>
      <point x="342" y="339"/>
      <point x="390" y="291"/>
      <point x="390" y="195" type="curve" smooth="yes"/>
      <point x="390" y="100"/>
      <point x="357" y="31"/>
      <point x="282" y="31" type="curve" smooth="yes"/>
      <point x="205" y="31"/>
      <point x="145" y="170"/>
      <point x="145" y="260" type="curve" smooth="yes"/>
      <point x="145" y="359"/>
      <point x="182" y="462"/>
      <point x="267" y="524" type="curve" smooth="yes"/>
      <point x="317" y="560"/>
      <point x="370" y="578"/>
      <point x="405" y="587" type="curve" smooth="yes"/>
      <point x="415" y="590"/>
      <point x="425" y="597"/>
      <point x="425" y="604" type="curve" smooth="yes"/>
      <point x="425" y="614"/>
      <point x="420" y="628"/>
      <point x="416" y="638" type="curve"/>
      <point x="349" y="628"/>
      <point x="240" y="590"/>
      <point x="192" y="556" type="curve" smooth="yes"/>
      <point x="121" y="505"/>
      <point x="28" y="410"/>
      <point x="28" y="252" type="curve" smooth="yes"/>
      <point x="28" y="115"/>
      <point x="116" y="-8"/>
    </contour>
  </outline>
</glyph>
<glyph name="seven" format="1">
  <advance width="520"/>
  <unicode hex="0037"/>
  <outline>
    <contour>
      <point x="78" y="0" type="curve"/>
      <point x="204" y="0" type="line"/>
      <point x="232" y="169"/>
      <point x="337" y="409"/>
      <point x="461" y="595" type="curve" smooth="yes"/>
      <point x="465" y="601" type="line"/>
      <point x="468" y="605"/>
      <point x="471" y="611"/>
      <point x="471" y="614" type="curve" smooth="yes"/>
      <point x="471" y="619"/>
      <point x="466" y="622"/>
      <point x="454" y="622" type="curve" smooth="yes"/>
      <point x="86" y="622" type="line" smooth="yes"/>
      <point x="76" y="622"/>
      <point x="74" y="617"/>
      <point x="73" y="608" type="curve" smooth="yes"/>
      <point x="71" y="592"/>
      <point x="65" y="557"/>
      <point x="63" y="546" type="curve" smooth="yes"/>
      <point x="62" y="539" type="line" smooth="yes"/>
      <point x="62" y="536"/>
      <point x="66" y="532"/>
      <point x="72" y="532" type="curve" smooth="yes"/>
      <point x="77" y="532" type="line"/>
      <point x="79" y="536"/>
      <point x="85" y="548"/>
      <point x="101" y="548" type="curve" smooth="yes"/>
      <point x="334" y="548" type="line"/>
      <point x="222" y="398"/>
      <point x="103" y="165"/>
    </contour>
  </outline>
</glyph>
<glyph name="eight" format="1">
  <advance width="520"/>
  <unicode hex="0038"/>
  <outline>
    <contour>
      <point x="267" y="-8" type="curve" smooth="yes"/>
      <point x="386" y="-8"/>
      <point x="484" y="56"/>
      <point x="484" y="147" type="curve" smooth="yes"/>
      <point x="484" y="257"/>
      <point x="421" y="307"/>
      <point x="338" y="366" type="curve"/>
      <point x="373" y="389"/>
      <point x="452" y="441"/>
      <point x="452" y="508" type="curve" smooth="yes"/>
      <point x="452" y="598"/>
      <point x="357" y="643"/>
      <point x="268" y="643" type="curve" smooth="yes"/>
      <point x="131" y="643"/>
      <point x="78" y="563"/>
      <point x="78" y="510" type="curve" smooth="yes"/>
      <point x="78" y="420"/>
      <point x="120" y="385"/>
      <point x="178" y="340" type="curve"/>
      <point x="100" y="281"/>
      <point x="46" y="239"/>
      <point x="46" y="150" type="curve" smooth="yes"/>
      <point x="46" y="41"/>
      <point x="168" y="-8"/>
    </contour>
    <contour>
      <point x="274" y="30" type="curve" smooth="yes"/>
      <point x="218" y="30"/>
      <point x="174" y="83"/>
      <point x="174" y="156" type="curve" smooth="yes"/>
      <point x="174" y="208"/>
      <point x="199" y="257"/>
      <point x="249" y="303" type="curve"/>
      <point x="301" y="269"/>
      <point x="361" y="204"/>
      <point x="361" y="149" type="curve" smooth="yes"/>
      <point x="361" y="99"/>
      <point x="329" y="30"/>
    </contour>
    <contour>
      <point x="273" y="412" type="curve"/>
      <point x="233" y="435"/>
      <point x="203" y="475"/>
      <point x="203" y="514" type="curve" smooth="yes"/>
      <point x="203" y="557"/>
      <point x="223" y="609"/>
      <point x="268" y="609" type="curve" smooth="yes"/>
      <point x="313" y="609"/>
      <point x="340" y="580"/>
      <point x="340" y="516" type="curve" smooth="yes"/>
      <point x="340" y="472"/>
      <point x="303" y="435"/>
    </contour>
  </outline>
</glyph>
<glyph name="nine" format="1">
  <advance width="520"/>
  <unicode hex="0039"/>
  <outline>
    <contour>
      <point x="125" y="-10" type="curve"/>
      <point x="193" y="3"/>
      <point x="269" y="40"/>
      <point x="316" y="74" type="curve" smooth="yes"/>
      <point x="385" y="124"/>
      <point x="491" y="201"/>
      <point x="491" y="380" type="curve" smooth="yes"/>
      <point x="491" y="553"/>
      <point x="392" y="641"/>
      <point x="249" y="641" type="curve" smooth="yes"/>
      <point x="142" y="641"/>
      <point x="38" y="559"/>
      <point x="38" y="445" type="curve" smooth="yes"/>
      <point x="38" y="299"/>
      <point x="144" y="246"/>
      <point x="228" y="246" type="curve" smooth="yes"/>
      <point x="266" y="246"/>
      <point x="309" y="259"/>
      <point x="335" y="297" type="curve" smooth="yes"/>
      <point x="339" y="303"/>
      <point x="342" y="312"/>
      <point x="342" y="317" type="curve" smooth="yes"/>
      <point x="342" y="324"/>
      <point x="335" y="329"/>
      <point x="329" y="329" type="curve" smooth="yes"/>
      <point x="324" y="329"/>
      <point x="319" y="326"/>
      <point x="315" y="322" type="curve"/>
      <point x="314" y="321" type="line" smooth="yes"/>
      <point x="306" y="312"/>
      <point x="288" y="301"/>
      <point x="252" y="301" type="curve" smooth="yes"/>
      <point x="204" y="301"/>
      <point x="158" y="374"/>
      <point x="158" y="457" type="curve" smooth="yes"/>
      <point x="158" y="546"/>
      <point x="206" y="602"/>
      <point x="248" y="602" type="curve" smooth="yes"/>
      <point x="316" y="602"/>
      <point x="376" y="520"/>
      <point x="376" y="387" type="curve" smooth="yes"/>
      <point x="376" y="257"/>
      <point x="355" y="169"/>
      <point x="261" y="104" type="curve" smooth="yes"/>
      <point x="210" y="68"/>
      <point x="165" y="44"/>
      <point x="134" y="34" type="curve" smooth="yes"/>
      <point x="125" y="31"/>
      <point x="120" y="19"/>
      <point x="120" y="12" type="curve" smooth="yes"/>
      <point x="120" y="5"/>
      <point x="123" y="-5"/>
    </contour>
  </outline>
</glyph>
<glyph name="less" format="1">
  <advance width="502"/>
  <unicode hex="003C"/>
  <outline>
    <contour>
      <point x="452" y="62" type="line"/>
      <point x="452" y="166" type="line"/>
      <point x="139" y="346" type="line"/>
      <point x="139" y="302" type="line"/>
      <point x="452" y="482" type="line"/>
      <point x="452" y="582" type="line"/>
      <point x="50" y="354" type="line"/>
      <point x="50" y="290" type="line"/>
    </contour>
  </outline>
</glyph>
<glyph name="equal" format="1">
  <advance width="424"/>
  <unicode hex="003D"/>
  <outline>
    <contour>
      <point x="88" y="320" type="curve"/>
      <point x="337" y="320" type="line"/>
      <point x="351" y="320"/>
      <point x="354" y="346"/>
      <point x="354" y="363" type="curve" smooth="yes"/>
      <point x="354" y="381"/>
      <point x="352" y="408"/>
      <point x="337" y="408" type="curve"/>
      <point x="88" y="408" type="line"/>
      <point x="74" y="408"/>
      <point x="70" y="386"/>
      <point x="70" y="366" type="curve" smooth="yes"/>
      <point x="70" y="345"/>
      <point x="74" y="320"/>
    </contour>
    <contour>
      <point x="88" y="185" type="curve"/>
      <point x="337" y="185" type="line"/>
      <point x="351" y="185"/>
      <point x="354" y="211"/>
      <point x="354" y="228" type="curve" smooth="yes"/>
      <point x="354" y="246"/>
      <point x="352" y="273"/>
      <point x="337" y="273" type="curve"/>
      <point x="88" y="273" type="line"/>
      <point x="74" y="273"/>
      <point x="70" y="251"/>
      <point x="70" y="231" type="curve" smooth="yes"/>
      <point x="70" y="210"/>
      <point x="74" y="185"/>
    </contour>
  </outline>
</glyph>
<glyph name="greater" format="1">
  <advance width="502"/>
  <unicode hex="003E"/>
  <outline>
    <contour>
      <point x="363" y="302" type="line"/>
      <point x="50" y="482" type="line"/>
      <point x="50" y="582" type="line"/>
      <point x="452" y="354" type="line"/>
      <point x="452" y="290" type="line"/>
      <point x="50" y="62" type="line"/>
      <point x="50" y="166" type="line"/>
      <point x="363" y="346" type="line"/>
    </contour>
  </outline>
</glyph>
<glyph name="question" format="1">
  <advance width="483"/>
  <unicode hex="003F"/>
  <outline>
    <contour>
      <point x="185" y="193" type="curve"/>
      <point x="275" y="193" type="line"/>
      <point x="282" y="349" type="line"/>
      <point x="283" y="369"/>
      <point x="327" y="404"/>
      <point x="363" y="430" type="curve" smooth="yes"/>
      <point x="420" y="471"/>
      <point x="446" y="510"/>
      <point x="446" y="569" type="curve" smooth="yes"/>
      <point x="446" y="683"/>
      <point x="331" y="742"/>
      <point x="243" y="742" type="curve" smooth="yes"/>
      <point x="166" y="742"/>
      <point x="52" y="694"/>
      <point x="52" y="625" type="curve" smooth="yes"/>
      <point x="52" y="597"/>
      <point x="78" y="571"/>
      <point x="105" y="571" type="curve" smooth="yes"/>
      <point x="130" y="571"/>
      <point x="155" y="595"/>
      <point x="161" y="626" type="curve" smooth="yes"/>
      <point x="165" y="645"/>
      <point x="189" y="685"/>
      <point x="239" y="685" type="curve" smooth="yes"/>
      <point x="300" y="685"/>
      <point x="336" y="655"/>
      <point x="336" y="593" type="curve" smooth="yes"/>
      <point x="336" y="536"/>
      <point x="309" y="511"/>
      <point x="260" y="470" type="curve" smooth="yes"/>
      <point x="216" y="433"/>
      <point x="166" y="375"/>
      <point x="166" y="341" type="curve" smooth="yes"/>
      <point x="166" y="289"/>
      <point x="174" y="243"/>
    </contour>
    <component base="period" xOffset="124"/>
  </outline>
</glyph>
<glyph name="at" format="1">
  <advance width="856"/>
  <unicode hex="0040"/>
  <outline>
    <contour>
      <point x="451" y="-67" type="curve" smooth="yes"/>
      <point x="593" y="-67"/>
      <point x="674" y="-10"/>
      <point x="708" y="24" type="curve" smooth="yes"/>
      <point x="711" y="27"/>
      <point x="713" y="29"/>
      <point x="713" y="33" type="curve" smooth="yes"/>
      <point x="713" y="40"/>
      <point x="702" y="50"/>
      <point x="697" y="50" type="curve" smooth="yes"/>
      <point x="694" y="50" type="line"/>
      <point x="692" y="48" type="line" smooth="yes"/>
      <point x="660" y="19"/>
      <point x="564" y="-17"/>
      <point x="451" y="-17" type="curve" smooth="yes"/>
      <point x="341" y="-17"/>
      <point x="177" y="38"/>
      <point x="177" y="211" type="curve" smooth="yes"/>
      <point x="177" y="374"/>
      <point x="322" y="464"/>
      <point x="465" y="464" type="curve" smooth="yes"/>
      <point x="611" y="464"/>
      <point x="698" y="396"/>
      <point x="698" y="253" type="curve" smooth="yes"/>
      <point x="698" y="181"/>
      <point x="665" y="105"/>
      <point x="619" y="105" type="curve" smooth="yes"/>
      <point x="592" y="105"/>
      <point x="581" y="118"/>
      <point x="579" y="131" type="curve"/>
      <point x="611" y="294" type="line"/>
      <point x="617" y="327"/>
      <point x="621" y="344"/>
      <point x="626" y="362" type="curve" smooth="yes"/>
      <point x="628" y="367" type="line"/>
      <point x="625" y="370" type="line" smooth="yes"/>
      <point x="618" y="377"/>
      <point x="584" y="383"/>
      <point x="570" y="383" type="curve" smooth="yes"/>
      <point x="567" y="383" type="line"/>
      <point x="565" y="381" type="line" smooth="yes"/>
      <point x="562" y="377"/>
      <point x="554" y="371"/>
      <point x="547" y="371" type="curve" smooth="yes"/>
      <point x="545" y="371"/>
      <point x="539" y="373"/>
      <point x="532" y="376" type="curve" smooth="yes"/>
      <point x="516" y="382"/>
      <point x="492" y="390"/>
      <point x="472" y="390" type="curve" smooth="yes"/>
      <point x="372" y="390"/>
      <point x="237" y="345"/>
      <point x="237" y="190" type="curve" smooth="yes"/>
      <point x="237" y="107"/>
      <point x="315" y="56"/>
      <point x="394" y="56" type="curve" smooth="yes"/>
      <point x="435" y="56"/>
      <point x="464" y="74"/>
      <point x="480" y="84" type="curve" smooth="yes"/>
      <point x="486" y="88"/>
      <point x="490" y="90"/>
      <point x="493" y="91" type="curve"/>
      <point x="496" y="86"/>
      <point x="528" y="60"/>
      <point x="559" y="60" type="curve" smooth="yes"/>
      <point x="687" y="60"/>
      <point x="799" y="144"/>
      <point x="799" y="256" type="curve" smooth="yes"/>
      <point x="799" y="419"/>
      <point x="627" y="510"/>
      <point x="482" y="510" type="curve" smooth="yes"/>
      <point x="266" y="510"/>
      <point x="59" y="382"/>
      <point x="59" y="211" type="curve" smooth="yes"/>
      <point x="59" y="1"/>
      <point x="325" y="-67"/>
    </contour>
    <contour>
      <point x="421" y="110" type="curve" smooth="yes"/>
      <point x="371" y="110"/>
      <point x="357" y="163"/>
      <point x="357" y="199" type="curve" smooth="yes"/>
      <point x="357" y="277"/>
      <point x="415" y="344"/>
      <point x="463" y="344" type="curve" smooth="yes"/>
      <point x="496" y="344"/>
      <point x="514" y="323"/>
      <point x="514" y="299" type="curve"/>
      <point x="482" y="159" type="line"/>
      <point x="477" y="135"/>
      <point x="457" y="110"/>
    </contour>
  </outline>
</glyph>
<glyph name="A" format="1">
  <advance width="825"/>
  <unicode hex="0041"/>
  <outline>
    <contour>
      <point x="50" y="0" type="curve"/>
      <point x="222" y="0" type="line"/>
      <point x="224" y="3"/>
      <point x="226" y="9"/>
      <point x="226" y="15" type="curve" smooth="yes"/>
      <point x="226" y="22"/>
      <point x="224" y="27"/>
      <point x="222" y="30" type="curve"/>
      <point x="215" y="30" type="line" smooth="yes"/>
      <point x="195" y="30"/>
      <point x="180" y="43"/>
      <point x="180" y="62" type="curve" smooth="yes"/>
      <point x="180" y="68"/>
      <point x="182" y="77"/>
      <point x="188" y="90" type="curve"/>
      <point x="275" y="291" type="line" smooth="yes"/>
      <point x="276" y="293"/>
      <point x="278" y="295"/>
      <point x="280" y="295" type="curve"/>
      <point x="474" y="295" type="line"/>
      <point x="569" y="85" type="line" smooth="yes"/>
      <point x="572" y="79"/>
      <point x="573" y="73"/>
      <point x="573" y="68" type="curve" smooth="yes"/>
      <point x="573" y="47"/>
      <point x="550" y="30"/>
      <point x="528" y="30" type="curve" smooth="yes"/>
      <point x="521" y="30" type="line"/>
      <point x="519" y="27"/>
      <point x="517" y="21"/>
      <point x="517" y="15" type="curve" smooth="yes"/>
      <point x="517" y="8"/>
      <point x="519" y="3"/>
      <point x="521" y="0" type="curve"/>
      <point x="762" y="0" type="line"/>
      <point x="763" y="3"/>
      <point x="765" y="9"/>
      <point x="765" y="15" type="curve" smooth="yes"/>
      <point x="765" y="22"/>
      <point x="764" y="26"/>
      <point x="762" y="30" type="curve"/>
      <point x="755" y="30" type="line" smooth="yes"/>
      <point x="736" y="30"/>
      <point x="723" y="45"/>
      <point x="716" y="60" type="curve"/>
      <point x="427" y="735" type="line"/>
      <point x="419" y="728" type="line" smooth="yes"/>
      <point x="413" y="723"/>
      <point x="407" y="720"/>
      <point x="400" y="718" type="curve" smooth="yes"/>
      <point x="392" y="716"/>
      <point x="386" y="713"/>
      <point x="380" y="709" type="curve"/>
      <point x="107" y="79" type="line"/>
      <point x="96" y="53"/>
      <point x="82" y="30"/>
      <point x="57" y="30" type="curve" smooth="yes"/>
      <point x="50" y="30" type="line"/>
      <point x="48" y="27"/>
      <point x="46" y="21"/>
      <point x="46" y="15" type="curve" smooth="yes"/>
      <point x="46" y="8"/>
      <point x="48" y="3"/>
    </contour>
    <contour>
      <point x="765" y="15" type="move" smooth="yes"/>
    </contour>
    <contour>
      <point x="299" y="348" type="line"/>
      <point x="397" y="574" type="line"/>
      <point x="362" y="574" type="line"/>
      <point x="453" y="348" type="line"/>
    </contour>
    <contour>
      <point x="407" y="-12" type="move" name="bottom"/>
    </contour>
    <contour>
      <point x="403" y="729" type="move" name="top"/>
    </contour>
  </outline>
</glyph>
<glyph name="B" format="1">
  <advance width="679"/>
  <unicode hex="0042"/>
  <outline>
    <contour>
      <point x="380" y="-2" type="curve" smooth="yes"/>
      <point x="502" y="-2"/>
      <point x="610" y="49"/>
      <point x="610" y="189" type="curve" smooth="yes"/>
      <point x="610" y="308"/>
      <point x="494" y="374"/>
      <point x="406" y="391" type="curve"/>
      <point x="487" y="416"/>
      <point x="569" y="472"/>
      <point x="569" y="550" type="curve" smooth="yes"/>
      <point x="569" y="658"/>
      <point x="466" y="734"/>
      <point x="314" y="734" type="curve" smooth="yes"/>
      <point x="269" y="734"/>
      <point x="216" y="733"/>
      <point x="166" y="731" type="curve" smooth="yes"/>
      <point x="141" y="730"/>
      <point x="118" y="730"/>
      <point x="97" y="730" type="curve" smooth="yes"/>
      <point x="93" y="730"/>
      <point x="86" y="730"/>
      <point x="79" y="730" type="curve" smooth="yes"/>
      <point x="73" y="730"/>
      <point x="68" y="730"/>
      <point x="64" y="730" type="curve"/>
      <point x="62" y="727"/>
      <point x="60" y="721"/>
      <point x="60" y="715" type="curve" smooth="yes"/>
      <point x="60" y="708"/>
      <point x="62" y="703"/>
      <point x="64" y="701" type="curve"/>
      <point x="97" y="701"/>
      <point x="115" y="685"/>
      <point x="116" y="661" type="curve" smooth="yes"/>
      <point x="119" y="575"/>
      <point x="120" y="489"/>
      <point x="120" y="402" type="curve" smooth="yes"/>
      <point x="120" y="287"/>
      <point x="120" y="181"/>
      <point x="116" y="65" type="curve" smooth="yes"/>
      <point x="115" y="43"/>
      <point x="87" y="31"/>
      <point x="64" y="30" type="curve"/>
      <point x="62" y="27"/>
      <point x="60" y="21"/>
      <point x="60" y="15" type="curve" smooth="yes"/>
      <point x="60" y="8"/>
      <point x="62" y="3"/>
      <point x="64" y="0" type="curve"/>
      <point x="151" y="0" type="line" smooth="yes"/>
      <point x="188" y="0"/>
      <point x="228" y="0"/>
      <point x="268" y="0" type="curve" smooth="yes"/>
      <point x="281" y="0"/>
      <point x="287" y="0"/>
      <point x="306" y="-1" type="curve" smooth="yes"/>
      <point x="331" y="-2"/>
      <point x="356" y="-2"/>
    </contour>
    <contour>
      <point x="137" y="0" type="move" smooth="yes"/>
    </contour>
    <contour>
      <point x="275" y="38" type="curve"/>
      <point x="266" y="38"/>
      <point x="259" y="49"/>
      <point x="259" y="67" type="curve" smooth="yes"/>
      <point x="259" y="668" type="line"/>
      <point x="259" y="676"/>
      <point x="261" y="686"/>
      <point x="270" y="688" type="curve" smooth="yes"/>
      <point x="275" y="689"/>
      <point x="301" y="690"/>
      <point x="312" y="690" type="curve" smooth="yes"/>
      <point x="372" y="690"/>
      <point x="434" y="628"/>
      <point x="434" y="549" type="curve" smooth="yes"/>
      <point x="434" y="462"/>
      <point x="361" y="401"/>
      <point x="300" y="401" type="curve" smooth="yes"/>
      <point x="284" y="401"/>
      <point x="265" y="401"/>
      <point x="248" y="403" type="curve"/>
      <point x="248" y="357" type="line"/>
      <point x="259" y="358"/>
      <point x="282" y="360"/>
      <point x="296" y="360" type="curve" smooth="yes"/>
      <point x="379" y="360"/>
      <point x="467" y="308"/>
      <point x="467" y="198" type="curve" smooth="yes"/>
      <point x="467" y="116"/>
      <point x="408" y="38"/>
      <point x="316" y="38" type="curve" smooth="yes"/>
      <point x="299" y="38"/>
      <point x="292" y="38"/>
    </contour>
  </outline>
</glyph>
<glyph name="C" format="1">
  <advance width="819"/>
  <unicode hex="0043"/>
  <outline>
    <contour>
      <point x="434" y="-10" type="curve" smooth="yes"/>
      <point x="674" y="-10"/>
      <point x="746" y="174"/>
      <point x="748" y="183" type="curve"/>
      <point x="701" y="198" type="line"/>
      <point x="695" y="183"/>
      <point x="617" y="46"/>
      <point x="462" y="46" type="curve" smooth="yes"/>
      <point x="389" y="46"/>
      <point x="218" y="83"/>
      <point x="218" y="385" type="curve" smooth="yes"/>
      <point x="218" y="510"/>
      <point x="280" y="691"/>
      <point x="439" y="691" type="curve" smooth="yes"/>
      <point x="612" y="691"/>
      <point x="685" y="561"/>
      <point x="710" y="462" type="curve" smooth="yes"/>
      <point x="712" y="454"/>
      <point x="719" y="452"/>
      <point x="724" y="452" type="curve" smooth="yes"/>
      <point x="730" y="452"/>
      <point x="736" y="459"/>
      <point x="737" y="464" type="curve"/>
      <point x="730" y="665" type="line" smooth="yes"/>
      <point x="730" y="677"/>
      <point x="722" y="683"/>
      <point x="716" y="683" type="curve" smooth="yes"/>
      <point x="708" y="683"/>
      <point x="704" y="677"/>
      <point x="700" y="671" type="curve" smooth="yes"/>
      <point x="696" y="664"/>
      <point x="691" y="657"/>
      <point x="681" y="657" type="curve" smooth="yes"/>
      <point x="674" y="657"/>
      <point x="663" y="663"/>
      <point x="647" y="675" type="curve" smooth="yes"/>
      <point x="612" y="701"/>
      <point x="553" y="742"/>
      <point x="453" y="742" type="curve" smooth="yes"/>
      <point x="183" y="742"/>
      <point x="65" y="552"/>
      <point x="65" y="352" type="curve" smooth="yes"/>
      <point x="65" y="54"/>
      <point x="315" y="-10"/>
    </contour>
  </outline>
</glyph>
<glyph name="D" format="1">
  <advance width="844"/>
  <unicode hex="0044"/>
  <outline>
    <contour>
      <point x="365" y="-3" type="curve" smooth="yes"/>
      <point x="599" y="-3"/>
      <point x="767" y="124"/>
      <point x="767" y="363" type="curve" smooth="yes"/>
      <point x="767" y="606"/>
      <point x="580" y="731"/>
      <point x="379" y="731" type="curve" smooth="yes"/>
      <point x="325" y="731"/>
      <point x="270" y="731"/>
      <point x="239" y="730" type="curve" smooth="yes"/>
      <point x="222" y="729"/>
      <point x="202" y="729"/>
      <point x="181" y="729" type="curve" smooth="yes"/>
      <point x="140" y="729"/>
      <point x="95" y="729"/>
      <point x="64" y="730" type="curve"/>
      <point x="62" y="727"/>
      <point x="60" y="721"/>
      <point x="60" y="715" type="curve" smooth="yes"/>
      <point x="60" y="708"/>
      <point x="62" y="703"/>
      <point x="64" y="701" type="curve"/>
      <point x="75" y="701"/>
      <point x="84" y="701"/>
      <point x="94" y="699" type="curve" smooth="yes"/>
      <point x="110" y="696"/>
      <point x="116" y="675"/>
      <point x="116" y="667" type="curve"/>
      <point x="119" y="574"/>
      <point x="119" y="493"/>
      <point x="119" y="401" type="curve" smooth="yes"/>
      <point x="119" y="285"/>
      <point x="119" y="153"/>
      <point x="116" y="64" type="curve"/>
      <point x="116" y="55"/>
      <point x="110" y="35"/>
      <point x="94" y="32" type="curve" smooth="yes"/>
      <point x="86" y="30"/>
      <point x="79" y="29"/>
      <point x="71" y="29" type="curve" smooth="yes"/>
      <point x="64" y="29" type="line"/>
      <point x="62" y="26"/>
      <point x="60" y="21"/>
      <point x="60" y="15" type="curve" smooth="yes"/>
      <point x="60" y="8"/>
      <point x="62" y="3"/>
      <point x="64" y="0" type="curve"/>
      <point x="223" y="0" type="line" smooth="yes"/>
      <point x="253" y="0"/>
      <point x="279" y="-1"/>
      <point x="303" y="-2" type="curve" smooth="yes"/>
      <point x="324" y="-3"/>
      <point x="344" y="-3"/>
    </contour>
    <contour>
      <point x="281" y="44" type="curve" smooth="yes"/>
      <point x="273" y="44"/>
      <point x="264" y="56"/>
      <point x="264" y="67" type="curve"/>
      <point x="264" y="675" type="line"/>
      <point x="264" y="678"/>
      <point x="265" y="682"/>
      <point x="269" y="682" type="curve"/>
      <point x="357" y="682" type="line"/>
      <point x="467" y="682"/>
      <point x="625" y="613"/>
      <point x="625" y="353" type="curve" smooth="yes"/>
      <point x="625" y="192"/>
      <point x="537" y="44"/>
      <point x="351" y="44" type="curve" smooth="yes"/>
      <point x="314" y="44"/>
      <point x="318" y="44"/>
    </contour>
    <contour>
      <point x="360" y="730" type="move" name="top"/>
    </contour>
  </outline>
</glyph>
<glyph name="E" format="1">
  <advance width="645"/>
  <unicode hex="0045"/>
  <outline>
    <contour>
      <point x="67" y="0" type="curve"/>
      <point x="559" y="0" type="line"/>
      <point x="578" y="165" type="line"/>
      <point x="548" y="163" type="line"/>
      <point x="535" y="101"/>
      <point x="513" y="60"/>
      <point x="451" y="46" type="curve" smooth="yes"/>
      <point x="407" y="36"/>
      <point x="395" y="35"/>
      <point x="329" y="35" type="curve" smooth="yes"/>
      <point x="311" y="35"/>
      <point x="300" y="36"/>
      <point x="281" y="38" type="curve" smooth="yes"/>
      <point x="264" y="40"/>
      <point x="259" y="58"/>
      <point x="258" y="71" type="curve" smooth="yes"/>
      <point x="254" y="167"/>
      <point x="253" y="288"/>
      <point x="253" y="397" type="curve" smooth="yes"/>
      <point x="253" y="486"/>
      <point x="255" y="575"/>
      <point x="258" y="664" type="curve" smooth="yes"/>
      <point x="258" y="671"/>
      <point x="265" y="690"/>
      <point x="280" y="692" type="curve" smooth="yes"/>
      <point x="300" y="695"/>
      <point x="308" y="695"/>
      <point x="329" y="695" type="curve" smooth="yes"/>
      <point x="359" y="695"/>
      <point x="381" y="694"/>
      <point x="414" y="684" type="curve" smooth="yes"/>
      <point x="478" y="665"/>
      <point x="501" y="629"/>
      <point x="514" y="567" type="curve"/>
      <point x="543" y="565" type="line"/>
      <point x="525" y="730" type="line"/>
      <point x="287" y="730" type="line" smooth="yes"/>
      <point x="209" y="730"/>
      <point x="137" y="730"/>
      <point x="67" y="730" type="curve"/>
      <point x="65" y="727"/>
      <point x="63" y="721"/>
      <point x="63" y="715" type="curve" smooth="yes"/>
      <point x="63" y="708"/>
      <point x="65" y="703"/>
      <point x="67" y="701" type="curve"/>
      <point x="78" y="701"/>
      <point x="86" y="701"/>
      <point x="96" y="699" type="curve" smooth="yes"/>
      <point x="112" y="696"/>
      <point x="119" y="675"/>
      <point x="119" y="666" type="curve" smooth="yes"/>
      <point x="121" y="628"/>
      <point x="121" y="532"/>
      <point x="121" y="410" type="curve" smooth="yes"/>
      <point x="121" y="249"/>
      <point x="120" y="83"/>
      <point x="119" y="66" type="curve" smooth="yes"/>
      <point x="118" y="56"/>
      <point x="116" y="41"/>
      <point x="102" y="36" type="curve" smooth="yes"/>
      <point x="91" y="32"/>
      <point x="80" y="31"/>
      <point x="67" y="31" type="curve"/>
      <point x="65" y="28"/>
      <point x="63" y="21"/>
      <point x="63" y="15" type="curve" smooth="yes"/>
      <point x="63" y="8"/>
      <point x="65" y="3"/>
    </contour>
    <contour>
      <point x="452" y="315" type="curve"/>
      <point x="480" y="315" type="line"/>
      <point x="480" y="474" type="line"/>
      <point x="453" y="474" type="line"/>
      <point x="453" y="471"/>
      <point x="452" y="457"/>
      <point x="450" y="445" type="curve" smooth="yes"/>
      <point x="447" y="430"/>
      <point x="432" y="422"/>
      <point x="419" y="420" type="curve" smooth="yes"/>
      <point x="389" y="416"/>
      <point x="364" y="415"/>
      <point x="325" y="415" type="curve" smooth="yes"/>
      <point x="289" y="415"/>
      <point x="238" y="418"/>
      <point x="208" y="424" type="curve"/>
      <point x="208" y="365" type="line"/>
      <point x="238" y="370"/>
      <point x="287" y="375"/>
      <point x="325" y="375" type="curve" smooth="yes"/>
      <point x="360" y="375"/>
      <point x="391" y="374"/>
      <point x="419" y="370" type="curve" smooth="yes"/>
      <point x="431" y="368"/>
      <point x="446" y="359"/>
      <point x="449" y="341" type="curve" smooth="yes"/>
      <point x="451" y="329"/>
      <point x="452" y="320"/>
    </contour>
    <contour>
      <point x="303" y="1" type="move" name="bottom"/>
    </contour>
    <contour>
      <point x="289" y="729" type="move" name="top"/>
    </contour>
  </outline>
</glyph>
<glyph name="F" format="1">
  <advance width="645"/>
  <unicode hex="0046"/>
  <outline>
    <contour>
      <point x="257" y="669" type="curve" smooth="yes"/>
      <point x="253" y="570"/>
      <point x="251" y="472"/>
      <point x="251" y="373" type="curve" smooth="yes"/>
      <point x="251" y="271"/>
      <point x="253" y="169"/>
      <point x="257" y="67" type="curve" smooth="yes"/>
      <point x="257" y="58"/>
      <point x="260" y="40"/>
      <point x="274" y="34" type="curve" smooth="yes"/>
      <point x="284" y="30"/>
      <point x="289" y="30"/>
      <point x="300" y="30" type="curve" smooth="yes"/>
      <point x="307" y="30" type="line"/>
      <point x="309" y="27"/>
      <point x="310" y="22"/>
      <point x="310" y="15" type="curve" smooth="yes"/>
      <point x="310" y="9"/>
      <point x="308" y="3"/>
      <point x="307" y="0" type="curve"/>
      <point x="68" y="0" type="line"/>
      <point x="66" y="3"/>
      <point x="64" y="8"/>
      <point x="64" y="15" type="curve" smooth="yes"/>
      <point x="64" y="21"/>
      <point x="66" y="27"/>
      <point x="68" y="30" type="curve"/>
      <point x="76" y="30" type="line" smooth="yes"/>
      <point x="84" y="30"/>
      <point x="89" y="31"/>
      <point x="96" y="33" type="curve" smooth="yes"/>
      <point x="112" y="38"/>
      <point x="118" y="54"/>
      <point x="119" y="63" type="curve" smooth="yes"/>
      <point x="122" y="81"/>
      <point x="122" y="239"/>
      <point x="122" y="395" type="curve" smooth="yes"/>
      <point x="122" y="491"/>
      <point x="122" y="606"/>
      <point x="120" y="666" type="curve" smooth="yes"/>
      <point x="120" y="676"/>
      <point x="112" y="694"/>
      <point x="96" y="698" type="curve" smooth="yes"/>
      <point x="85" y="701"/>
      <point x="81" y="701"/>
      <point x="68" y="701" type="curve"/>
      <point x="66" y="703"/>
      <point x="64" y="708"/>
      <point x="64" y="715" type="curve" smooth="yes"/>
      <point x="64" y="721"/>
      <point x="66" y="727"/>
      <point x="68" y="730" type="curve"/>
      <point x="563" y="730" type="line"/>
      <point x="582" y="566" type="line"/>
      <point x="552" y="568" type="line"/>
      <point x="539" y="629"/>
      <point x="517" y="669"/>
      <point x="455" y="684" type="curve" smooth="yes"/>
      <point x="413" y="694"/>
      <point x="374" y="695"/>
      <point x="312" y="695" type="curve"/>
      <point x="291" y="695"/>
      <point x="285" y="694"/>
      <point x="278" y="692" type="curve" smooth="yes"/>
      <point x="261" y="687"/>
      <point x="257" y="680"/>
    </contour>
    <contour>
      <point x="310" y="15" type="move" smooth="yes"/>
    </contour>
    <contour>
      <point x="241" y="349" type="curve"/>
      <point x="241" y="401" type="line"/>
      <point x="271" y="397"/>
      <point x="310" y="392"/>
      <point x="345" y="392" type="curve" smooth="yes"/>
      <point x="383" y="392"/>
      <point x="404" y="396"/>
      <point x="435" y="402" type="curve" smooth="yes"/>
      <point x="454" y="406"/>
      <point x="462" y="431"/>
      <point x="463" y="455" type="curve"/>
      <point x="480" y="455" type="line"/>
      <point x="480" y="295" type="line"/>
      <point x="463" y="295" type="line"/>
      <point x="459" y="318"/>
      <point x="454" y="346"/>
      <point x="431" y="349" type="curve" smooth="yes"/>
      <point x="397" y="354"/>
      <point x="377" y="355"/>
      <point x="341" y="355" type="curve" smooth="yes"/>
      <point x="303" y="355"/>
      <point x="270" y="352"/>
    </contour>
  </outline>
</glyph>
<glyph name="G" format="1">
  <advance width="815"/>
  <unicode hex="0047"/>
  <outline>
    <contour>
      <point x="565" y="280" type="curve"/>
      <point x="563" y="284"/>
      <point x="562" y="288"/>
      <point x="562" y="294" type="curve" smooth="yes"/>
      <point x="562" y="301"/>
      <point x="563" y="305"/>
      <point x="565" y="309" type="curve"/>
      <point x="788" y="309" type="line"/>
      <point x="790" y="305"/>
      <point x="791" y="301"/>
      <point x="791" y="294" type="curve" smooth="yes"/>
      <point x="791" y="288"/>
      <point x="790" y="284"/>
      <point x="788" y="280" type="curve"/>
      <point x="777" y="280"/>
      <point x="768" y="279"/>
      <point x="758" y="277" type="curve" smooth="yes"/>
      <point x="742" y="274"/>
      <point x="737" y="254"/>
      <point x="736" y="244" type="curve" smooth="yes"/>
      <point x="732" y="169" type="line"/>
      <point x="731" y="142"/>
      <point x="724" y="133"/>
      <point x="708" y="113" type="curve" smooth="yes"/>
      <point x="665" y="59"/>
      <point x="571" y="-10"/>
      <point x="429" y="-10" type="curve" smooth="yes"/>
      <point x="283" y="-10"/>
      <point x="55" y="53"/>
      <point x="55" y="352" type="curve" smooth="yes"/>
      <point x="55" y="552"/>
      <point x="173" y="742"/>
      <point x="442" y="742" type="curve" smooth="yes"/>
      <point x="542" y="742"/>
      <point x="600" y="703"/>
      <point x="633" y="676" type="curve" smooth="yes"/>
      <point x="648" y="664"/>
      <point x="659" y="658"/>
      <point x="666" y="658" type="curve" smooth="yes"/>
      <point x="674" y="658"/>
      <point x="681" y="666"/>
      <point x="687" y="673" type="curve" smooth="yes"/>
      <point x="692" y="679"/>
      <point x="697" y="685"/>
      <point x="705" y="685" type="curve" smooth="yes"/>
      <point x="712" y="685"/>
      <point x="720" y="675"/>
      <point x="720" y="666" type="curve"/>
      <point x="727" y="466" type="line"/>
      <point x="727" y="460"/>
      <point x="718" y="452"/>
      <point x="711" y="452" type="curve" smooth="yes"/>
      <point x="706" y="452"/>
      <point x="697" y="455"/>
      <point x="695" y="463" type="curve" smooth="yes"/>
      <point x="670" y="562"/>
      <point x="605" y="691"/>
      <point x="435" y="691" type="curve" smooth="yes"/>
      <point x="264" y="691"/>
      <point x="208" y="510"/>
      <point x="208" y="385" type="curve" smooth="yes"/>
      <point x="208" y="73"/>
      <point x="380" y="46"/>
      <point x="445" y="46" type="curve" smooth="yes"/>
      <point x="537" y="46"/>
      <point x="619" y="118"/>
      <point x="621" y="172" type="curve"/>
      <point x="618" y="245" type="line" smooth="yes"/>
      <point x="618" y="254"/>
      <point x="612" y="272"/>
      <point x="596" y="277" type="curve" smooth="yes"/>
      <point x="586" y="280"/>
      <point x="575" y="280"/>
    </contour>
    <contour>
      <point x="562" y="294" type="move" smooth="yes"/>
    </contour>
    <contour>
      <point x="791" y="294" type="move" smooth="yes"/>
    </contour>
  </outline>
</glyph>
<glyph name="H" format="1">
  <advance width="857"/>
  <unicode hex="0048"/>
  <outline>
    <contour>
      <point x="64" y="0" type="curve"/>
      <point x="315" y="0" type="line"/>
      <point x="317" y="3"/>
      <point x="319" y="9"/>
      <point x="319" y="15" type="curve" smooth="yes"/>
      <point x="319" y="22"/>
      <point x="317" y="27"/>
      <point x="315" y="29" type="curve"/>
      <point x="304" y="29"/>
      <point x="298" y="30"/>
      <point x="288" y="32" type="curve" smooth="yes"/>
      <point x="273" y="35"/>
      <point x="263" y="53"/>
      <point x="263" y="63" type="curve" smooth="yes"/>
      <point x="260" y="133"/>
      <point x="260" y="190"/>
      <point x="260" y="260" type="curve" smooth="yes"/>
      <point x="260" y="296"/>
      <point x="260" y="335"/>
      <point x="260" y="370" type="curve" smooth="yes"/>
      <point x="260" y="372"/>
      <point x="262" y="373"/>
      <point x="264" y="373" type="curve" smooth="yes"/>
      <point x="294" y="374"/>
      <point x="363" y="374"/>
      <point x="427" y="374" type="curve" smooth="yes"/>
      <point x="494" y="374"/>
      <point x="559" y="374"/>
      <point x="587" y="373" type="curve" smooth="yes"/>
      <point x="589" y="373"/>
      <point x="592" y="372"/>
      <point x="592" y="370" type="curve"/>
      <point x="592" y="63" type="line"/>
      <point x="592" y="54"/>
      <point x="583" y="36"/>
      <point x="567" y="32" type="curve" smooth="yes"/>
      <point x="558" y="30"/>
      <point x="550" y="29"/>
      <point x="539" y="29" type="curve"/>
      <point x="537" y="26"/>
      <point x="535" y="21"/>
      <point x="535" y="15" type="curve" smooth="yes"/>
      <point x="535" y="9"/>
      <point x="537" y="3"/>
      <point x="539" y="0" type="curve"/>
      <point x="791" y="0" type="line"/>
      <point x="793" y="3"/>
      <point x="795" y="9"/>
      <point x="795" y="15" type="curve" smooth="yes"/>
      <point x="795" y="22"/>
      <point x="793" y="27"/>
      <point x="791" y="30" type="curve"/>
      <point x="781" y="30"/>
      <point x="772" y="30"/>
      <point x="763" y="32" type="curve" smooth="yes"/>
      <point x="747" y="36"/>
      <point x="738" y="55"/>
      <point x="738" y="64" type="curve" smooth="yes"/>
      <point x="735" y="153"/>
      <point x="735" y="285"/>
      <point x="735" y="400" type="curve" smooth="yes"/>
      <point x="735" y="493"/>
      <point x="735" y="589"/>
      <point x="738" y="667" type="curve" smooth="yes"/>
      <point x="738" y="678"/>
      <point x="748" y="696"/>
      <point x="764" y="699" type="curve" smooth="yes"/>
      <point x="774" y="701"/>
      <point x="781" y="701"/>
      <point x="791" y="701" type="curve"/>
      <point x="793" y="704"/>
      <point x="795" y="710"/>
      <point x="795" y="716" type="curve" smooth="yes"/>
      <point x="795" y="723"/>
      <point x="793" y="727"/>
      <point x="791" y="730" type="curve"/>
      <point x="539" y="730" type="line"/>
      <point x="537" y="727"/>
      <point x="535" y="722"/>
      <point x="535" y="716" type="curve" smooth="yes"/>
      <point x="535" y="710"/>
      <point x="537" y="704"/>
      <point x="539" y="701" type="curve"/>
      <point x="551" y="701"/>
      <point x="558" y="701"/>
      <point x="567" y="699" type="curve" smooth="yes"/>
      <point x="584" y="695"/>
      <point x="592" y="677"/>
      <point x="592" y="667" type="curve"/>
      <point x="592" y="428" type="line"/>
      <point x="592" y="426"/>
      <point x="590" y="426"/>
      <point x="588" y="426" type="curve" smooth="yes"/>
      <point x="534" y="424"/>
      <point x="495" y="424"/>
      <point x="427" y="424" type="curve" smooth="yes"/>
      <point x="362" y="424"/>
      <point x="315" y="424"/>
      <point x="266" y="426" type="curve" smooth="yes"/>
      <point x="263" y="426"/>
      <point x="260" y="426"/>
      <point x="260" y="427" type="curve" smooth="yes"/>
      <point x="260" y="453"/>
      <point x="260" y="485"/>
      <point x="260" y="512" type="curve" smooth="yes"/>
      <point x="260" y="567"/>
      <point x="261" y="611"/>
      <point x="263" y="666" type="curve" smooth="yes"/>
      <point x="263" y="676"/>
      <point x="271" y="693"/>
      <point x="287" y="698" type="curve" smooth="yes"/>
      <point x="297" y="701"/>
      <point x="304" y="701"/>
      <point x="315" y="701" type="curve"/>
      <point x="317" y="704"/>
      <point x="319" y="710"/>
      <point x="319" y="716" type="curve" smooth="yes"/>
      <point x="319" y="723"/>
      <point x="317" y="728"/>
      <point x="315" y="730" type="curve"/>
      <point x="64" y="730" type="line"/>
      <point x="62" y="727"/>
      <point x="60" y="722"/>
      <point x="60" y="716" type="curve" smooth="yes"/>
      <point x="60" y="709"/>
      <point x="62" y="704"/>
      <point x="64" y="701" type="curve"/>
      <point x="75" y="701"/>
      <point x="82" y="701"/>
      <point x="92" y="699" type="curve" smooth="yes"/>
      <point x="108" y="696"/>
      <point x="116" y="675"/>
      <point x="116" y="666" type="curve" smooth="yes"/>
      <point x="119" y="575"/>
      <point x="119" y="495"/>
      <point x="119" y="404" type="curve" smooth="yes"/>
      <point x="119" y="288"/>
      <point x="119" y="156"/>
      <point x="116" y="65" type="curve" smooth="yes"/>
      <point x="116" y="55"/>
      <point x="108" y="35"/>
      <point x="92" y="32" type="curve" smooth="yes"/>
      <point x="82" y="30"/>
      <point x="75" y="29"/>
      <point x="64" y="29" type="curve"/>
      <point x="62" y="26"/>
      <point x="60" y="21"/>
      <point x="60" y="15" type="curve" smooth="yes"/>
      <point x="60" y="8"/>
      <point x="62" y="3"/>
    </contour>
    <contour>
      <point x="439" y="763" type="move" name="top"/>
    </contour>
  </outline>
</glyph>
<glyph name="I" format="1">
  <advance width="375"/>
  <unicode hex="0049"/>
  <outline>
    <contour>
      <point x="64" y="0" type="curve"/>
      <point x="315" y="0" type="line"/>
      <point x="317" y="3"/>
      <point x="319" y="9"/>
      <point x="319" y="15" type="curve" smooth="yes"/>
      <point x="319" y="22"/>
      <point x="317" y="27"/>
      <point x="315" y="29" type="curve"/>
      <point x="307" y="29" type="line" smooth="yes"/>
      <point x="283" y="29"/>
      <point x="264" y="47"/>
      <point x="263" y="65" type="curve" smooth="yes"/>
      <point x="260" y="125"/>
      <point x="260" y="281"/>
      <point x="260" y="393" type="curve" smooth="yes"/>
      <point x="260" y="488"/>
      <point x="260" y="604"/>
      <point x="263" y="667" type="curve" smooth="yes"/>
      <point x="264" y="684"/>
      <point x="295" y="700"/>
      <point x="306" y="700" type="curve" smooth="yes"/>
      <point x="314" y="700" type="line"/>
      <point x="316" y="703"/>
      <point x="318" y="709"/>
      <point x="318" y="715" type="curve" smooth="yes"/>
      <point x="318" y="722"/>
      <point x="316" y="727"/>
      <point x="314" y="730" type="curve"/>
      <point x="64" y="730" type="line"/>
      <point x="62" y="727"/>
      <point x="60" y="721"/>
      <point x="60" y="715" type="curve" smooth="yes"/>
      <point x="60" y="709"/>
      <point x="62" y="703"/>
      <point x="64" y="700" type="curve"/>
      <point x="72" y="700" type="line" smooth="yes"/>
      <point x="95" y="700"/>
      <point x="115" y="684"/>
      <point x="116" y="666" type="curve" smooth="yes"/>
      <point x="118" y="604"/>
      <point x="118" y="488"/>
      <point x="118" y="393" type="curve" smooth="yes"/>
      <point x="118" y="281"/>
      <point x="118" y="125"/>
      <point x="116" y="65" type="curve" smooth="yes"/>
      <point x="115" y="46"/>
      <point x="92" y="29"/>
      <point x="72" y="29" type="curve" smooth="yes"/>
      <point x="64" y="29" type="line"/>
      <point x="62" y="26"/>
      <point x="60" y="21"/>
      <point x="60" y="15" type="curve" smooth="yes"/>
      <point x="60" y="8"/>
      <point x="62" y="3"/>
    </contour>
  </outline>
</glyph>
<glyph name="J" format="1">
  <advance width="378"/>
  <unicode hex="004A"/>
  <outline>
    <contour>
      <point x="-62" y="-180" type="line"/>
      <point x="139" y="-175"/>
      <point x="258" y="-103"/>
      <point x="258" y="40" type="curve" smooth="yes"/>
      <point x="258" y="82"/>
      <point x="258" y="249"/>
      <point x="258" y="425" type="curve" smooth="yes"/>
      <point x="258" y="522"/>
      <point x="258" y="606"/>
      <point x="260" y="667" type="curve" smooth="yes"/>
      <point x="261" y="685"/>
      <point x="281" y="701"/>
      <point x="304" y="701" type="curve" smooth="yes"/>
      <point x="311" y="701" type="line"/>
      <point x="313" y="704"/>
      <point x="315" y="709"/>
      <point x="315" y="715" type="curve" smooth="yes"/>
      <point x="315" y="722"/>
      <point x="314" y="726"/>
      <point x="312" y="730" type="curve"/>
      <point x="61" y="730" type="line"/>
      <point x="59" y="727"/>
      <point x="57" y="722"/>
      <point x="57" y="716" type="curve" smooth="yes"/>
      <point x="57" y="710"/>
      <point x="59" y="704"/>
      <point x="61" y="701" type="curve"/>
      <point x="69" y="701" type="line" smooth="yes"/>
      <point x="93" y="701"/>
      <point x="112" y="685"/>
      <point x="113" y="666" type="curve" smooth="yes"/>
      <point x="115" y="611"/>
      <point x="115" y="545"/>
      <point x="115" y="466" type="curve" smooth="yes"/>
      <point x="115" y="296"/>
      <point x="114" y="111"/>
      <point x="113" y="83" type="curve" smooth="yes"/>
      <point x="108" y="-71"/>
      <point x="66" y="-114"/>
      <point x="-62" y="-142" type="curve"/>
    </contour>
  </outline>
</glyph>
<glyph name="K" format="1">
  <advance width="680"/>
  <unicode hex="004B"/>
  <outline>
    <contour>
      <point x="39" y="0" type="curve"/>
      <point x="290" y="0" type="line"/>
      <point x="291" y="3"/>
      <point x="293" y="9"/>
      <point x="293" y="15" type="curve" smooth="yes"/>
      <point x="293" y="22"/>
      <point x="291" y="27"/>
      <point x="289" y="29" type="curve"/>
      <point x="282" y="29" type="line" smooth="yes"/>
      <point x="259" y="29"/>
      <point x="238" y="47"/>
      <point x="238" y="66" type="curve" smooth="yes"/>
      <point x="238" y="311" type="line"/>
      <point x="243" y="313"/>
      <point x="246" y="316"/>
      <point x="249" y="320" type="curve"/>
      <point x="267" y="298"/>
      <point x="339" y="204"/>
      <point x="417" y="95" type="curve" smooth="yes"/>
      <point x="427" y="81"/>
      <point x="436" y="66"/>
      <point x="436" y="56" type="curve" smooth="yes"/>
      <point x="436" y="44"/>
      <point x="431" y="29"/>
      <point x="409" y="29" type="curve"/>
      <point x="407" y="26"/>
      <point x="404" y="21"/>
      <point x="404" y="15" type="curve" smooth="yes"/>
      <point x="404" y="9"/>
      <point x="407" y="3"/>
      <point x="409" y="0" type="curve"/>
      <point x="634" y="0" type="line"/>
      <point x="635" y="3"/>
      <point x="637" y="9"/>
      <point x="637" y="15" type="curve" smooth="yes"/>
      <point x="637" y="22"/>
      <point x="635" y="27"/>
      <point x="633" y="29" type="curve"/>
      <point x="626" y="29" type="line" smooth="yes"/>
      <point x="616" y="29"/>
      <point x="597" y="42"/>
      <point x="584" y="60" type="curve"/>
      <point x="566" y="84"/>
      <point x="540" y="120"/>
      <point x="509" y="164" type="curve" smooth="yes"/>
      <point x="466" y="226"/>
      <point x="412" y="303"/>
      <point x="353" y="382" type="curve" smooth="yes"/>
      <point x="330" y="413" type="line"/>
      <point x="525" y="658" type="line"/>
      <point x="542" y="680"/>
      <point x="559" y="702"/>
      <point x="582" y="702" type="curve" smooth="yes"/>
      <point x="592" y="702" type="line"/>
      <point x="594" y="704"/>
      <point x="596" y="709"/>
      <point x="596" y="715" type="curve" smooth="yes"/>
      <point x="596" y="722"/>
      <point x="594" y="727"/>
      <point x="592" y="730" type="curve"/>
      <point x="381" y="730" type="line"/>
      <point x="379" y="727"/>
      <point x="376" y="721"/>
      <point x="376" y="715" type="curve" smooth="yes"/>
      <point x="376" y="709"/>
      <point x="379" y="704"/>
      <point x="381" y="702" type="curve"/>
      <point x="388" y="702" type="line" smooth="yes"/>
      <point x="399" y="702"/>
      <point x="425" y="690"/>
      <point x="425" y="679" type="curve" smooth="yes"/>
      <point x="425" y="674"/>
      <point x="422" y="661"/>
      <point x="407" y="643" type="curve"/>
      <point x="273" y="485" type="line"/>
      <point x="254" y="462"/>
      <point x="246" y="453"/>
      <point x="231" y="450" type="curve"/>
      <point x="238" y="666" type="line" smooth="yes"/>
      <point x="239" y="689"/>
      <point x="259" y="702"/>
      <point x="283" y="702" type="curve" smooth="yes"/>
      <point x="290" y="702" type="line"/>
      <point x="292" y="705"/>
      <point x="294" y="710"/>
      <point x="294" y="716" type="curve" smooth="yes"/>
      <point x="294" y="723"/>
      <point x="292" y="728"/>
      <point x="290" y="730" type="curve"/>
      <point x="39" y="730" type="line"/>
      <point x="37" y="727"/>
      <point x="36" y="722"/>
      <point x="36" y="716" type="curve" smooth="yes"/>
      <point x="36" y="710"/>
      <point x="38" y="705"/>
      <point x="40" y="702" type="curve"/>
      <point x="46" y="702" type="line" smooth="yes"/>
      <point x="70" y="702"/>
      <point x="90" y="683"/>
      <point x="91" y="665" type="curve" smooth="yes"/>
      <point x="93" y="606"/>
      <point x="93" y="493"/>
      <point x="93" y="402" type="curve" smooth="yes"/>
      <point x="93" y="287"/>
      <point x="93" y="128"/>
      <point x="91" y="66" type="curve" smooth="yes"/>
      <point x="90" y="47"/>
      <point x="68" y="29"/>
      <point x="46" y="29" type="curve" smooth="yes"/>
      <point x="39" y="29" type="line"/>
      <point x="37" y="26"/>
      <point x="34" y="21"/>
      <point x="34" y="15" type="curve" smooth="yes"/>
      <point x="34" y="9"/>
      <point x="37" y="3"/>
    </contour>
  </outline>
</glyph>
<glyph name="L" format="1">
  <advance width="647"/>
  <unicode hex="004C"/>
  <outline>
    <contour>
      <point x="66" y="0" type="curve"/>
      <point x="559" y="0" type="line"/>
      <point x="578" y="165" type="line"/>
      <point x="548" y="163" type="line"/>
      <point x="547" y="157" type="line" smooth="yes"/>
      <point x="537" y="99"/>
      <point x="510" y="60"/>
      <point x="451" y="46" type="curve" smooth="yes"/>
      <point x="409" y="36"/>
      <point x="405" y="35"/>
      <point x="341" y="35" type="curve" smooth="yes"/>
      <point x="320" y="35"/>
      <point x="310" y="35"/>
      <point x="289" y="38" type="curve" smooth="yes"/>
      <point x="272" y="40"/>
      <point x="266" y="59"/>
      <point x="266" y="69" type="curve" smooth="yes"/>
      <point x="263" y="151"/>
      <point x="263" y="287"/>
      <point x="263" y="401" type="curve" smooth="yes"/>
      <point x="263" y="493"/>
      <point x="264" y="604"/>
      <point x="266" y="666" type="curve" smooth="yes"/>
      <point x="267" y="687"/>
      <point x="294" y="701"/>
      <point x="311" y="701" type="curve" smooth="yes"/>
      <point x="318" y="701" type="line"/>
      <point x="319" y="704"/>
      <point x="321" y="710"/>
      <point x="321" y="716" type="curve" smooth="yes"/>
      <point x="321" y="723"/>
      <point x="319" y="728"/>
      <point x="318" y="730" type="curve"/>
      <point x="67" y="730" type="line"/>
      <point x="65" y="727"/>
      <point x="62" y="722"/>
      <point x="62" y="716" type="curve" smooth="yes"/>
      <point x="62" y="710"/>
      <point x="65" y="704"/>
      <point x="67" y="701" type="curve"/>
      <point x="74" y="701" type="line" smooth="yes"/>
      <point x="97" y="701"/>
      <point x="118" y="684"/>
      <point x="119" y="666" type="curve" smooth="yes"/>
      <point x="121" y="604"/>
      <point x="121" y="494"/>
      <point x="121" y="402" type="curve" smooth="yes"/>
      <point x="121" y="286"/>
      <point x="121" y="130"/>
      <point x="119" y="68" type="curve" smooth="yes"/>
      <point x="118" y="47"/>
      <point x="99" y="29"/>
      <point x="74" y="29" type="curve" smooth="yes"/>
      <point x="66" y="29" type="line"/>
      <point x="64" y="26"/>
      <point x="61" y="21"/>
      <point x="61" y="15" type="curve" smooth="yes"/>
      <point x="61" y="9"/>
      <point x="64" y="3"/>
    </contour>
    <contour>
      <point x="340" y="-2" type="move" name="bottom"/>
    </contour>
    <contour>
      <point x="195" y="740" type="move" name="top"/>
    </contour>
  </outline>
</glyph>
<glyph name="M" format="1">
  <advance width="913"/>
  <unicode hex="004D"/>
  <outline>
    <contour>
      <point x="47" y="0" type="curve"/>
      <point x="247" y="0" type="line"/>
      <point x="248" y="3"/>
      <point x="250" y="9"/>
      <point x="250" y="15" type="curve" smooth="yes"/>
      <point x="250" y="22"/>
      <point x="248" y="27"/>
      <point x="246" y="30" type="curve"/>
      <point x="239" y="30" type="line" smooth="yes"/>
      <point x="225" y="30"/>
      <point x="212" y="36"/>
      <point x="204" y="44" type="curve" smooth="yes"/>
      <point x="197" y="51"/>
      <point x="194" y="59"/>
      <point x="194" y="67" type="curve"/>
      <point x="216" y="594" type="line"/>
      <point x="207" y="563" type="line"/>
      <point x="237" y="501"/>
      <point x="347" y="286"/>
      <point x="417" y="157" type="curve" smooth="yes"/>
      <point x="421" y="150"/>
      <point x="426" y="144"/>
      <point x="433" y="144" type="curve" smooth="yes"/>
      <point x="443" y="144"/>
      <point x="453" y="159"/>
      <point x="456" y="165" type="curve"/>
      <point x="662" y="574" type="line"/>
      <point x="645" y="562" type="line"/>
      <point x="645" y="524"/>
      <point x="649" y="482"/>
      <point x="653" y="440" type="curve" smooth="yes"/>
      <point x="660" y="358"/>
      <point x="662" y="329"/>
      <point x="667" y="248" type="curve" smooth="yes"/>
      <point x="671" y="184"/>
      <point x="674" y="125"/>
      <point x="674" y="66" type="curve" smooth="yes"/>
      <point x="674" y="47"/>
      <point x="654" y="30"/>
      <point x="630" y="30" type="curve" smooth="yes"/>
      <point x="622" y="30" type="line"/>
      <point x="620" y="27"/>
      <point x="617" y="21"/>
      <point x="617" y="15" type="curve" smooth="yes"/>
      <point x="617" y="9"/>
      <point x="620" y="3"/>
      <point x="622" y="0" type="curve"/>
      <point x="870" y="0" type="line"/>
      <point x="871" y="3"/>
      <point x="873" y="9"/>
      <point x="873" y="15" type="curve" smooth="yes"/>
      <point x="873" y="22"/>
      <point x="871" y="27"/>
      <point x="870" y="29" type="curve"/>
      <point x="863" y="29" type="line" smooth="yes"/>
      <point x="840" y="29"/>
      <point x="820" y="46"/>
      <point x="818" y="65" type="curve" smooth="yes"/>
      <point x="811" y="153"/>
      <point x="803" y="262"/>
      <point x="796" y="367" type="curve" smooth="yes"/>
      <point x="790" y="458"/>
      <point x="786" y="559"/>
      <point x="786" y="667" type="curve" smooth="yes"/>
      <point x="786" y="685"/>
      <point x="808" y="701"/>
      <point x="831" y="701" type="curve" smooth="yes"/>
      <point x="838" y="701" type="line"/>
      <point x="840" y="705"/>
      <point x="841" y="710"/>
      <point x="841" y="716" type="curve" smooth="yes"/>
      <point x="841" y="722"/>
      <point x="840" y="726"/>
      <point x="838" y="730" type="curve"/>
      <point x="655" y="730" type="line"/>
      <point x="465" y="338" type="line"/>
      <point x="258" y="730" type="line"/>
      <point x="69" y="730" type="line"/>
      <point x="67" y="727"/>
      <point x="64" y="722"/>
      <point x="64" y="716" type="curve" smooth="yes"/>
      <point x="64" y="710"/>
      <point x="67" y="704"/>
      <point x="69" y="701" type="curve"/>
      <point x="76" y="701" type="line" smooth="yes"/>
      <point x="100" y="701"/>
      <point x="122" y="683"/>
      <point x="122" y="664" type="curve" smooth="yes"/>
      <point x="122" y="590"/>
      <point x="110" y="271"/>
      <point x="100" y="67" type="curve" smooth="yes"/>
      <point x="99" y="46"/>
      <point x="80" y="30"/>
      <point x="55" y="30" type="curve" smooth="yes"/>
      <point x="48" y="30" type="line"/>
      <point x="45" y="27"/>
      <point x="42" y="21"/>
      <point x="42" y="15" type="curve" smooth="yes"/>
      <point x="42" y="9"/>
      <point x="45" y="3"/>
    </contour>
  </outline>
</glyph>
<glyph name="N" format="1">
  <advance width="881"/>
  <unicode hex="004E"/>
  <outline>
    <contour>
      <point x="744" y="-9" type="curve" smooth="yes"/>
      <point x="757" y="-9"/>
      <point x="769" y="0"/>
      <point x="769" y="13" type="curve"/>
      <point x="766" y="103"/>
      <point x="766" y="269"/>
      <point x="766" y="400" type="curve" smooth="yes"/>
      <point x="766" y="493"/>
      <point x="766" y="575"/>
      <point x="771" y="667" type="curve" smooth="yes"/>
      <point x="772" y="684"/>
      <point x="794" y="702"/>
      <point x="817" y="702" type="curve" smooth="yes"/>
      <point x="825" y="702" type="line"/>
      <point x="826" y="706"/>
      <point x="827" y="710"/>
      <point x="827" y="716" type="curve" smooth="yes"/>
      <point x="827" y="722"/>
      <point x="825" y="728"/>
      <point x="824" y="730" type="curve"/>
      <point x="619" y="730" type="line"/>
      <point x="617" y="727"/>
      <point x="614" y="722"/>
      <point x="614" y="716" type="curve" smooth="yes"/>
      <point x="614" y="710"/>
      <point x="617" y="705"/>
      <point x="619" y="702" type="curve"/>
      <point x="626" y="701" type="line" smooth="yes"/>
      <point x="647" y="698"/>
      <point x="672" y="684"/>
      <point x="672" y="665" type="curve" smooth="yes"/>
      <point x="672" y="481"/>
      <point x="672" y="408"/>
      <point x="672" y="210" type="curve"/>
      <point x="702" y="215" type="line"/>
      <point x="238" y="730" type="line"/>
      <point x="55" y="730" type="line"/>
      <point x="53" y="727"/>
      <point x="50" y="722"/>
      <point x="50" y="716" type="curve" smooth="yes"/>
      <point x="50" y="710"/>
      <point x="53" y="705"/>
      <point x="55" y="702" type="curve"/>
      <point x="61" y="702" type="line" smooth="yes"/>
      <point x="86" y="702"/>
      <point x="105" y="684"/>
      <point x="106" y="664" type="curve" smooth="yes"/>
      <point x="109" y="585"/>
      <point x="109" y="487"/>
      <point x="109" y="399" type="curve" smooth="yes"/>
      <point x="109" y="288"/>
      <point x="109" y="147"/>
      <point x="106" y="66" type="curve" smooth="yes"/>
      <point x="105" y="46"/>
      <point x="86" y="29"/>
      <point x="61" y="29" type="curve" smooth="yes"/>
      <point x="54" y="29" type="line"/>
      <point x="52" y="26"/>
      <point x="49" y="21"/>
      <point x="49" y="15" type="curve" smooth="yes"/>
      <point x="49" y="9"/>
      <point x="52" y="3"/>
      <point x="54" y="0" type="curve"/>
      <point x="257" y="0" type="line"/>
      <point x="258" y="3"/>
      <point x="260" y="9"/>
      <point x="260" y="15" type="curve" smooth="yes"/>
      <point x="260" y="22"/>
      <point x="258" y="27"/>
      <point x="256" y="29" type="curve"/>
      <point x="249" y="29" type="line" smooth="yes"/>
      <point x="225" y="29"/>
      <point x="205" y="47"/>
      <point x="204" y="65" type="curve" smooth="yes"/>
      <point x="202" y="100"/>
      <point x="202" y="136"/>
      <point x="202" y="172" type="curve" smooth="yes"/>
      <point x="202" y="272"/>
      <point x="202" y="343"/>
      <point x="202" y="443" type="curve" smooth="yes"/>
      <point x="202" y="504"/>
      <point x="202" y="556"/>
      <point x="204" y="586" type="curve"/>
      <point x="177" y="595" type="line"/>
      <point x="370" y="381"/>
      <point x="524" y="212"/>
      <point x="710" y="9" type="curve"/>
      <point x="720" y="-2" type="line" smooth="yes"/>
      <point x="724" y="-6"/>
      <point x="735" y="-9"/>
    </contour>
    <contour>
      <point x="433" y="730" type="move" name="top"/>
    </contour>
  </outline>
</glyph>
<glyph name="O" format="1">
  <advance width="868"/>
  <unicode hex="004F"/>
  <outline>
    <contour>
      <point x="433" y="-10" type="curve" smooth="yes"/>
      <point x="607" y="-10"/>
      <point x="804" y="124"/>
      <point x="804" y="361" type="curve" smooth="yes"/>
      <point x="804" y="608"/>
      <point x="640" y="734"/>
      <point x="431" y="734" type="curve" smooth="yes"/>
      <point x="227" y="734"/>
      <point x="65" y="600"/>
      <point x="65" y="352" type="curve" smooth="yes"/>
      <point x="65" y="54"/>
      <point x="304" y="-10"/>
    </contour>
    <contour>
      <point x="441" y="41" type="curve" smooth="yes"/>
      <point x="378" y="41"/>
      <point x="218" y="78"/>
      <point x="218" y="384" type="curve" smooth="yes"/>
      <point x="218" y="452"/>
      <point x="236" y="685"/>
      <point x="424" y="685" type="curve" smooth="yes"/>
      <point x="603" y="685"/>
      <point x="652" y="530"/>
      <point x="652" y="377" type="curve" smooth="yes"/>
      <point x="652" y="125"/>
      <point x="560" y="41"/>
    </contour>
    <contour>
      <point x="431" y="750" type="move" name="top"/>
    </contour>
  </outline>
</glyph>
<glyph name="P" format="1">
  <advance width="600"/>
  <unicode hex="0050"/>
  <outline>
    <contour>
      <point x="37" y="0" type="curve"/>
      <point x="288" y="0" type="line"/>
      <point x="289" y="3"/>
      <point x="291" y="9"/>
      <point x="291" y="15" type="curve" smooth="yes"/>
      <point x="291" y="22"/>
      <point x="289" y="27"/>
      <point x="287" y="29" type="curve"/>
      <point x="280" y="29" type="line" smooth="yes"/>
      <point x="259" y="29"/>
      <point x="238" y="46"/>
      <point x="237" y="63" type="curve" smooth="yes"/>
      <point x="233" y="176"/>
      <point x="232" y="282"/>
      <point x="232" y="396" type="curve" smooth="yes"/>
      <point x="232" y="494"/>
      <point x="233" y="591"/>
      <point x="237" y="690" type="curve"/>
      <point x="271" y="690" type="line" smooth="yes"/>
      <point x="352" y="690"/>
      <point x="450" y="652"/>
      <point x="450" y="515" type="curve" smooth="yes"/>
      <point x="450" y="378"/>
      <point x="387" y="329"/>
      <point x="283" y="329" type="curve" smooth="yes"/>
      <point x="268" y="329"/>
      <point x="260" y="317"/>
      <point x="260" y="303" type="curve" smooth="yes"/>
      <point x="260" y="289"/>
      <point x="268" y="278"/>
      <point x="283" y="277" type="curve" smooth="yes"/>
      <point x="295" y="276"/>
      <point x="307" y="275"/>
      <point x="320" y="275" type="curve" smooth="yes"/>
      <point x="461" y="275"/>
      <point x="572" y="347"/>
      <point x="572" y="503" type="curve" smooth="yes"/>
      <point x="572" y="669"/>
      <point x="479" y="730"/>
      <point x="305" y="732" type="curve" smooth="yes"/>
      <point x="303" y="732"/>
      <point x="300" y="732"/>
      <point x="298" y="732" type="curve" smooth="yes"/>
      <point x="37" y="730" type="line"/>
      <point x="35" y="727"/>
      <point x="32" y="722"/>
      <point x="32" y="716" type="curve" smooth="yes"/>
      <point x="32" y="710"/>
      <point x="35" y="704"/>
      <point x="37" y="701" type="curve"/>
      <point x="45" y="701" type="line" smooth="yes"/>
      <point x="66" y="701"/>
      <point x="88" y="688"/>
      <point x="89" y="659" type="curve" smooth="yes"/>
      <point x="92" y="591"/>
      <point x="92" y="487"/>
      <point x="92" y="400" type="curve" smooth="yes"/>
      <point x="92" y="285"/>
      <point x="92" y="156"/>
      <point x="89" y="64" type="curve" smooth="yes"/>
      <point x="88" y="47"/>
      <point x="67" y="29"/>
      <point x="44" y="29" type="curve" smooth="yes"/>
      <point x="37" y="29" type="line"/>
      <point x="35" y="26"/>
      <point x="32" y="21"/>
      <point x="32" y="15" type="curve" smooth="yes"/>
      <point x="32" y="9"/>
      <point x="35" y="3"/>
    </contour>
  </outline>
</glyph>
<glyph name="Q" format="1">
  <advance width="878"/>
  <unicode hex="0051"/>
  <outline>
    <contour>
      <point x="478" y="-1" type="curve"/>
      <point x="361" y="8" type="line"/>
      <point x="366" y="-109"/>
      <point x="453" y="-152"/>
      <point x="595" y="-152" type="curve" smooth="yes"/>
      <point x="620" y="-152"/>
      <point x="646" y="-151"/>
      <point x="674" y="-148" type="curve" smooth="yes"/>
      <point x="682" y="-147" type="line"/>
      <point x="670" y="-91" type="line"/>
      <point x="656" y="-92"/>
      <point x="645" y="-92"/>
      <point x="640" y="-92" type="curve" smooth="yes"/>
      <point x="522" y="-92"/>
      <point x="483" y="-59"/>
    </contour>
    <contour>
      <point x="446" y="34" type="curve" smooth="yes"/>
      <point x="392" y="34"/>
      <point x="218" y="71"/>
      <point x="218" y="380" type="curve" smooth="yes"/>
      <point x="218" y="439"/>
      <point x="227" y="684"/>
      <point x="429" y="684" type="curve" smooth="yes"/>
      <point x="612" y="684"/>
      <point x="662" y="517"/>
      <point x="662" y="373" type="curve" smooth="yes"/>
      <point x="662" y="119"/>
      <point x="557" y="34"/>
    </contour>
    <contour>
      <point x="374" y="-11" type="curve"/>
      <point x="466" y="-15" type="line"/>
      <point x="625" y="-2"/>
      <point x="814" y="131"/>
      <point x="814" y="357" type="curve" smooth="yes"/>
      <point x="814" y="606"/>
      <point x="637" y="733"/>
      <point x="436" y="733" type="curve" smooth="yes"/>
      <point x="239" y="733"/>
      <point x="65" y="598"/>
      <point x="65" y="348" type="curve" smooth="yes"/>
      <point x="65" y="95"/>
      <point x="247" y="9"/>
    </contour>
  </outline>
</glyph>
<glyph name="R" format="1">
  <advance width="723"/>
  <unicode hex="0052"/>
  <outline>
    <contour>
      <point x="54" y="0" type="curve"/>
      <point x="305" y="0" type="line"/>
      <point x="306" y="3"/>
      <point x="308" y="9"/>
      <point x="308" y="15" type="curve" smooth="yes"/>
      <point x="308" y="22"/>
      <point x="306" y="27"/>
      <point x="304" y="29" type="curve"/>
      <point x="298" y="29" type="line" smooth="yes"/>
      <point x="275" y="29"/>
      <point x="253" y="46"/>
      <point x="253" y="64" type="curve" smooth="yes"/>
      <point x="253" y="338" type="line"/>
      <point x="250" y="344" type="line"/>
      <point x="250" y="499"/>
      <point x="251" y="636"/>
      <point x="253" y="690" type="curve"/>
      <point x="294" y="690" type="line" smooth="yes"/>
      <point x="378" y="690"/>
      <point x="442" y="635"/>
      <point x="442" y="531" type="curve" smooth="yes"/>
      <point x="442" y="444"/>
      <point x="374" y="371"/>
      <point x="279" y="371" type="curve" smooth="yes"/>
      <point x="266" y="371"/>
      <point x="248" y="371"/>
      <point x="239" y="371" type="curve"/>
      <point x="239" y="318" type="line"/>
      <point x="251" y="315"/>
      <point x="260" y="313"/>
      <point x="271" y="313" type="curve"/>
      <point x="279" y="300"/>
      <point x="371" y="168"/>
      <point x="438" y="73" type="curve" smooth="yes"/>
      <point x="448" y="58"/>
      <point x="487" y="0"/>
      <point x="527" y="0" type="curve" smooth="yes"/>
      <point x="670" y="0" type="line"/>
      <point x="672" y="3"/>
      <point x="674" y="10"/>
      <point x="674" y="16" type="curve" smooth="yes"/>
      <point x="674" y="23"/>
      <point x="672" y="28"/>
      <point x="670" y="30" type="curve"/>
      <point x="664" y="30" type="line" smooth="yes"/>
      <point x="636" y="30"/>
      <point x="627" y="41"/>
      <point x="613" y="60" type="curve" smooth="yes"/>
      <point x="569" y="119"/>
      <point x="489" y="231"/>
      <point x="392" y="368" type="curve"/>
      <point x="385" y="329" type="line"/>
      <point x="488" y="342"/>
      <point x="574" y="420"/>
      <point x="574" y="535" type="curve" smooth="yes"/>
      <point x="574" y="676"/>
      <point x="447" y="734"/>
      <point x="290" y="734" type="curve" smooth="yes"/>
      <point x="257" y="734"/>
      <point x="233" y="734"/>
      <point x="188" y="732" type="curve" smooth="yes"/>
      <point x="148" y="730"/>
      <point x="119" y="730"/>
      <point x="87" y="730" type="curve" smooth="yes"/>
      <point x="78" y="730"/>
      <point x="71" y="730"/>
      <point x="62" y="730" type="curve" smooth="yes"/>
      <point x="54" y="730" type="line"/>
      <point x="52" y="727"/>
      <point x="49" y="722"/>
      <point x="49" y="716" type="curve" smooth="yes"/>
      <point x="49" y="710"/>
      <point x="52" y="704"/>
      <point x="54" y="701" type="curve"/>
      <point x="62" y="701" type="line" smooth="yes"/>
      <point x="91" y="701"/>
      <point x="105" y="684"/>
      <point x="106" y="658" type="curve" smooth="yes"/>
      <point x="109" y="573"/>
      <point x="109" y="490"/>
      <point x="109" y="404" type="curve" smooth="yes"/>
      <point x="109" y="288"/>
      <point x="109" y="156"/>
      <point x="106" y="65" type="curve" smooth="yes"/>
      <point x="105" y="46"/>
      <point x="85" y="29"/>
      <point x="61" y="29" type="curve" smooth="yes"/>
      <point x="54" y="29" type="line"/>
      <point x="52" y="26"/>
      <point x="49" y="21"/>
      <point x="49" y="15" type="curve" smooth="yes"/>
      <point x="49" y="9"/>
      <point x="52" y="3"/>
    </contour>
    <contour>
      <point x="356" y="1" type="move" name="bottom"/>
    </contour>
    <contour>
      <point x="297" y="735" type="move" name="top"/>
    </contour>
  </outline>
</glyph>
<glyph name="S" format="1">
  <advance width="633"/>
  <unicode hex="0053"/>
  <outline>
    <contour>
      <point x="313" y="-10" type="curve" smooth="yes"/>
      <point x="365" y="-10"/>
      <point x="435" y="7"/>
      <point x="473" y="38" type="curve" smooth="yes"/>
      <point x="523" y="78"/>
      <point x="571" y="131"/>
      <point x="571" y="215" type="curve" smooth="yes"/>
      <point x="571" y="305"/>
      <point x="487" y="368"/>
      <point x="382" y="427" type="curve" smooth="yes"/>
      <point x="295" y="476"/>
      <point x="235" y="516"/>
      <point x="235" y="584" type="curve" smooth="yes"/>
      <point x="235" y="634"/>
      <point x="271" y="696"/>
      <point x="332" y="696" type="curve" smooth="yes"/>
      <point x="410" y="696"/>
      <point x="445" y="649"/>
      <point x="466" y="616" type="curve" smooth="yes"/>
      <point x="476" y="600"/>
      <point x="485" y="588"/>
      <point x="494" y="588" type="curve" smooth="yes"/>
      <point x="514" y="588"/>
      <point x="540" y="673"/>
      <point x="540" y="686" type="curve" smooth="yes"/>
      <point x="540" y="714"/>
      <point x="439" y="742"/>
      <point x="349" y="742" type="curve" smooth="yes"/>
      <point x="190" y="742"/>
      <point x="96" y="650"/>
      <point x="96" y="559" type="curve" smooth="yes"/>
      <point x="96" y="476"/>
      <point x="191" y="400"/>
      <point x="284" y="346" type="curve" smooth="yes"/>
      <point x="372" y="295"/>
      <point x="438" y="248"/>
      <point x="438" y="174" type="curve" smooth="yes"/>
      <point x="438" y="102"/>
      <point x="390" y="50"/>
      <point x="315" y="50" type="curve" smooth="yes"/>
      <point x="214" y="50"/>
      <point x="156" y="159"/>
      <point x="150" y="208" type="curve"/>
      <point x="149" y="217"/>
      <point x="141" y="220"/>
      <point x="133" y="220" type="curve" smooth="yes"/>
      <point x="104" y="220"/>
      <point x="66" y="153"/>
      <point x="66" y="122" type="curve" smooth="yes"/>
      <point x="66" y="75"/>
      <point x="161" y="-10"/>
    </contour>
  </outline>
</glyph>
<glyph name="T" format="1">
  <advance width="749"/>
  <unicode hex="0054"/>
  <unicode hex="03A4"/>
  <outline>
    <contour>
      <point x="259" y="0" type="curve"/>
      <point x="510" y="0" type="line"/>
      <point x="511" y="3"/>
      <point x="513" y="9"/>
      <point x="513" y="15" type="curve" smooth="yes"/>
      <point x="513" y="22"/>
      <point x="511" y="27"/>
      <point x="509" y="29" type="curve"/>
      <point x="503" y="29" type="line" smooth="yes"/>
      <point x="495" y="29"/>
      <point x="489" y="31"/>
      <point x="482" y="34" type="curve" smooth="yes"/>
      <point x="466" y="41"/>
      <point x="458" y="55"/>
      <point x="458" y="64" type="curve" smooth="yes"/>
      <point x="455" y="154"/>
      <point x="455" y="237"/>
      <point x="455" y="328" type="curve" smooth="yes"/>
      <point x="455" y="443"/>
      <point x="455" y="595"/>
      <point x="458" y="661" type="curve" smooth="yes"/>
      <point x="458" y="672"/>
      <point x="465" y="683"/>
      <point x="480" y="684" type="curve" smooth="yes"/>
      <point x="498" y="685"/>
      <point x="514" y="685"/>
      <point x="532" y="685" type="curve" smooth="yes"/>
      <point x="593" y="685"/>
      <point x="607" y="684"/>
      <point x="630" y="679" type="curve" smooth="yes"/>
      <point x="660" y="672"/>
      <point x="668" y="625"/>
      <point x="668" y="590" type="curve"/>
      <point x="697" y="590" type="line"/>
      <point x="703" y="726" type="line"/>
      <point x="703" y="737"/>
      <point x="699" y="738"/>
      <point x="695" y="738" type="curve" smooth="yes"/>
      <point x="691" y="738"/>
      <point x="684" y="737"/>
      <point x="678" y="736" type="curve" smooth="yes"/>
      <point x="674" y="735"/>
      <point x="671" y="735"/>
      <point x="670" y="735" type="curve" smooth="yes"/>
      <point x="580" y="732"/>
      <point x="505" y="730"/>
      <point x="394" y="730" type="curve" smooth="yes"/>
      <point x="268" y="730"/>
      <point x="150" y="731"/>
      <point x="113" y="733" type="curve" smooth="yes"/>
      <point x="109" y="733"/>
      <point x="103" y="734"/>
      <point x="99" y="735" type="curve" smooth="yes"/>
      <point x="95" y="736"/>
      <point x="92" y="736"/>
      <point x="89" y="736" type="curve" smooth="yes"/>
      <point x="85" y="736"/>
      <point x="78" y="734"/>
      <point x="77" y="728" type="curve"/>
      <point x="58" y="590" type="line"/>
      <point x="92" y="590" type="line"/>
      <point x="101" y="640"/>
      <point x="119" y="670"/>
      <point x="161" y="677" type="curve" smooth="yes"/>
      <point x="190" y="682"/>
      <point x="229" y="685"/>
      <point x="264" y="685" type="curve" smooth="yes"/>
      <point x="277" y="685"/>
      <point x="289" y="685"/>
      <point x="295" y="684" type="curve" smooth="yes"/>
      <point x="306" y="682"/>
      <point x="311" y="671"/>
      <point x="312" y="655" type="curve" smooth="yes"/>
      <point x="314" y="595"/>
      <point x="314" y="468"/>
      <point x="314" y="329" type="curve" smooth="yes"/>
      <point x="314" y="265"/>
      <point x="313" y="129"/>
      <point x="310" y="64" type="curve" smooth="yes"/>
      <point x="310" y="55"/>
      <point x="306" y="43"/>
      <point x="292" y="35" type="curve" smooth="yes"/>
      <point x="283" y="30"/>
      <point x="278" y="29"/>
      <point x="266" y="29" type="curve" smooth="yes"/>
      <point x="259" y="29" type="line"/>
      <point x="257" y="26"/>
      <point x="254" y="21"/>
      <point x="254" y="15" type="curve" smooth="yes"/>
      <point x="254" y="9"/>
      <point x="257" y="3"/>
    </contour>
    <contour>
      <point x="376" y="5" type="move" name="bottom"/>
    </contour>
    <contour>
      <point x="380" y="735" type="move" name="top"/>
    </contour>
  </outline>
</glyph>
<glyph name="U" format="1">
  <advance width="805"/>
  <unicode hex="0055"/>
  <outline>
    <contour>
      <point x="406" y="-11" type="curve" smooth="yes"/>
      <point x="528" y="-11"/>
      <point x="708" y="41"/>
      <point x="708" y="279" type="curve" smooth="yes"/>
      <point x="708" y="313"/>
      <point x="708" y="375"/>
      <point x="708" y="456" type="curve" smooth="yes"/>
      <point x="708" y="518"/>
      <point x="708" y="648"/>
      <point x="708" y="666" type="curve"/>
      <point x="708" y="685"/>
      <point x="735" y="701"/>
      <point x="754" y="701" type="curve" smooth="yes"/>
      <point x="761" y="701" type="line"/>
      <point x="762" y="704"/>
      <point x="764" y="710"/>
      <point x="764" y="716" type="curve" smooth="yes"/>
      <point x="764" y="723"/>
      <point x="762" y="728"/>
      <point x="761" y="730" type="curve"/>
      <point x="546" y="730" type="line"/>
      <point x="544" y="727"/>
      <point x="542" y="722"/>
      <point x="542" y="716" type="curve" smooth="yes"/>
      <point x="542" y="709"/>
      <point x="544" y="704"/>
      <point x="546" y="701" type="curve"/>
      <point x="553" y="701" type="line" smooth="yes"/>
      <point x="576" y="701"/>
      <point x="599" y="683"/>
      <point x="599" y="666" type="curve" smooth="yes"/>
      <point x="599" y="636"/>
      <point x="599" y="335"/>
      <point x="599" y="305" type="curve" smooth="yes"/>
      <point x="599" y="119"/>
      <point x="503" y="36"/>
      <point x="408" y="36" type="curve" smooth="yes"/>
      <point x="301" y="36"/>
      <point x="238" y="117"/>
      <point x="238" y="319" type="curve"/>
      <point x="238" y="664" type="line"/>
      <point x="238" y="686"/>
      <point x="261" y="701"/>
      <point x="286" y="701" type="curve" smooth="yes"/>
      <point x="293" y="701" type="line"/>
      <point x="294" y="704"/>
      <point x="296" y="710"/>
      <point x="296" y="716" type="curve" smooth="yes"/>
      <point x="296" y="723"/>
      <point x="294" y="728"/>
      <point x="293" y="730" type="curve"/>
      <point x="42" y="730" type="line"/>
      <point x="40" y="727"/>
      <point x="37" y="722"/>
      <point x="37" y="716" type="curve" smooth="yes"/>
      <point x="37" y="710"/>
      <point x="40" y="704"/>
      <point x="42" y="701" type="curve"/>
      <point x="49" y="701" type="line" smooth="yes"/>
      <point x="71" y="701"/>
      <point x="95" y="685"/>
      <point x="95" y="664" type="curve" smooth="yes"/>
      <point x="95" y="291" type="line"/>
      <point x="95" y="42"/>
      <point x="281" y="-11"/>
    </contour>
    <contour>
      <point x="399" y="-13" type="move" name="bottom"/>
    </contour>
    <contour>
      <point x="398" y="731" type="move" name="top"/>
    </contour>
  </outline>
</glyph>
<glyph name="V" format="1">
  <advance width="769"/>
  <unicode hex="0056"/>
  <outline>
    <contour>
      <point x="417" y="-8" type="curve" smooth="yes"/>
      <point x="428" y="-8"/>
      <point x="433" y="2"/>
      <point x="435" y="6" type="curve" smooth="yes"/>
      <point x="724" y="659" type="line"/>
      <point x="736" y="686"/>
      <point x="743" y="701"/>
      <point x="772" y="701" type="curve" smooth="yes"/>
      <point x="780" y="701" type="line"/>
      <point x="781" y="704"/>
      <point x="783" y="710"/>
      <point x="783" y="716" type="curve" smooth="yes"/>
      <point x="783" y="723"/>
      <point x="781" y="728"/>
      <point x="779" y="730" type="curve"/>
      <point x="593" y="730" type="line"/>
      <point x="591" y="727"/>
      <point x="588" y="722"/>
      <point x="588" y="716" type="curve" smooth="yes"/>
      <point x="588" y="710"/>
      <point x="591" y="704"/>
      <point x="593" y="701" type="curve"/>
      <point x="600" y="701" type="line" smooth="yes"/>
      <point x="621" y="701"/>
      <point x="644" y="686"/>
      <point x="644" y="669" type="curve" smooth="yes"/>
      <point x="644" y="663"/>
      <point x="641" y="656"/>
      <point x="636" y="646" type="curve"/>
      <point x="428" y="191" type="line"/>
      <point x="465" y="191" type="line"/>
      <point x="267" y="652" type="line"/>
      <point x="264" y="659"/>
      <point x="263" y="666"/>
      <point x="263" y="670" type="curve" smooth="yes"/>
      <point x="263" y="684"/>
      <point x="286" y="701"/>
      <point x="308" y="701" type="curve" smooth="yes"/>
      <point x="315" y="701" type="line"/>
      <point x="316" y="704"/>
      <point x="318" y="710"/>
      <point x="318" y="716" type="curve" smooth="yes"/>
      <point x="318" y="723"/>
      <point x="317" y="728"/>
      <point x="316" y="730" type="curve"/>
      <point x="60" y="730" type="line"/>
      <point x="58" y="727"/>
      <point x="55" y="722"/>
      <point x="55" y="716" type="curve" smooth="yes"/>
      <point x="55" y="710"/>
      <point x="58" y="704"/>
      <point x="60" y="701" type="curve"/>
      <point x="67" y="701" type="line" smooth="yes"/>
      <point x="93" y="701"/>
      <point x="100" y="690"/>
      <point x="110" y="666" type="curve" smooth="yes"/>
      <point x="149" y="571"/>
      <point x="190" y="480"/>
      <point x="233" y="389" type="curve" smooth="yes"/>
      <point x="292" y="263"/>
      <point x="349" y="138"/>
      <point x="398" y="7" type="curve" smooth="yes"/>
      <point x="401" y="-1"/>
      <point x="407" y="-8"/>
    </contour>
    <contour>
      <point x="419" y="-24" type="move" name="bottom"/>
    </contour>
    <contour>
      <point x="432" y="728" type="move" name="top"/>
    </contour>
  </outline>
</glyph>
<glyph name="W" format="1">
  <advance width="1097"/>
  <unicode hex="0057"/>
  <outline>
    <contour>
      <point x="605" y="490" type="line"/>
      <point x="631" y="447" type="line"/>
      <point x="720" y="223" type="line"/>
      <point x="803" y="389"/>
      <point x="845" y="482"/>
      <point x="916" y="645" type="curve"/>
      <point x="920" y="653"/>
      <point x="923" y="661"/>
      <point x="923" y="668" type="curve" smooth="yes"/>
      <point x="923" y="686"/>
      <point x="900" y="701"/>
      <point x="880" y="701" type="curve" smooth="yes"/>
      <point x="873" y="701" type="line"/>
      <point x="871" y="704"/>
      <point x="869" y="710"/>
      <point x="869" y="716" type="curve" smooth="yes"/>
      <point x="869" y="722"/>
      <point x="871" y="727"/>
      <point x="873" y="730" type="curve"/>
      <point x="1067" y="730" type="line"/>
      <point x="1069" y="726"/>
      <point x="1070" y="722"/>
      <point x="1070" y="715" type="curve" smooth="yes"/>
      <point x="1070" y="709"/>
      <point x="1069" y="705"/>
      <point x="1067" y="701" type="curve"/>
      <point x="1060" y="700" type="line" smooth="yes"/>
      <point x="1029" y="696"/>
      <point x="1022" y="684"/>
      <point x="1010" y="656" type="curve" smooth="yes"/>
      <point x="899" y="408"/>
      <point x="747" y="65"/>
      <point x="730" y="25" type="curve"/>
      <point x="727" y="18"/>
      <point x="724" y="11"/>
      <point x="722" y="8" type="curve" smooth="yes"/>
      <point x="717" y="0"/>
      <point x="708" y="-8"/>
      <point x="700" y="-8" type="curve" smooth="yes"/>
      <point x="691" y="-8"/>
      <point x="683" y="0"/>
      <point x="680" y="7" type="curve" smooth="yes"/>
      <point x="679" y="9"/>
      <point x="674" y="24"/>
      <point x="666" y="49" type="curve" smooth="yes"/>
      <point x="647" y="107"/>
      <point x="610" y="217"/>
      <point x="566" y="340" type="curve"/>
      <point x="535" y="396" type="line"/>
      <point x="427" y="665" type="line" smooth="yes"/>
      <point x="417" y="689"/>
      <point x="401" y="701"/>
      <point x="384" y="701" type="curve" smooth="yes"/>
      <point x="376" y="701" type="line"/>
      <point x="374" y="704"/>
      <point x="372" y="710"/>
      <point x="372" y="716" type="curve" smooth="yes"/>
      <point x="372" y="722"/>
      <point x="374" y="727"/>
      <point x="376" y="730" type="curve"/>
      <point x="580" y="730" type="line"/>
      <point x="581" y="728"/>
      <point x="583" y="723"/>
      <point x="583" y="716" type="curve" smooth="yes"/>
      <point x="583" y="710"/>
      <point x="581" y="704"/>
      <point x="580" y="701" type="curve"/>
      <point x="573" y="701" type="line" smooth="yes"/>
      <point x="552" y="701"/>
      <point x="531" y="686"/>
      <point x="531" y="668" type="curve" smooth="yes"/>
      <point x="531" y="663"/>
      <point x="532" y="658"/>
      <point x="536" y="649" type="curve"/>
    </contour>
    <contour>
      <point x="536" y="425" type="line"/>
      <point x="580" y="335" type="line"/>
      <point x="429" y="26" type="line" smooth="yes"/>
      <point x="425" y="18"/>
      <point x="422" y="12"/>
      <point x="419" y="7" type="curve" smooth="yes"/>
      <point x="415" y="0"/>
      <point x="406" y="-8"/>
      <point x="398" y="-8" type="curve" smooth="yes"/>
      <point x="390" y="-8"/>
      <point x="381" y="0"/>
      <point x="378" y="7" type="curve" smooth="yes"/>
      <point x="373" y="19"/>
      <point x="182" y="477"/>
      <point x="108" y="647" type="curve" smooth="yes"/>
      <point x="101" y="663" type="line" smooth="yes"/>
      <point x="89" y="690"/>
      <point x="85" y="696"/>
      <point x="57" y="700" type="curve" smooth="yes"/>
      <point x="50" y="701" type="line"/>
      <point x="48" y="704"/>
      <point x="45" y="710"/>
      <point x="45" y="716" type="curve" smooth="yes"/>
      <point x="45" y="722"/>
      <point x="48" y="727"/>
      <point x="50" y="730" type="curve"/>
      <point x="301" y="730" type="line"/>
      <point x="302" y="728"/>
      <point x="304" y="723"/>
      <point x="304" y="716" type="curve" smooth="yes"/>
      <point x="304" y="710"/>
      <point x="302" y="704"/>
      <point x="301" y="701" type="curve"/>
      <point x="295" y="701" type="line" smooth="yes"/>
      <point x="273" y="701"/>
      <point x="249" y="686"/>
      <point x="249" y="665" type="curve" smooth="yes"/>
      <point x="249" y="660"/>
      <point x="250" y="657"/>
      <point x="252" y="652" type="curve"/>
      <point x="435" y="229" type="line"/>
    </contour>
    <contour>
      <point x="630" y="418" type="line"/>
      <point x="588" y="497" type="line"/>
      <point x="603" y="525"/>
      <point x="616" y="549"/>
      <point x="627" y="569" type="curve" smooth="yes"/>
      <point x="640" y="592"/>
      <point x="652" y="614"/>
      <point x="666" y="645" type="curve" smooth="yes"/>
      <point x="672" y="659"/>
      <point x="673" y="662"/>
      <point x="673" y="669" type="curve" smooth="yes"/>
      <point x="673" y="687"/>
      <point x="656" y="701"/>
      <point x="637" y="701" type="curve" smooth="yes"/>
      <point x="625" y="701" type="line"/>
      <point x="623" y="704"/>
      <point x="620" y="710"/>
      <point x="620" y="716" type="curve" smooth="yes"/>
      <point x="620" y="722"/>
      <point x="623" y="727"/>
      <point x="625" y="730" type="curve"/>
      <point x="799" y="730" type="line"/>
      <point x="801" y="728"/>
      <point x="803" y="723"/>
      <point x="803" y="716" type="curve" smooth="yes"/>
      <point x="803" y="710"/>
      <point x="801" y="704"/>
      <point x="800" y="701" type="curve"/>
      <point x="792" y="701" type="line" smooth="yes"/>
      <point x="777" y="701"/>
      <point x="769" y="697"/>
      <point x="762" y="689" type="curve" smooth="yes"/>
      <point x="757" y="683"/>
      <point x="752" y="674"/>
      <point x="746" y="662" type="curve"/>
    </contour>
  </outline>
</glyph>
<glyph name="X" format="1">
  <advance width="809"/>
  <unicode hex="0058"/>
  <unicode hex="03A7"/>
  <outline>
    <contour>
      <point x="501" y="0" type="curve"/>
      <point x="765" y="0" type="line"/>
      <point x="766" y="3"/>
      <point x="768" y="9"/>
      <point x="768" y="15" type="curve" smooth="yes"/>
      <point x="768" y="22"/>
      <point x="766" y="27"/>
      <point x="765" y="29" type="curve"/>
      <point x="759" y="29" type="line" smooth="yes"/>
      <point x="751" y="29"/>
      <point x="739" y="32"/>
      <point x="731" y="35" type="curve" smooth="yes"/>
      <point x="723" y="38"/>
      <point x="713" y="51"/>
      <point x="706" y="62" type="curve" smooth="yes"/>
      <point x="687" y="90"/>
      <point x="655" y="138"/>
      <point x="620" y="195" type="curve" smooth="yes"/>
      <point x="583" y="256"/>
      <point x="538" y="327"/>
      <point x="489" y="397" type="curve"/>
      <point x="454" y="448" type="line"/>
      <point x="308" y="645" type="line" smooth="yes"/>
      <point x="298" y="658"/>
      <point x="297" y="668"/>
      <point x="297" y="673" type="curve" smooth="yes"/>
      <point x="297" y="680"/>
      <point x="302" y="695"/>
      <point x="314" y="698" type="curve" smooth="yes"/>
      <point x="321" y="700"/>
      <point x="330" y="701"/>
      <point x="338" y="701" type="curve" smooth="yes"/>
      <point x="345" y="701" type="line"/>
      <point x="346" y="704"/>
      <point x="348" y="710"/>
      <point x="348" y="716" type="curve" smooth="yes"/>
      <point x="348" y="723"/>
      <point x="346" y="728"/>
      <point x="345" y="730" type="curve"/>
      <point x="70" y="730" type="line"/>
      <point x="68" y="727"/>
      <point x="65" y="722"/>
      <point x="65" y="716" type="curve" smooth="yes"/>
      <point x="65" y="710"/>
      <point x="68" y="704"/>
      <point x="70" y="701" type="curve"/>
      <point x="77" y="701" type="line" smooth="yes"/>
      <point x="85" y="701"/>
      <point x="95" y="700"/>
      <point x="102" y="697" type="curve" smooth="yes"/>
      <point x="110" y="693"/>
      <point x="118" y="682"/>
      <point x="126" y="671" type="curve" smooth="yes"/>
      <point x="141" y="651"/>
      <point x="159" y="625"/>
      <point x="181" y="593" type="curve" smooth="yes"/>
      <point x="223" y="531"/>
      <point x="282" y="448"/>
      <point x="348" y="359" type="curve"/>
      <point x="357" y="339" type="line"/>
      <point x="531" y="89" type="line"/>
      <point x="541" y="75"/>
      <point x="549" y="60"/>
      <point x="549" y="52" type="curve" smooth="yes"/>
      <point x="549" y="43"/>
      <point x="539" y="35"/>
      <point x="528" y="32" type="curve" smooth="yes"/>
      <point x="521" y="30"/>
      <point x="515" y="29"/>
      <point x="507" y="29" type="curve" smooth="yes"/>
      <point x="501" y="29" type="line"/>
      <point x="499" y="26"/>
      <point x="496" y="21"/>
      <point x="496" y="15" type="curve" smooth="yes"/>
      <point x="496" y="9"/>
      <point x="499" y="3"/>
    </contour>
    <contour>
      <point x="36" y="0" type="curve"/>
      <point x="238" y="0" type="line"/>
      <point x="239" y="3"/>
      <point x="241" y="9"/>
      <point x="241" y="15" type="curve" smooth="yes"/>
      <point x="241" y="22"/>
      <point x="239" y="27"/>
      <point x="238" y="29" type="curve"/>
      <point x="231" y="29" type="line" smooth="yes"/>
      <point x="223" y="29"/>
      <point x="215" y="31"/>
      <point x="209" y="33" type="curve" smooth="yes"/>
      <point x="198" y="37"/>
      <point x="194" y="48"/>
      <point x="194" y="53" type="curve" smooth="yes"/>
      <point x="194" y="58"/>
      <point x="198" y="67"/>
      <point x="213" y="87" type="curve"/>
      <point x="279" y="176"/>
      <point x="320" y="231"/>
      <point x="390" y="324" type="curve"/>
      <point x="343" y="392" type="line"/>
      <point x="101" y="68" type="line" smooth="yes"/>
      <point x="89" y="52"/>
      <point x="78" y="38"/>
      <point x="67" y="34" type="curve" smooth="yes"/>
      <point x="59" y="31"/>
      <point x="51" y="29"/>
      <point x="43" y="29" type="curve" smooth="yes"/>
      <point x="36" y="29" type="line"/>
      <point x="34" y="26"/>
      <point x="31" y="21"/>
      <point x="31" y="15" type="curve" smooth="yes"/>
      <point x="31" y="9"/>
      <point x="34" y="3"/>
    </contour>
    <contour>
      <point x="469" y="400" type="line"/>
      <point x="648" y="658" type="line" smooth="yes"/>
      <point x="659" y="674"/>
      <point x="673" y="692"/>
      <point x="685" y="697" type="curve" smooth="yes"/>
      <point x="692" y="700"/>
      <point x="701" y="701"/>
      <point x="709" y="701" type="curve" smooth="yes"/>
      <point x="717" y="701" type="line"/>
      <point x="718" y="704"/>
      <point x="720" y="710"/>
      <point x="720" y="716" type="curve" smooth="yes"/>
      <point x="720" y="723"/>
      <point x="718" y="728"/>
      <point x="717" y="730" type="curve"/>
      <point x="526" y="730" type="line"/>
      <point x="524" y="727"/>
      <point x="522" y="722"/>
      <point x="522" y="716" type="curve" smooth="yes"/>
      <point x="522" y="710"/>
      <point x="524" y="704"/>
      <point x="526" y="701" type="curve"/>
      <point x="533" y="701" type="line" smooth="yes"/>
      <point x="553" y="701"/>
      <point x="567" y="695"/>
      <point x="567" y="683" type="curve" smooth="yes"/>
      <point x="567" y="676"/>
      <point x="561" y="667"/>
      <point x="549" y="651" type="curve"/>
      <point x="419" y="470" type="line"/>
    </contour>
    <contour>
      <point x="417" y="730" type="move" name="top"/>
    </contour>
  </outline>
</glyph>
<glyph name="Y" format="1">
  <advance width="752"/>
  <unicode hex="0059"/>
  <outline>
    <contour>
      <point x="252" y="0" type="curve"/>
      <point x="503" y="0" type="line"/>
      <point x="504" y="3"/>
      <point x="506" y="9"/>
      <point x="506" y="15" type="curve" smooth="yes"/>
      <point x="506" y="22"/>
      <point x="504" y="27"/>
      <point x="503" y="29" type="curve"/>
      <point x="488" y="29" type="line" smooth="yes"/>
      <point x="463" y="29"/>
      <point x="452" y="45"/>
      <point x="451" y="66" type="curve" smooth="yes"/>
      <point x="448" y="133"/>
      <point x="448" y="191"/>
      <point x="448" y="258" type="curve" smooth="yes"/>
      <point x="448" y="304"/>
      <point x="448" y="347"/>
      <point x="448" y="393" type="curve"/>
      <point x="653" y="672" type="line"/>
      <point x="660" y="682"/>
      <point x="677" y="701"/>
      <point x="701" y="701" type="curve" smooth="yes"/>
      <point x="708" y="701" type="line"/>
      <point x="709" y="704"/>
      <point x="711" y="710"/>
      <point x="711" y="716" type="curve" smooth="yes"/>
      <point x="711" y="723"/>
      <point x="709" y="728"/>
      <point x="708" y="730" type="curve"/>
      <point x="519" y="730" type="line"/>
      <point x="517" y="727"/>
      <point x="514" y="722"/>
      <point x="514" y="716" type="curve" smooth="yes"/>
      <point x="514" y="710"/>
      <point x="517" y="704"/>
      <point x="519" y="701" type="curve"/>
      <point x="526" y="701" type="line" smooth="yes"/>
      <point x="540" y="701"/>
      <point x="563" y="688"/>
      <point x="563" y="678" type="curve" smooth="yes"/>
      <point x="563" y="672"/>
      <point x="560" y="661"/>
      <point x="545" y="643" type="curve" smooth="yes"/>
      <point x="378" y="436" type="line"/>
      <point x="433" y="434" type="line"/>
      <point x="277" y="649" type="line" smooth="yes"/>
      <point x="267" y="662"/>
      <point x="266" y="669"/>
      <point x="266" y="675" type="curve" smooth="yes"/>
      <point x="266" y="687"/>
      <point x="291" y="701"/>
      <point x="307" y="701" type="curve" smooth="yes"/>
      <point x="313" y="701" type="line"/>
      <point x="315" y="704"/>
      <point x="318" y="710"/>
      <point x="318" y="716" type="curve" smooth="yes"/>
      <point x="318" y="723"/>
      <point x="316" y="727"/>
      <point x="313" y="730" type="curve"/>
      <point x="54" y="730" type="line"/>
      <point x="52" y="727"/>
      <point x="49" y="722"/>
      <point x="49" y="716" type="curve" smooth="yes"/>
      <point x="49" y="710"/>
      <point x="52" y="704"/>
      <point x="54" y="701" type="curve"/>
      <point x="61" y="700" type="line" smooth="yes"/>
      <point x="77" y="698"/>
      <point x="95" y="689"/>
      <point x="108" y="671" type="curve" smooth="yes"/>
      <point x="129" y="642"/>
      <point x="162" y="596"/>
      <point x="199" y="540" type="curve" smooth="yes"/>
      <point x="230" y="493"/>
      <point x="267" y="439"/>
      <point x="306" y="383" type="curve"/>
      <point x="307" y="353"/>
      <point x="307" y="300"/>
      <point x="307" y="259" type="curve" smooth="yes"/>
      <point x="307" y="191"/>
      <point x="307" y="133"/>
      <point x="304" y="65" type="curve" smooth="yes"/>
      <point x="303" y="46"/>
      <point x="283" y="29"/>
      <point x="259" y="29" type="curve" smooth="yes"/>
      <point x="252" y="29" type="line"/>
      <point x="250" y="26"/>
      <point x="247" y="21"/>
      <point x="247" y="15" type="curve" smooth="yes"/>
      <point x="247" y="9"/>
      <point x="250" y="3"/>
    </contour>
    <contour>
      <point x="369" y="0" type="move" name="bottom"/>
    </contour>
    <contour>
      <point x="366" y="738" type="move" name="top"/>
    </contour>
  </outline>
</glyph>
<glyph name="Z" format="1">
  <advance width="740"/>
  <unicode hex="005A"/>
  <outline>
    <contour>
      <point x="87" y="0" type="curve" smooth="yes"/>
      <point x="594" y="0" type="line"/>
      <point x="644" y="177" type="line"/>
      <point x="611" y="177" type="line"/>
      <point x="601" y="146"/>
      <point x="572" y="65"/>
      <point x="486" y="53" type="curve" smooth="yes"/>
      <point x="434" y="46"/>
      <point x="399" y="46"/>
      <point x="353" y="46" type="curve" smooth="yes"/>
      <point x="312" y="46"/>
      <point x="266" y="48"/>
      <point x="230" y="52" type="curve"/>
      <point x="654" y="662" type="line" smooth="yes"/>
      <point x="661" y="671"/>
      <point x="664" y="688"/>
      <point x="664" y="697" type="curve" smooth="yes"/>
      <point x="664" y="710"/>
      <point x="660" y="722"/>
      <point x="659" y="725" type="curve" smooth="yes"/>
      <point x="657" y="730" type="line"/>
      <point x="193" y="730" type="line" smooth="yes"/>
      <point x="188" y="730"/>
      <point x="182" y="731"/>
      <point x="176" y="733" type="curve" smooth="yes"/>
      <point x="171" y="734"/>
      <point x="166" y="735"/>
      <point x="162" y="735" type="curve" smooth="yes"/>
      <point x="157" y="735"/>
      <point x="148" y="734"/>
      <point x="146" y="725" type="curve" smooth="yes"/>
      <point x="113" y="566" type="line"/>
      <point x="144" y="568" type="line"/>
      <point x="145" y="573" type="line" smooth="yes"/>
      <point x="157" y="631"/>
      <point x="188" y="663"/>
      <point x="255" y="677" type="curve" smooth="yes"/>
      <point x="297" y="686"/>
      <point x="305" y="687"/>
      <point x="366" y="687" type="curve"/>
      <point x="412" y="687"/>
      <point x="474" y="685"/>
      <point x="503" y="684" type="curve"/>
      <point x="61" y="56" type="line"/>
      <point x="57" y="50"/>
      <point x="54" y="37"/>
      <point x="54" y="30" type="curve" smooth="yes"/>
      <point x="54" y="8"/>
      <point x="79" y="0"/>
    </contour>
  </outline>
</glyph>
<glyph name="bracketleft" format="1">
  <advance width="321"/>
  <unicode hex="005B"/>
  <outline>
    <contour>
      <point x="93" y="-128" type="curve" smooth="yes"/>
      <point x="268" y="-128" type="line" smooth="yes"/>
      <point x="282" y="-128"/>
      <point x="284" y="-109"/>
      <point x="284" y="-100" type="curve" smooth="yes"/>
      <point x="284" y="-91"/>
      <point x="282" y="-74"/>
      <point x="268" y="-74" type="curve" smooth="yes"/>
      <point x="185" y="-74" type="line"/>
      <point x="185" y="735" type="line"/>
      <point x="268" y="735" type="line" smooth="yes"/>
      <point x="282" y="735"/>
      <point x="284" y="754"/>
      <point x="284" y="763" type="curve" smooth="yes"/>
      <point x="284" y="772"/>
      <point x="282" y="789"/>
      <point x="268" y="789" type="curve" smooth="yes"/>
      <point x="97" y="789" type="line" smooth="yes"/>
      <point x="79" y="789"/>
      <point x="67" y="779"/>
      <point x="67" y="761" type="curve" smooth="yes"/>
      <point x="67" y="-101" type="line" smooth="yes"/>
      <point x="67" y="-118"/>
      <point x="77" y="-128"/>
    </contour>
  </outline>
</glyph>
<glyph name="backslash" format="1">
  <advance width="448"/>
  <unicode hex="005C"/>
  <outline>
    <contour>
      <point x="316" y="-110" type="curve" smooth="yes"/>
      <point x="324" y="-110"/>
      <point x="365" y="-106"/>
      <point x="401" y="-99" type="curve"/>
      <point x="307" y="159"/>
      <point x="234" y="391"/>
      <point x="153" y="678" type="curve"/>
      <point x="150" y="682" type="line"/>
      <point x="132" y="696"/>
      <point x="109" y="703"/>
      <point x="94" y="703" type="curve" smooth="yes"/>
      <point x="78" y="703"/>
      <point x="36" y="693"/>
      <point x="36" y="676" type="curve" smooth="yes"/>
      <point x="36" y="674" type="line" smooth="yes"/>
      <point x="124" y="428"/>
      <point x="271" y="-43"/>
      <point x="275" y="-59" type="curve"/>
      <point x="284" y="-94"/>
      <point x="292" y="-110"/>
    </contour>
  </outline>
</glyph>
<glyph name="bracketright" format="1">
  <advance width="321"/>
  <unicode hex="005D"/>
  <outline>
    <contour>
      <point x="52" y="-128" type="curve" smooth="yes"/>
      <point x="227" y="-128" type="line" smooth="yes"/>
      <point x="243" y="-128"/>
      <point x="253" y="-118"/>
      <point x="253" y="-101" type="curve" smooth="yes"/>
      <point x="253" y="761" type="line" smooth="yes"/>
      <point x="253" y="779"/>
      <point x="241" y="789"/>
      <point x="223" y="789" type="curve" smooth="yes"/>
      <point x="52" y="789" type="line" smooth="yes"/>
      <point x="38" y="789"/>
      <point x="36" y="772"/>
      <point x="36" y="763" type="curve" smooth="yes"/>
      <point x="36" y="754"/>
      <point x="38" y="735"/>
      <point x="52" y="735" type="curve" smooth="yes"/>
      <point x="135" y="735" type="line"/>
      <point x="135" y="-74" type="line"/>
      <point x="52" y="-74" type="line" smooth="yes"/>
      <point x="38" y="-74"/>
      <point x="36" y="-91"/>
      <point x="36" y="-100" type="curve" smooth="yes"/>
      <point x="36" y="-109"/>
      <point x="38" y="-128"/>
    </contour>
  </outline>
</glyph>
<glyph name="asciicircum" format="1">
  <advance width="533"/>
  <unicode hex="005E"/>
  <outline>
    <contour>
      <point x="102" y="551" type="line"/>
      <point x="268" y="646" type="line"/>
      <point x="434" y="551" type="line"/>
      <point x="437" y="552" type="line" smooth="yes"/>
      <point x="448" y="556"/>
      <point x="459" y="572"/>
      <point x="464" y="584" type="curve" smooth="yes"/>
      <point x="466" y="589" type="line"/>
      <point x="268" y="785" type="line"/>
      <point x="70" y="589" type="line"/>
      <point x="71" y="585" type="line" smooth="yes"/>
      <point x="74" y="573"/>
      <point x="87" y="556"/>
      <point x="99" y="552" type="curve" smooth="yes"/>
    </contour>
  </outline>
</glyph>
<glyph name="underscore" format="1">
  <advance width="296"/>
  <unicode hex="005F"/>
  <outline>
    <contour>
      <point x="0" y="-8" type="line"/>
      <point x="296" y="-8" type="line"/>
      <point x="296" y="56" type="line"/>
      <point x="0" y="56" type="line"/>
    </contour>
  </outline>
</glyph>
<glyph name="grave" format="1">
  <advance width="270"/>
  <unicode hex="0060"/>
  <outline>
    <contour>
      <point x="118" y="574" type="curve"/>
      <point x="143" y="575" type="line"/>
      <point x="122" y="606"/>
      <point x="101" y="639"/>
      <point x="80" y="673" type="curve" smooth="yes"/>
      <point x="59" y="707"/>
      <point x="40" y="733"/>
      <point x="33" y="741" type="curve" smooth="yes"/>
      <point x="20" y="755"/>
      <point x="10" y="759"/>
      <point x="-9" y="759" type="curve" smooth="yes"/>
      <point x="-31" y="759"/>
      <point x="-55" y="745"/>
      <point x="-55" y="723" type="curve"/>
      <point x="-55" y="702"/>
      <point x="-37" y="683"/>
      <point x="-22" y="668" type="curve" smooth="yes"/>
      <point x="-9" y="655"/>
      <point x="72" y="603"/>
    </contour>
    <contour>
      <point x="147" y="507" type="move" name="_top"/>
    </contour>
  </outline>
</glyph>
<glyph name="a" format="1">
  <advance width="573"/>
  <unicode hex="0061"/>
  <outline>
    <contour>
      <point x="397" y="-7" type="curve" smooth="yes"/>
      <point x="427" y="-7"/>
      <point x="487" y="8"/>
      <point x="518" y="21" type="curve"/>
      <point x="515" y="58" type="line"/>
      <point x="504" y="55"/>
      <point x="489" y="52"/>
      <point x="478" y="50" type="curve"/>
      <point x="478" y="364" type="line" smooth="yes"/>
      <point x="478" y="427"/>
      <point x="433" y="512"/>
      <point x="273" y="512" type="curve" smooth="yes"/>
      <point x="215" y="512"/>
      <point x="143" y="505"/>
      <point x="92" y="436" type="curve" smooth="yes"/>
      <point x="89" y="432"/>
      <point x="85" y="421"/>
      <point x="85" y="415" type="curve" smooth="yes"/>
      <point x="85" y="392"/>
      <point x="115" y="375"/>
      <point x="136" y="375" type="curve" smooth="yes"/>
      <point x="173" y="375"/>
      <point x="195" y="400"/>
      <point x="213" y="424" type="curve" smooth="yes"/>
      <point x="230" y="447"/>
      <point x="248" y="471"/>
      <point x="270" y="471" type="curve" smooth="yes"/>
      <point x="310" y="471"/>
      <point x="344" y="444"/>
      <point x="351" y="390" type="curve" smooth="yes"/>
      <point x="352" y="379"/>
      <point x="354" y="352"/>
      <point x="354" y="306" type="curve"/>
      <point x="349" y="296" type="line"/>
      <point x="349" y="69" type="line"/>
      <point x="343" y="39" type="line"/>
      <point x="344" y="17"/>
      <point x="372" y="-7"/>
    </contour>
    <contour>
      <point x="213" y="-10" type="curve" smooth="yes"/>
      <point x="270" y="-10"/>
      <point x="292" y="-3"/>
      <point x="335" y="24" type="curve" smooth="yes"/>
      <point x="342" y="29"/>
      <point x="349" y="34"/>
      <point x="358" y="39" type="curve"/>
      <point x="361" y="90" type="line"/>
      <point x="323" y="60"/>
      <point x="295" y="41"/>
      <point x="258" y="41" type="curve" smooth="yes"/>
      <point x="205" y="41"/>
      <point x="176" y="79"/>
      <point x="176" y="126" type="curve" smooth="yes"/>
      <point x="176" y="200"/>
      <point x="239" y="229"/>
      <point x="370" y="269" type="curve"/>
      <point x="367" y="321" type="line"/>
      <point x="236" y="283"/>
      <point x="41" y="224"/>
      <point x="41" y="110" type="curve" smooth="yes"/>
      <point x="41" y="11"/>
      <point x="132" y="-10"/>
    </contour>
    <contour>
      <point x="250" y="-11" type="move" name="bottom"/>
    </contour>
    <contour>
      <point x="285" y="514" type="move" name="top"/>
    </contour>
  </outline>
</glyph>
<glyph name="b" format="1">
  <advance width="629"/>
  <unicode hex="0062"/>
  <outline>
    <contour>
      <point x="320" y="-10" type="curve"/>
      <point x="485" y="-10"/>
      <point x="577" y="58"/>
      <point x="577" y="245" type="curve"/>
      <point x="577" y="431"/>
      <point x="479" y="512"/>
      <point x="341" y="512" type="curve"/>
      <point x="287" y="512"/>
      <point x="260" y="498"/>
      <point x="221" y="473" type="curve"/>
      <point x="221" y="428" type="line"/>
      <point x="256" y="456"/>
      <point x="282" y="468"/>
      <point x="317" y="468" type="curve"/>
      <point x="410" y="468"/>
      <point x="447" y="371"/>
      <point x="447" y="229" type="curve"/>
      <point x="447" y="117"/>
      <point x="405" y="31"/>
      <point x="337" y="31" type="curve"/>
      <point x="270" y="31"/>
      <point x="241" y="76"/>
      <point x="226" y="145" type="curve"/>
      <point x="200" y="33" type="line"/>
      <point x="255" y="-1"/>
      <point x="273" y="-10"/>
    </contour>
    <contour>
      <point x="61" y="-4" type="line"/>
      <point x="68" y="-4" type="line"/>
      <point x="130" y="-4"/>
      <point x="215" y="3"/>
      <point x="225" y="27" type="curve"/>
      <point x="231" y="110" type="line"/>
      <point x="231" y="721" type="line"/>
      <point x="231" y="731"/>
      <point x="231" y="748"/>
      <point x="218" y="748" type="curve"/>
      <point x="216" y="748"/>
      <point x="210" y="748"/>
      <point x="195" y="744" type="curve"/>
      <point x="63" y="711" type="line"/>
      <point x="63" y="685" type="line"/>
      <point x="70" y="685" type="line"/>
      <point x="87" y="685"/>
      <point x="97" y="675"/>
      <point x="97" y="654" type="curve"/>
      <point x="97" y="50" type="line"/>
      <point x="97" y="39"/>
      <point x="84" y="25"/>
      <point x="68" y="25" type="curve"/>
      <point x="61" y="25" type="line"/>
    </contour>
    <contour>
      <point x="336" y="-14" type="move" name="bottom"/>
    </contour>
    <contour>
      <point x="145" y="746" type="move" name="top"/>
    </contour>
  </outline>
</glyph>
<glyph name="c" format="1">
  <advance width="549"/>
  <unicode hex="0063"/>
  <outline>
    <contour>
      <point x="289" y="-10" type="curve" smooth="yes"/>
      <point x="409" y="-10"/>
      <point x="451" y="19"/>
      <point x="510" y="77" type="curve"/>
      <point x="482" y="112" type="line"/>
      <point x="427" y="57"/>
      <point x="379" y="40"/>
      <point x="315" y="40" type="curve" smooth="yes"/>
      <point x="206" y="40"/>
      <point x="175" y="187"/>
      <point x="175" y="279" type="curve" smooth="yes"/>
      <point x="175" y="394"/>
      <point x="239" y="483"/>
      <point x="303" y="483" type="curve" smooth="yes"/>
      <point x="342" y="483"/>
      <point x="356" y="452"/>
      <point x="369" y="421" type="curve" smooth="yes"/>
      <point x="383" y="389"/>
      <point x="398" y="357"/>
      <point x="439" y="357" type="curve" smooth="yes"/>
      <point x="458" y="357"/>
      <point x="507" y="392"/>
      <point x="507" y="415" type="curve" smooth="yes"/>
      <point x="507" y="421"/>
      <point x="504" y="426"/>
      <point x="500" y="430" type="curve" smooth="yes"/>
      <point x="438" y="492"/>
      <point x="364" y="513"/>
      <point x="304" y="513" type="curve" smooth="yes"/>
      <point x="81" y="513"/>
      <point x="43" y="360"/>
      <point x="43" y="266" type="curve" smooth="yes"/>
      <point x="43" y="62"/>
      <point x="161" y="-10"/>
    </contour>
    <contour>
      <point x="302" y="-13" type="move" name="bottom"/>
    </contour>
    <contour>
      <point x="300" y="520" type="move" name="top"/>
    </contour>
  </outline>
</glyph>
<glyph name="d" format="1">
  <advance width="612"/>
  <unicode hex="0064"/>
  <outline>
    <contour>
      <point x="291" y="-10" type="curve" smooth="yes"/>
      <point x="343" y="-10"/>
      <point x="365" y="7"/>
      <point x="393" y="31" type="curve"/>
      <point x="396" y="79" type="line"/>
      <point x="388" y="72"/>
      <point x="381" y="67"/>
      <point x="374" y="62" type="curve" smooth="yes"/>
      <point x="351" y="43"/>
      <point x="337" y="34"/>
      <point x="309" y="34" type="curve" smooth="yes"/>
      <point x="219" y="34"/>
      <point x="177" y="132"/>
      <point x="177" y="275" type="curve" smooth="yes"/>
      <point x="177" y="386"/>
      <point x="227" y="482"/>
      <point x="289" y="482" type="curve" smooth="yes"/>
      <point x="354" y="482"/>
      <point x="374" y="443"/>
      <point x="387" y="368" type="curve"/>
      <point x="402" y="481" type="line"/>
      <point x="367" y="503"/>
      <point x="350" y="513"/>
      <point x="288" y="513" type="curve" smooth="yes"/>
      <point x="139" y="513"/>
      <point x="47" y="428"/>
      <point x="47" y="264" type="curve" smooth="yes"/>
      <point x="47" y="64"/>
      <point x="160" y="-10"/>
    </contour>
    <contour>
      <point x="448" y="-7" type="curve" smooth="yes"/>
      <point x="478" y="-7"/>
      <point x="529" y="8"/>
      <point x="558" y="21" type="curve"/>
      <point x="554" y="58" type="line"/>
      <point x="544" y="55"/>
      <point x="528" y="52"/>
      <point x="517" y="50" type="curve"/>
      <point x="517" y="52"/>
      <point x="517" y="73"/>
      <point x="517" y="723" type="curve" smooth="yes"/>
      <point x="517" y="732"/>
      <point x="517" y="738"/>
      <point x="513" y="743" type="curve" smooth="yes"/>
      <point x="511" y="746"/>
      <point x="507" y="748"/>
      <point x="504" y="748" type="curve" smooth="yes"/>
      <point x="502" y="748"/>
      <point x="494" y="746"/>
      <point x="479" y="742" type="curve"/>
      <point x="348" y="711" type="line"/>
      <point x="348" y="685" type="line"/>
      <point x="355" y="685" type="line" smooth="yes"/>
      <point x="373" y="685"/>
      <point x="383" y="676"/>
      <point x="383" y="654" type="curve" smooth="yes"/>
      <point x="383" y="31" type="line"/>
      <point x="383" y="12"/>
      <point x="423" y="-7"/>
    </contour>
    <contour>
      <point x="290" y="-20" type="move" name="bottom"/>
    </contour>
    <contour>
      <point x="433" y="736" type="move" name="top"/>
    </contour>
  </outline>
</glyph>
<glyph name="e" format="1">
  <advance width="565"/>
  <unicode hex="0065"/>
  <outline>
    <contour>
      <point x="310" y="-11" type="curve" smooth="yes"/>
      <point x="415" y="-11"/>
      <point x="457" y="26"/>
      <point x="511" y="86" type="curve"/>
      <point x="487" y="117" type="line"/>
      <point x="438" y="73"/>
      <point x="399" y="39"/>
      <point x="333" y="39" type="curve" smooth="yes"/>
      <point x="241" y="39"/>
      <point x="183" y="138"/>
      <point x="183" y="242" type="curve" smooth="yes"/>
      <point x="183" y="266"/>
      <point x="187" y="290"/>
      <point x="192" y="313" type="curve"/>
      <point x="201" y="354" type="line"/>
      <point x="201" y="394"/>
      <point x="241" y="483"/>
      <point x="304" y="483" type="curve" smooth="yes"/>
      <point x="354" y="483"/>
      <point x="394" y="419"/>
      <point x="399" y="361" type="curve"/>
      <point x="370" y="359"/>
      <point x="331" y="358"/>
      <point x="299" y="358" type="curve" smooth="yes"/>
      <point x="262" y="358"/>
      <point x="223" y="362"/>
      <point x="185" y="367" type="curve"/>
      <point x="174" y="302" type="line"/>
      <point x="521" y="302" type="line"/>
      <point x="521" y="308"/>
      <point x="521" y="312"/>
      <point x="521" y="318" type="curve"/>
      <point x="521" y="415"/>
      <point x="425" y="512"/>
      <point x="303" y="512" type="curve" smooth="yes"/>
      <point x="151" y="512"/>
      <point x="41" y="438"/>
      <point x="41" y="256" type="curve" smooth="yes"/>
      <point x="41" y="71"/>
      <point x="168" y="-11"/>
    </contour>
  </outline>
</glyph>
<glyph name="f" format="1">
  <advance width="551"/>
  <unicode hex="0066"/>
  <outline>
    <contour>
      <point x="81" y="0" type="line"/>
      <point x="292" y="0" type="line"/>
      <point x="292" y="29" type="line"/>
      <point x="285" y="29" type="line"/>
      <point x="270" y="29"/>
      <point x="256" y="42"/>
      <point x="256" y="53" type="curve"/>
      <point x="256" y="468" type="line"/>
      <point x="251" y="493" type="line"/>
      <point x="251" y="585" type="line"/>
      <point x="251" y="676"/>
      <point x="295" y="731"/>
      <point x="349" y="731" type="curve" smooth="yes"/>
      <point x="379" y="731"/>
      <point x="391" y="710"/>
      <point x="401" y="682" type="curve" smooth="yes"/>
      <point x="411" y="653"/>
      <point x="424" y="629"/>
      <point x="457" y="629" type="curve" smooth="yes"/>
      <point x="482" y="629"/>
      <point x="513" y="643"/>
      <point x="513" y="679" type="curve" smooth="yes"/>
      <point x="513" y="684"/>
      <point x="511" y="694"/>
      <point x="508" y="699" type="curve" smooth="yes"/>
      <point x="473" y="758"/>
      <point x="413" y="766"/>
      <point x="349" y="766" type="curve" smooth="yes"/>
      <point x="225" y="766"/>
      <point x="117" y="704"/>
      <point x="117" y="556" type="curve" smooth="yes"/>
      <point x="117" y="540"/>
      <point x="117" y="500"/>
      <point x="117" y="496" type="curve" smooth="yes"/>
      <point x="117" y="54" type="line"/>
      <point x="117" y="42"/>
      <point x="103" y="29"/>
      <point x="88" y="29" type="curve"/>
      <point x="81" y="29" type="line"/>
    </contour>
    <contour>
      <point x="62" y="451" type="line"/>
      <point x="79" y="456"/>
      <point x="91" y="456"/>
      <point x="138" y="456" type="curve"/>
      <point x="128" y="501" type="line"/>
      <point x="70" y="501" type="line"/>
    </contour>
    <contour>
      <point x="368" y="453" type="curve"/>
      <point x="371" y="458"/>
      <point x="377" y="479"/>
      <point x="377" y="486" type="curve" smooth="yes"/>
      <point x="377" y="500"/>
      <point x="362" y="505"/>
      <point x="340" y="505" type="curve" smooth="yes"/>
      <point x="239" y="505" type="line"/>
      <point x="242" y="456" type="line"/>
      <point x="288" y="456"/>
      <point x="350" y="454"/>
    </contour>
  </outline>
</glyph>
<glyph name="g" format="1">
  <advance width="564"/>
  <unicode hex="0067"/>
  <outline>
    <contour>
      <point x="260" y="-243" type="curve" smooth="yes"/>
      <point x="386" y="-243"/>
      <point x="530" y="-186"/>
      <point x="530" y="-73" type="curve" smooth="yes"/>
      <point x="530" y="14"/>
      <point x="442" y="24"/>
      <point x="358" y="32" type="curve"/>
      <point x="273" y="40" type="line"/>
      <point x="263" y="41"/>
      <point x="249" y="43"/>
      <point x="236" y="46" type="curve" smooth="yes"/>
      <point x="231" y="47"/>
      <point x="220" y="50"/>
      <point x="220" y="56" type="curve" smooth="yes"/>
      <point x="220" y="61"/>
      <point x="226" y="66"/>
      <point x="231" y="67" type="curve" smooth="yes"/>
      <point x="354" y="92"/>
      <point x="473" y="124"/>
      <point x="473" y="296" type="curve" smooth="yes"/>
      <point x="473" y="352"/>
      <point x="461" y="385"/>
      <point x="444" y="418" type="curve"/>
      <point x="446" y="418"/>
      <point x="453" y="418"/>
      <point x="456" y="418" type="curve" smooth="yes"/>
      <point x="491" y="418"/>
      <point x="522" y="440"/>
      <point x="522" y="474" type="curve" smooth="yes"/>
      <point x="522" y="488"/>
      <point x="511" y="504"/>
      <point x="496" y="504" type="curve" smooth="yes"/>
      <point x="453" y="504"/>
      <point x="424" y="486"/>
      <point x="392" y="466" type="curve"/>
      <point x="358" y="490"/>
      <point x="307" y="500"/>
      <point x="266" y="500" type="curve" smooth="yes"/>
      <point x="252" y="500"/>
      <point x="238" y="500"/>
      <point x="225" y="498" type="curve" smooth="yes"/>
      <point x="138" y="485"/>
      <point x="61" y="429"/>
      <point x="61" y="312" type="curve" smooth="yes"/>
      <point x="61" y="185"/>
      <point x="134" y="129"/>
      <point x="208" y="113" type="curve"/>
      <point x="162" y="102"/>
      <point x="75" y="80"/>
      <point x="75" y="41" type="curve" smooth="yes"/>
      <point x="75" y="15"/>
      <point x="111" y="3"/>
      <point x="140" y="-3" type="curve" smooth="yes"/>
      <point x="155" y="-6"/>
      <point x="173" y="-9"/>
      <point x="197" y="-11" type="curve"/>
      <point x="128" y="-31"/>
      <point x="30" y="-60"/>
      <point x="30" y="-135" type="curve" smooth="yes"/>
      <point x="30" y="-224"/>
      <point x="155" y="-243"/>
    </contour>
    <contour>
      <point x="271" y="-207" type="curve" smooth="yes"/>
      <point x="215" y="-207"/>
      <point x="166" y="-178"/>
      <point x="166" y="-123" type="curve" smooth="yes"/>
      <point x="166" y="-82"/>
      <point x="186" y="-48"/>
      <point x="253" y="-24" type="curve"/>
      <point x="288" y="-27" type="line"/>
      <point x="359" y="-33"/>
      <point x="419" y="-51"/>
      <point x="419" y="-102" type="curve" smooth="yes"/>
      <point x="419" y="-153"/>
      <point x="359" y="-207"/>
    </contour>
    <contour>
      <point x="279" y="143" type="curve" smooth="yes"/>
      <point x="223" y="143"/>
      <point x="184" y="210"/>
      <point x="184" y="318" type="curve" smooth="yes"/>
      <point x="184" y="384"/>
      <point x="216" y="458"/>
      <point x="256" y="458" type="curve" smooth="yes"/>
      <point x="315" y="458"/>
      <point x="349" y="392"/>
      <point x="349" y="296" type="curve" smooth="yes"/>
      <point x="349" y="223"/>
      <point x="332" y="143"/>
    </contour>
  </outline>
</glyph>
<glyph name="h" format="1">
  <advance width="619"/>
  <unicode hex="0068"/>
  <outline>
    <contour>
      <point x="372" y="0" type="line"/>
      <point x="568" y="0" type="line"/>
      <point x="568" y="29" type="line"/>
      <point x="561" y="29" type="line"/>
      <point x="546" y="29"/>
      <point x="532" y="42"/>
      <point x="532" y="53" type="curve"/>
      <point x="532" y="349" type="line" smooth="yes"/>
      <point x="532" y="459"/>
      <point x="429" y="512"/>
      <point x="331" y="512" type="curve" smooth="yes"/>
      <point x="276" y="512"/>
      <point x="257" y="499"/>
      <point x="208" y="465" type="curve"/>
      <point x="208" y="419" type="line"/>
      <point x="259" y="454"/>
      <point x="278" y="467"/>
      <point x="311" y="467" type="curve" smooth="yes"/>
      <point x="383" y="467"/>
      <point x="408" y="414"/>
      <point x="408" y="348" type="curve" smooth="yes"/>
      <point x="408" y="54" type="line"/>
      <point x="408" y="42"/>
      <point x="395" y="29"/>
      <point x="379" y="29" type="curve"/>
      <point x="372" y="29" type="line"/>
    </contour>
    <contour>
      <point x="56" y="0" type="line"/>
      <point x="262" y="0" type="line"/>
      <point x="262" y="29" type="line"/>
      <point x="255" y="29" type="line"/>
      <point x="240" y="29"/>
      <point x="226" y="42"/>
      <point x="226" y="54" type="curve"/>
      <point x="226" y="717" type="line" smooth="yes"/>
      <point x="226" y="727"/>
      <point x="226" y="746"/>
      <point x="213" y="746" type="curve" smooth="yes"/>
      <point x="212" y="746"/>
      <point x="210" y="746"/>
      <point x="208" y="745" type="curve" smooth="yes"/>
      <point x="58" y="710" type="line"/>
      <point x="58" y="684" type="line"/>
      <point x="65" y="684" type="line" smooth="yes"/>
      <point x="82" y="684"/>
      <point x="92" y="674"/>
      <point x="92" y="652" type="curve" smooth="yes"/>
      <point x="92" y="55" type="line"/>
      <point x="92" y="43"/>
      <point x="79" y="29"/>
      <point x="63" y="29" type="curve"/>
      <point x="56" y="29" type="line"/>
    </contour>
    <contour>
      <point x="138" y="-1" type="move" name="bottom"/>
    </contour>
    <contour>
      <point x="144" y="742" type="move" name="top"/>
    </contour>
  </outline>
</glyph>
<glyph name="i" format="1">
  <advance width="335"/>
  <unicode hex="0069"/>
  <outline>
    <contour>
      <point x="67" y="0" type="line"/>
      <point x="273" y="0" type="line"/>
      <point x="273" y="29" type="line"/>
      <point x="266" y="29" type="line"/>
      <point x="251" y="29"/>
      <point x="237" y="42"/>
      <point x="237" y="53" type="curve"/>
      <point x="237" y="486" type="line"/>
      <point x="237" y="495"/>
      <point x="237" y="509"/>
      <point x="224" y="509" type="curve" smooth="yes"/>
      <point x="223" y="509"/>
      <point x="218" y="509"/>
      <point x="207" y="506" type="curve"/>
      <point x="69" y="473" type="line"/>
      <point x="69" y="447" type="line"/>
      <point x="76" y="447" type="line"/>
      <point x="93" y="447"/>
      <point x="103" y="438"/>
      <point x="103" y="418" type="curve"/>
      <point x="103" y="54" type="line"/>
      <point x="103" y="42"/>
      <point x="90" y="29"/>
      <point x="74" y="29" type="curve"/>
      <point x="67" y="29" type="line"/>
    </contour>
    <contour>
      <point x="160" y="565" type="curve" smooth="yes"/>
      <point x="202" y="565"/>
      <point x="236" y="598"/>
      <point x="236" y="639" type="curve" smooth="yes"/>
      <point x="236" y="680"/>
      <point x="202" y="713"/>
      <point x="160" y="713" type="curve" smooth="yes"/>
      <point x="118" y="713"/>
      <point x="84" y="680"/>
      <point x="84" y="639" type="curve" smooth="yes"/>
      <point x="84" y="598"/>
      <point x="118" y="565"/>
    </contour>
  </outline>
</glyph>
<glyph name="j" format="1">
  <advance width="312"/>
  <unicode hex="006A"/>
  <outline>
    <contour>
      <point x="-32" y="-154" type="curve" smooth="yes"/>
      <point x="48" y="-154"/>
      <point x="122" y="-141"/>
      <point x="180" y="-92" type="curve" smooth="yes"/>
      <point x="243" y="-38"/>
      <point x="246" y="-3"/>
      <point x="246" y="50" type="curve"/>
      <point x="246" y="483" type="line"/>
      <point x="246" y="493"/>
      <point x="246" y="506"/>
      <point x="232" y="506" type="curve" smooth="yes"/>
      <point x="230" y="506"/>
      <point x="225" y="505"/>
      <point x="210" y="501" type="curve"/>
      <point x="79" y="470" type="line"/>
      <point x="79" y="444" type="line"/>
      <point x="86" y="444" type="line"/>
      <point x="102" y="444"/>
      <point x="113" y="433"/>
      <point x="113" y="413" type="curve"/>
      <point x="113" y="43" type="line"/>
      <point x="113" y="-24"/>
      <point x="111" y="-51"/>
      <point x="60" y="-77" type="curve" smooth="yes"/>
      <point x="50" y="-82"/>
      <point x="41" y="-84"/>
      <point x="33" y="-84" type="curve" smooth="yes"/>
      <point x="20" y="-84"/>
      <point x="9" y="-79"/>
      <point x="-4" y="-73" type="curve" smooth="yes"/>
      <point x="-18" y="-66"/>
      <point x="-33" y="-59"/>
      <point x="-52" y="-59" type="curve" smooth="yes"/>
      <point x="-81" y="-59"/>
      <point x="-124" y="-81"/>
      <point x="-124" y="-108" type="curve" smooth="yes"/>
      <point x="-124" y="-122"/>
      <point x="-113" y="-138"/>
      <point x="-102" y="-142" type="curve" smooth="yes"/>
      <point x="-77" y="-151"/>
      <point x="-54" y="-154"/>
    </contour>
    <contour>
      <point x="175" y="581" type="curve" smooth="yes"/>
      <point x="217" y="581"/>
      <point x="251" y="614"/>
      <point x="251" y="655" type="curve" smooth="yes"/>
      <point x="251" y="696"/>
      <point x="217" y="729"/>
      <point x="175" y="729" type="curve" smooth="yes"/>
      <point x="133" y="729"/>
      <point x="99" y="696"/>
      <point x="99" y="655" type="curve" smooth="yes"/>
      <point x="99" y="614"/>
      <point x="133" y="581"/>
    </contour>
  </outline>
</glyph>
<glyph name="k" format="1">
  <advance width="621"/>
  <unicode hex="006B"/>
  <outline>
    <contour>
      <point x="61" y="0" type="line"/>
      <point x="267" y="0" type="line"/>
      <point x="267" y="29" type="line"/>
      <point x="260" y="29" type="line"/>
      <point x="244" y="29"/>
      <point x="231" y="42"/>
      <point x="231" y="53" type="curve"/>
      <point x="231" y="219" type="line"/>
      <point x="233" y="220"/>
      <point x="241" y="224"/>
      <point x="245" y="224" type="curve" smooth="yes"/>
      <point x="272" y="224"/>
      <point x="396" y="76"/>
      <point x="396" y="49" type="curve" smooth="yes"/>
      <point x="396" y="38"/>
      <point x="385" y="29"/>
      <point x="377" y="29" type="curve"/>
      <point x="370" y="29" type="line"/>
      <point x="370" y="0" type="line"/>
      <point x="574" y="0" type="line"/>
      <point x="574" y="29" type="line"/>
      <point x="567" y="29" type="line"/>
      <point x="544" y="29"/>
      <point x="532" y="45"/>
      <point x="517" y="66" type="curve" smooth="yes"/>
      <point x="503" y="86"/>
      <point x="477" y="121"/>
      <point x="404" y="209" type="curve" smooth="yes"/>
      <point x="363" y="258"/>
      <point x="346" y="275"/>
      <point x="337" y="284" type="curve" smooth="yes"/>
      <point x="331" y="290"/>
      <point x="330" y="292"/>
      <point x="328" y="297" type="curve"/>
      <point x="384" y="339"/>
      <point x="423" y="378"/>
      <point x="452" y="409" type="curve" smooth="yes"/>
      <point x="472" y="431"/>
      <point x="488" y="448"/>
      <point x="504" y="459" type="curve" smooth="yes"/>
      <point x="514" y="466"/>
      <point x="532" y="477"/>
      <point x="550" y="477" type="curve"/>
      <point x="557" y="477" type="line"/>
      <point x="557" y="507" type="line"/>
      <point x="352" y="507" type="line"/>
      <point x="352" y="477" type="line"/>
      <point x="357" y="477" type="line"/>
      <point x="367" y="477"/>
      <point x="376" y="472"/>
      <point x="376" y="462" type="curve" smooth="yes"/>
      <point x="376" y="451"/>
      <point x="374" y="432"/>
      <point x="325" y="398" type="curve" smooth="yes"/>
      <point x="258" y="351"/>
      <point x="246" y="343"/>
      <point x="242" y="343" type="curve" smooth="yes"/>
      <point x="237" y="343"/>
      <point x="231" y="348"/>
      <point x="231" y="364" type="curve" smooth="yes"/>
      <point x="231" y="722" type="line"/>
      <point x="231" y="735"/>
      <point x="230" y="746"/>
      <point x="218" y="746" type="curve" smooth="yes"/>
      <point x="213" y="746"/>
      <point x="205" y="744"/>
      <point x="186" y="739" type="curve"/>
      <point x="63" y="709" type="line"/>
      <point x="63" y="694" type="line"/>
      <point x="70" y="694" type="line"/>
      <point x="88" y="694"/>
      <point x="97" y="684"/>
      <point x="97" y="660" type="curve"/>
      <point x="97" y="54" type="line"/>
      <point x="97" y="43"/>
      <point x="85" y="29"/>
      <point x="68" y="29" type="curve"/>
      <point x="61" y="29" type="line"/>
    </contour>
    <contour>
      <point x="316" y="-5" type="move" name="bottom"/>
    </contour>
    <contour>
      <point x="151" y="740" type="move" name="top"/>
    </contour>
  </outline>
</glyph>
<glyph name="l" format="1">
  <advance width="325"/>
  <unicode hex="006C"/>
  <outline>
    <contour>
      <point x="60" y="0" type="line"/>
      <point x="266" y="0" type="line"/>
      <point x="266" y="29" type="line"/>
      <point x="259" y="29" type="line"/>
      <point x="244" y="29"/>
      <point x="230" y="42"/>
      <point x="230" y="54" type="curve"/>
      <point x="230" y="742" type="line"/>
      <point x="230" y="752"/>
      <point x="230" y="769"/>
      <point x="217" y="769" type="curve" smooth="yes"/>
      <point x="216" y="769"/>
      <point x="211" y="768"/>
      <point x="199" y="765" type="curve"/>
      <point x="62" y="733" type="line"/>
      <point x="62" y="707" type="line"/>
      <point x="69" y="707" type="line"/>
      <point x="86" y="707"/>
      <point x="96" y="697"/>
      <point x="96" y="676" type="curve"/>
      <point x="96" y="54" type="line"/>
      <point x="96" y="43"/>
      <point x="83" y="29"/>
      <point x="67" y="29" type="curve"/>
      <point x="60" y="29" type="line"/>
    </contour>
    <contour>
      <point x="162" y="-2" type="move" name="bottom"/>
    </contour>
    <contour>
      <point x="165" y="763" type="move" name="top"/>
    </contour>
  </outline>
</glyph>
<glyph name="m" format="1">
  <advance width="949"/>
  <unicode hex="006D"/>
  <outline>
    <contour>
      <point x="378" y="0" type="line"/>
      <point x="575" y="0" type="line"/>
      <point x="575" y="29" type="line"/>
      <point x="569" y="29" type="line"/>
      <point x="553" y="29"/>
      <point x="539" y="42"/>
      <point x="539" y="53" type="curve"/>
      <point x="539" y="380" type="line" smooth="yes"/>
      <point x="539" y="385"/>
      <point x="539" y="388"/>
      <point x="538" y="394" type="curve"/>
      <point x="579" y="455"/>
      <point x="620" y="467"/>
      <point x="659" y="467" type="curve" smooth="yes"/>
      <point x="691" y="467"/>
      <point x="736" y="418"/>
      <point x="736" y="341" type="curve"/>
      <point x="736" y="54" type="line"/>
      <point x="736" y="42"/>
      <point x="723" y="29"/>
      <point x="707" y="29" type="curve"/>
      <point x="700" y="29" type="line"/>
      <point x="700" y="0" type="line"/>
      <point x="895" y="0" type="line"/>
      <point x="895" y="29" type="line"/>
      <point x="888" y="29" type="line"/>
      <point x="873" y="29"/>
      <point x="859" y="42"/>
      <point x="859" y="53" type="curve"/>
      <point x="859" y="346" type="line"/>
      <point x="859" y="456"/>
      <point x="774" y="508"/>
      <point x="676" y="508" type="curve" smooth="yes"/>
      <point x="608" y="508"/>
      <point x="534" y="493"/>
      <point x="492" y="432" type="curve"/>
      <point x="459" y="487"/>
      <point x="409" y="511"/>
      <point x="346" y="511" type="curve" smooth="yes"/>
      <point x="278" y="511"/>
      <point x="253" y="489"/>
      <point x="213" y="457" type="curve"/>
      <point x="213" y="419" type="line"/>
      <point x="256" y="451"/>
      <point x="286" y="468"/>
      <point x="333" y="468" type="curve" smooth="yes"/>
      <point x="380" y="468"/>
      <point x="415" y="414"/>
      <point x="415" y="348" type="curve"/>
      <point x="415" y="54" type="line"/>
      <point x="415" y="42"/>
      <point x="401" y="29"/>
      <point x="385" y="29" type="curve"/>
      <point x="378" y="29" type="line"/>
    </contour>
    <contour>
      <point x="57" y="0" type="line"/>
      <point x="263" y="0" type="line"/>
      <point x="263" y="29" type="line"/>
      <point x="256" y="29" type="line"/>
      <point x="241" y="29"/>
      <point x="227" y="42"/>
      <point x="227" y="53" type="curve"/>
      <point x="227" y="490" type="line"/>
      <point x="227" y="499"/>
      <point x="227" y="513"/>
      <point x="214" y="513" type="curve" smooth="yes"/>
      <point x="213" y="513"/>
      <point x="200" y="510"/>
      <point x="187" y="507" type="curve"/>
      <point x="59" y="478" type="line"/>
      <point x="59" y="452" type="line"/>
      <point x="64" y="452" type="line"/>
      <point x="81" y="452"/>
      <point x="93" y="442"/>
      <point x="93" y="421" type="curve"/>
      <point x="93" y="54" type="line"/>
      <point x="93" y="42"/>
      <point x="80" y="29"/>
      <point x="64" y="29" type="curve"/>
      <point x="57" y="29" type="line"/>
    </contour>
    <contour>
      <point x="472" y="-1" type="move" name="bottom"/>
    </contour>
    <contour>
      <point x="490" y="501" type="move" name="top"/>
    </contour>
  </outline>
</glyph>
<glyph name="o" format="1">
  <advance width="587"/>
  <unicode hex="006F"/>
  <outline>
    <contour>
      <point x="303" y="-10" type="curve" smooth="yes"/>
      <point x="457" y="-10"/>
      <point x="553" y="58"/>
      <point x="553" y="254" type="curve" smooth="yes"/>
      <point x="553" y="439"/>
      <point x="432" y="512"/>
      <point x="293" y="512" type="curve" smooth="yes"/>
      <point x="143" y="512"/>
      <point x="45" y="439"/>
      <point x="45" y="254" type="curve" smooth="yes"/>
      <point x="45" y="63"/>
      <point x="152" y="-10"/>
    </contour>
    <contour>
      <point x="312" y="35" type="curve" smooth="yes"/>
      <point x="218" y="35"/>
      <point x="185" y="129"/>
      <point x="185" y="275" type="curve" smooth="yes"/>
      <point x="185" y="387"/>
      <point x="219" y="482"/>
      <point x="288" y="482" type="curve" smooth="yes"/>
      <point x="378" y="482"/>
      <point x="413" y="382"/>
      <point x="413" y="236" type="curve" smooth="yes"/>
      <point x="413" y="148"/>
      <point x="391" y="35"/>
    </contour>
  </outline>
</glyph>
<glyph name="p" format="1">
  <advance width="609"/>
  <unicode hex="0070"/>
  <outline>
    <contour>
      <point x="53" y="-232" type="line"/>
      <point x="259" y="-232" type="line"/>
      <point x="259" y="-204" type="line"/>
      <point x="254" y="-204" type="line"/>
      <point x="238" y="-204"/>
      <point x="223" y="-190"/>
      <point x="223" y="-178" type="curve"/>
      <point x="223" y="15" type="line"/>
      <point x="265" y="-5"/>
      <point x="288" y="-10"/>
      <point x="326" y="-10" type="curve" smooth="yes"/>
      <point x="495" y="-10"/>
      <point x="559" y="65"/>
      <point x="559" y="250" type="curve" smooth="yes"/>
      <point x="559" y="432"/>
      <point x="458" y="512"/>
      <point x="323" y="512" type="curve" smooth="yes"/>
      <point x="276" y="512"/>
      <point x="250" y="500"/>
      <point x="223" y="486" type="curve"/>
      <point x="223" y="503"/>
      <point x="220" y="513"/>
      <point x="211" y="513" type="curve" smooth="yes"/>
      <point x="210" y="513"/>
      <point x="194" y="510"/>
      <point x="176" y="506" type="curve"/>
      <point x="55" y="477" type="line"/>
      <point x="55" y="451" type="line"/>
      <point x="62" y="451" type="line"/>
      <point x="79" y="451"/>
      <point x="89" y="442"/>
      <point x="89" y="421" type="curve"/>
      <point x="89" y="-178" type="line"/>
      <point x="89" y="-190"/>
      <point x="76" y="-204"/>
      <point x="60" y="-204" type="curve"/>
      <point x="53" y="-204" type="line"/>
    </contour>
    <contour>
      <point x="329" y="26" type="curve" smooth="yes"/>
      <point x="272" y="26"/>
      <point x="237" y="65"/>
      <point x="223" y="114" type="curve"/>
      <point x="223" y="433" type="line"/>
      <point x="261" y="456"/>
      <point x="286" y="468"/>
      <point x="315" y="468" type="curve" smooth="yes"/>
      <point x="394" y="468"/>
      <point x="438" y="380"/>
      <point x="438" y="226" type="curve" smooth="yes"/>
      <point x="438" y="109"/>
      <point x="392" y="26"/>
    </contour>
    <contour>
      <point x="303" y="522" type="move" name="top"/>
    </contour>
  </outline>
</glyph>
<glyph name="q" format="1">
  <advance width="652"/>
  <unicode hex="0071"/>
  <outline>
    <contour>
      <point x="384" y="-232" type="line"/>
      <point x="590" y="-232" type="line"/>
      <point x="590" y="-203" type="line"/>
      <point x="583" y="-203" type="line"/>
      <point x="567" y="-203"/>
      <point x="554" y="-189"/>
      <point x="554" y="-177" type="curve"/>
      <point x="554" y="486" type="line" smooth="yes"/>
      <point x="554" y="495"/>
      <point x="554" y="510"/>
      <point x="541" y="510" type="curve" smooth="yes"/>
      <point x="539" y="510"/>
      <point x="529" y="508"/>
      <point x="514" y="504" type="curve"/>
      <point x="421" y="480" type="line"/>
      <point x="378" y="499"/>
      <point x="342" y="512"/>
      <point x="303" y="512" type="curve" smooth="yes"/>
      <point x="150" y="512"/>
      <point x="74" y="438"/>
      <point x="74" y="250" type="curve" smooth="yes"/>
      <point x="74" y="77"/>
      <point x="170" y="-13"/>
      <point x="309" y="-13" type="curve" smooth="yes"/>
      <point x="356" y="-13"/>
      <point x="385" y="2"/>
      <point x="420" y="21" type="curve"/>
      <point x="420" y="-177" type="line"/>
      <point x="420" y="-189"/>
      <point x="408" y="-203"/>
      <point x="391" y="-203" type="curve"/>
      <point x="384" y="-203" type="line"/>
    </contour>
    <contour>
      <point x="322" y="33" type="curve" smooth="yes"/>
      <point x="232" y="33"/>
      <point x="200" y="153"/>
      <point x="200" y="274" type="curve" smooth="yes"/>
      <point x="200" y="422"/>
      <point x="270" y="480"/>
      <point x="320" y="480" type="curve" smooth="yes"/>
      <point x="361" y="480"/>
      <point x="391" y="446"/>
      <point x="420" y="412" type="curve"/>
      <point x="420" y="68" type="line"/>
      <point x="388" y="41"/>
      <point x="350" y="33"/>
    </contour>
  </outline>
</glyph>
<glyph name="r" format="1">
  <advance width="470"/>
  <unicode hex="0072"/>
  <outline>
    <contour>
      <point x="64" y="0" type="line"/>
      <point x="270" y="0" type="line"/>
      <point x="270" y="29" type="line"/>
      <point x="262" y="29" type="line"/>
      <point x="249" y="29"/>
      <point x="234" y="42"/>
      <point x="234" y="53" type="curve"/>
      <point x="234" y="382" type="line"/>
      <point x="243" y="403"/>
      <point x="273" y="429"/>
      <point x="307" y="429" type="curve" smooth="yes"/>
      <point x="316" y="429"/>
      <point x="325" y="422"/>
      <point x="335" y="414" type="curve" smooth="yes"/>
      <point x="347" y="404"/>
      <point x="363" y="392"/>
      <point x="381" y="392" type="curve" smooth="yes"/>
      <point x="412" y="392"/>
      <point x="454" y="419"/>
      <point x="454" y="458" type="curve" smooth="yes"/>
      <point x="454" y="493"/>
      <point x="383" y="507"/>
      <point x="361" y="507" type="curve" smooth="yes"/>
      <point x="301" y="507"/>
      <point x="267" y="477"/>
      <point x="234" y="447" type="curve"/>
      <point x="234" y="489" type="line"/>
      <point x="234" y="499"/>
      <point x="234" y="513"/>
      <point x="221" y="513" type="curve" smooth="yes"/>
      <point x="220" y="513"/>
      <point x="205" y="510"/>
      <point x="175" y="503" type="curve"/>
      <point x="66" y="476" type="line"/>
      <point x="66" y="451" type="line"/>
      <point x="73" y="451" type="line"/>
      <point x="90" y="451"/>
      <point x="100" y="443"/>
      <point x="100" y="423" type="curve"/>
      <point x="100" y="54" type="line"/>
      <point x="100" y="42"/>
      <point x="87" y="29"/>
      <point x="71" y="29" type="curve"/>
      <point x="64" y="29" type="line"/>
    </contour>
    <contour>
      <point x="165" y="0" type="move" name="bottom"/>
    </contour>
    <contour>
      <point x="262" y="491" type="move" name="top"/>
    </contour>
  </outline>
</glyph>
<glyph name="s" format="1">
  <advance width="484"/>
  <unicode hex="0073"/>
  <outline>
    <contour>
      <point x="240" y="-10" type="curve" smooth="yes"/>
      <point x="339" y="-10"/>
      <point x="429" y="49"/>
      <point x="429" y="144" type="curve" smooth="yes"/>
      <point x="429" y="215"/>
      <point x="368" y="259"/>
      <point x="313" y="292" type="curve"/>
      <point x="296" y="302" type="line"/>
      <point x="256" y="327"/>
      <point x="209" y="358"/>
      <point x="209" y="399" type="curve" smooth="yes"/>
      <point x="209" y="422"/>
      <point x="224" y="470"/>
      <point x="264" y="470" type="curve" smooth="yes"/>
      <point x="296" y="470"/>
      <point x="315" y="444"/>
      <point x="330" y="420" type="curve" smooth="yes"/>
      <point x="341" y="402"/>
      <point x="352" y="387"/>
      <point x="366" y="387" type="curve" smooth="yes"/>
      <point x="392" y="387"/>
      <point x="402" y="453"/>
      <point x="402" y="464" type="curve" smooth="yes"/>
      <point x="402" y="488"/>
      <point x="322" y="506"/>
      <point x="262" y="506" type="curve" smooth="yes"/>
      <point x="156" y="506"/>
      <point x="83" y="450"/>
      <point x="83" y="370" type="curve" smooth="yes"/>
      <point x="83" y="301"/>
      <point x="167" y="245"/>
      <point x="214" y="217" type="curve" smooth="yes"/>
      <point x="267" y="186"/>
      <point x="305" y="149"/>
      <point x="305" y="113" type="curve" smooth="yes"/>
      <point x="305" y="74"/>
      <point x="281" y="30"/>
      <point x="230" y="30" type="curve" smooth="yes"/>
      <point x="162" y="30"/>
      <point x="151" y="91"/>
      <point x="144" y="130" type="curve" smooth="yes"/>
      <point x="143" y="136"/>
      <point x="142" y="141"/>
      <point x="141" y="146" type="curve" smooth="yes"/>
      <point x="140" y="151"/>
      <point x="133" y="158"/>
      <point x="127" y="158" type="curve" smooth="yes"/>
      <point x="101" y="158"/>
      <point x="59" y="101"/>
      <point x="59" y="83" type="curve" smooth="yes"/>
      <point x="59" y="49"/>
      <point x="119" y="-10"/>
    </contour>
  </outline>
</glyph>
<glyph name="t" format="1">
  <advance width="420"/>
  <unicode hex="0074"/>
  <outline>
    <contour>
      <point x="292" y="-10" type="curve" smooth="yes"/>
      <point x="330" y="-10"/>
      <point x="342" y="-6"/>
      <point x="361" y="2" type="curve"/>
      <point x="354" y="35" type="line"/>
      <point x="345" y="32"/>
      <point x="334" y="30"/>
      <point x="326" y="30" type="curve" smooth="yes"/>
      <point x="299" y="30"/>
      <point x="280" y="43"/>
      <point x="269" y="73" type="curve" smooth="yes"/>
      <point x="263" y="89"/>
      <point x="263" y="139"/>
      <point x="263" y="164" type="curve"/>
      <point x="263" y="564" type="line"/>
      <point x="263" y="579"/>
      <point x="251" y="592"/>
      <point x="236" y="592" type="curve" smooth="yes"/>
      <point x="223" y="592"/>
      <point x="210" y="581"/>
      <point x="206" y="577" type="curve" smooth="yes"/>
      <point x="172" y="543"/>
      <point x="123" y="520"/>
      <point x="86" y="503" type="curve" smooth="yes"/>
      <point x="70" y="496"/>
      <point x="56" y="486"/>
      <point x="56" y="478" type="curve" smooth="yes"/>
      <point x="56" y="470"/>
      <point x="60" y="465"/>
      <point x="66" y="464" type="curve"/>
      <point x="115" y="464" type="line"/>
      <point x="124" y="464"/>
      <point x="129" y="459"/>
      <point x="129" y="443" type="curve"/>
      <point x="129" y="169" type="line"/>
      <point x="129" y="112"/>
      <point x="130" y="52"/>
      <point x="162" y="22" type="curve" smooth="yes"/>
      <point x="187" y="-2"/>
      <point x="254" y="-10"/>
    </contour>
    <contour>
      <point x="240" y="461" type="line"/>
      <point x="243" y="466"/>
      <point x="252" y="468"/>
      <point x="261" y="468" type="curve" smooth="yes"/>
      <point x="295" y="468"/>
      <point x="340" y="468"/>
      <point x="358" y="467" type="curve"/>
      <point x="360" y="470"/>
      <point x="364" y="482"/>
      <point x="364" y="488" type="curve" smooth="yes"/>
      <point x="364" y="501"/>
      <point x="353" y="511"/>
      <point x="334" y="511" type="curve" smooth="yes"/>
      <point x="328" y="511"/>
      <point x="314" y="511"/>
      <point x="296" y="510" type="curve" smooth="yes"/>
      <point x="277" y="509"/>
      <point x="254" y="509"/>
      <point x="233" y="509" type="curve"/>
    </contour>
    <contour>
      <point x="216" y="-6" type="move" name="bottom"/>
    </contour>
    <contour>
      <point x="201" y="591" type="move" name="top"/>
    </contour>
  </outline>
</glyph>
<glyph name="u" format="1">
  <advance width="610"/>
  <unicode hex="0075"/>
  <outline>
    <contour>
      <point x="267" y="-10" type="curve" smooth="yes"/>
      <point x="338" y="-10"/>
      <point x="352" y="-5"/>
      <point x="410" y="33" type="curve"/>
      <point x="412" y="89" type="line"/>
      <point x="360" y="54"/>
      <point x="328" y="35"/>
      <point x="292" y="35" type="curve" smooth="yes"/>
      <point x="227" y="35"/>
      <point x="193" y="90"/>
      <point x="193" y="156" type="curve"/>
      <point x="193" y="485" type="line"/>
      <point x="193" y="496"/>
      <point x="192" y="509"/>
      <point x="179" y="509" type="curve" smooth="yes"/>
      <point x="177" y="509"/>
      <point x="163" y="506"/>
      <point x="150" y="503" type="curve"/>
      <point x="35" y="480" type="line"/>
      <point x="35" y="455" type="line"/>
      <point x="42" y="455" type="line"/>
      <point x="59" y="455"/>
      <point x="69" y="440"/>
      <point x="69" y="420" type="curve"/>
      <point x="69" y="141" type="line"/>
      <point x="69" y="30"/>
      <point x="166" y="-10"/>
    </contour>
    <contour>
      <point x="453" y="-8" type="curve" smooth="yes"/>
      <point x="483" y="-8"/>
      <point x="531" y="7"/>
      <point x="562" y="21" type="curve"/>
      <point x="555" y="59" type="line"/>
      <point x="544" y="56"/>
      <point x="530" y="53"/>
      <point x="519" y="51" type="curve"/>
      <point x="519" y="486" type="line"/>
      <point x="519" y="497"/>
      <point x="519" y="510"/>
      <point x="506" y="510" type="curve" smooth="yes"/>
      <point x="505" y="510"/>
      <point x="497" y="509"/>
      <point x="480" y="505" type="curve"/>
      <point x="362" y="480" type="line"/>
      <point x="362" y="454" type="line"/>
      <point x="369" y="454" type="line"/>
      <point x="383" y="454"/>
      <point x="396" y="439"/>
      <point x="396" y="419" type="curve"/>
      <point x="396" y="35" type="line"/>
      <point x="393" y="28" type="line"/>
      <point x="393" y="17"/>
      <point x="417" y="-8"/>
    </contour>
    <contour>
      <point x="267" y="-10" type="move" name="bottom"/>
    </contour>
    <contour>
      <point x="278" y="508" type="move" name="top"/>
    </contour>
  </outline>
</glyph>
<glyph name="v" format="1">
  <advance width="584"/>
  <unicode hex="0076"/>
  <outline>
    <contour>
      <point x="377" y="507" type="line"/>
      <point x="546" y="507" type="line"/>
      <point x="546" y="482" type="line"/>
      <point x="539" y="482" type="line"/>
      <point x="524" y="482"/>
      <point x="515" y="466"/>
      <point x="511" y="456" type="curve" smooth="yes"/>
      <point x="509" y="451"/>
      <point x="486" y="403"/>
      <point x="441" y="310" type="curve" smooth="yes"/>
      <point x="376" y="176"/>
      <point x="300" y="15"/>
      <point x="295" y="4" type="curve" smooth="yes"/>
      <point x="291" y="-4"/>
      <point x="281" y="-9"/>
      <point x="270" y="-9" type="curve" smooth="yes"/>
      <point x="260" y="-9"/>
      <point x="251" y="-5"/>
      <point x="247" y="4" type="curve" smooth="yes"/>
      <point x="218" y="75"/>
      <point x="181" y="174"/>
      <point x="138" y="292" type="curve" smooth="yes"/>
      <point x="112" y="364"/>
      <point x="88" y="425"/>
      <point x="74" y="458" type="curve" smooth="yes"/>
      <point x="71" y="466"/>
      <point x="65" y="482"/>
      <point x="44" y="482" type="curve"/>
      <point x="44" y="507" type="line"/>
      <point x="230" y="507" type="line"/>
      <point x="230" y="482" type="line"/>
      <point x="223" y="482" type="line"/>
      <point x="207" y="482"/>
      <point x="202" y="468"/>
      <point x="202" y="460" type="curve" smooth="yes"/>
      <point x="202" y="449"/>
      <point x="227" y="376"/>
      <point x="247" y="321" type="curve" smooth="yes"/>
      <point x="271" y="256"/>
      <point x="281" y="232"/>
      <point x="296" y="197" type="curve"/>
      <point x="313" y="231"/>
      <point x="328" y="262"/>
      <point x="357" y="330" type="curve" smooth="yes"/>
      <point x="402" y="434"/>
      <point x="407" y="446"/>
      <point x="407" y="457" type="curve" smooth="yes"/>
      <point x="407" y="467"/>
      <point x="399" y="482"/>
      <point x="384" y="482" type="curve"/>
      <point x="377" y="482" type="line"/>
    </contour>
    <contour>
      <point x="274" y="-14" type="move" name="bottom"/>
    </contour>
  </outline>
</glyph>
<glyph name="w" format="1">
  <advance width="858"/>
  <unicode hex="0077"/>
  <outline>
    <contour>
      <point x="268" y="-11" type="curve" smooth="yes"/>
      <point x="275" y="-11"/>
      <point x="282" y="-6"/>
      <point x="287" y="3" type="curve" smooth="yes"/>
      <point x="295" y="17"/>
      <point x="436" y="289"/>
      <point x="445" y="313" type="curve"/>
      <point x="451" y="298"/>
      <point x="486" y="211"/>
      <point x="493" y="195" type="curve" smooth="yes"/>
      <point x="526" y="117"/>
      <point x="550" y="56"/>
      <point x="569" y="4" type="curve" smooth="yes"/>
      <point x="572" y="-3"/>
      <point x="579" y="-10"/>
      <point x="587" y="-10" type="curve" smooth="yes"/>
      <point x="594" y="-10"/>
      <point x="599" y="-5"/>
      <point x="603" y="2" type="curve" smooth="yes"/>
      <point x="608" y="12"/>
      <point x="673" y="171"/>
      <point x="725" y="300" type="curve" smooth="yes"/>
      <point x="763" y="394"/>
      <point x="785" y="453"/>
      <point x="786" y="456" type="curve" smooth="yes"/>
      <point x="791" y="467"/>
      <point x="803" y="484"/>
      <point x="818" y="484" type="curve"/>
      <point x="818" y="506" type="line"/>
      <point x="682" y="506" type="line"/>
      <point x="682" y="484" type="line"/>
      <point x="685" y="484" type="line"/>
      <point x="701" y="483"/>
      <point x="709" y="477"/>
      <point x="709" y="465" type="curve" smooth="yes"/>
      <point x="709" y="453"/>
      <point x="703" y="433"/>
      <point x="655" y="318" type="curve" smooth="yes"/>
      <point x="627" y="250"/>
      <point x="611" y="219"/>
      <point x="596" y="191" type="curve"/>
      <point x="583" y="222"/>
      <point x="569" y="256"/>
      <point x="544" y="320" type="curve" smooth="yes"/>
      <point x="504" y="423"/>
      <point x="491" y="457"/>
      <point x="491" y="467" type="curve" smooth="yes"/>
      <point x="491" y="477"/>
      <point x="499" y="483"/>
      <point x="513" y="483" type="curve"/>
      <point x="520" y="483" type="line"/>
      <point x="520" y="506" type="line"/>
      <point x="337" y="506" type="line"/>
      <point x="337" y="483" type="line"/>
      <point x="357" y="483"/>
      <point x="359" y="480"/>
      <point x="364" y="469" type="curve"/>
      <point x="393" y="409" type="line"/>
      <point x="384" y="385"/>
      <point x="371" y="351"/>
      <point x="358" y="322" type="curve" smooth="yes"/>
      <point x="328" y="255"/>
      <point x="315" y="229"/>
      <point x="299" y="198" type="curve"/>
      <point x="286" y="230"/>
      <point x="276" y="255"/>
      <point x="252" y="320" type="curve" smooth="yes"/>
      <point x="210" y="432"/>
      <point x="202" y="455"/>
      <point x="202" y="460" type="curve" smooth="yes"/>
      <point x="202" y="469"/>
      <point x="205" y="483"/>
      <point x="220" y="483" type="curve"/>
      <point x="227" y="483" type="line"/>
      <point x="227" y="506" type="line"/>
      <point x="47" y="506" type="line"/>
      <point x="47" y="484" type="line"/>
      <point x="68" y="484"/>
      <point x="73" y="470"/>
      <point x="78" y="456" type="curve" smooth="yes"/>
      <point x="80" y="451"/>
      <point x="108" y="378"/>
      <point x="144" y="282" type="curve" smooth="yes"/>
      <point x="202" y="126"/>
      <point x="231" y="49"/>
      <point x="250" y="3" type="curve" smooth="yes"/>
      <point x="253" y="-4"/>
      <point x="259" y="-11"/>
    </contour>
    <contour>
      <point x="416" y="3" type="move" name="bottom"/>
    </contour>
    <contour>
      <point x="406" y="510" type="move" name="top"/>
    </contour>
  </outline>
</glyph>
